<svg width="124" height="124" viewBox="0 0 124 124" fill="none" xmlns="http://www.w3.org/2000/svg">
<path d="M1.4 62C1.4 95.4684 28.5316 122.6 62 122.6C95.4684 122.6 122.6 95.4684 122.6 62C122.6 28.5316 95.4684 1.4 62 1.4C28.5316 1.4 1.4 28.5316 1.4 62Z" fill="white" stroke="#EAE0FF" stroke-width="1.2"/>
<path fill-rule="evenodd" clip-rule="evenodd" d="M62 107C37.1472 107 17 86.8528 17 62C17 37.1472 37.1472 17 62 17C86.8528 17 107 37.1472 107 62C107 86.8528 86.8528 107 62 107Z" fill="#00005B"/>
<path d="M54.1955 66.6181H43.421L41.2198 73.7383C41.1952 73.8676 41.1251 73.9825 41.0233 74.0607C40.9215 74.1389 40.7953 74.1745 40.6695 74.1607H35.2244C34.9058 74.1607 34.8189 73.9797 34.9058 73.6176L44.232 45.7704C44.3189 45.4687 44.4058 45.1972 44.5217 44.8351C44.6382 44.1885 44.6964 43.532 44.6954 42.874C44.6868 42.7985 44.7058 42.7223 44.7488 42.6608C44.7918 42.5992 44.8555 42.5569 44.9271 42.5422H52.4287C52.6315 42.5422 52.7763 42.6327 52.8052 42.7835L63.3769 73.7082C63.4638 74.04 63.3769 74.1909 63.0873 74.1909H57.0339C56.9315 74.2012 56.829 74.1735 56.7442 74.1128C56.6595 74.0521 56.5979 73.9623 56.5705 73.859L54.1955 66.6181ZM45.1009 60.6142H52.4577C52.2839 59.9806 52.0522 59.2264 51.7915 58.442C51.5308 57.6575 51.2702 56.7524 51.0095 55.8473C50.7488 54.9422 50.4592 54.0069 50.1695 53.0716C49.8799 52.1363 49.6192 51.2614 49.3875 50.3865C49.1558 49.5115 48.9531 48.7573 48.7503 48.0332H48.6924C48.4321 49.3481 48.1034 50.6474 47.7076 51.9252C47.2732 53.3733 46.8387 54.8819 46.3753 56.3904C45.9988 57.9291 45.5354 59.3471 45.1009 60.6142Z" fill="#9999FF"/>
<path d="M80.5541 63.8433H71.3726C71.4822 64.7954 71.7885 65.7115 72.2705 66.5285C72.7823 67.3416 73.5199 67.9731 74.3848 68.3387C75.5556 68.8602 76.8191 69.1173 78.0922 69.0929C79.1036 69.0736 80.1115 68.9626 81.1044 68.7611C81.9877 68.6406 82.8534 68.4075 83.6821 68.0671C83.827 67.9465 83.9139 68.0068 83.9139 68.3085V72.9246C83.9088 73.0473 83.8893 73.1688 83.8559 73.2866C83.8036 73.3713 83.7344 73.4433 83.6532 73.4978C82.7268 73.9216 81.7541 74.2255 80.7568 74.4029C79.402 74.6743 78.0234 74.7957 76.644 74.765C74.4428 74.765 72.5891 74.4029 71.083 73.709C69.6657 73.0682 68.4149 72.0858 67.4336 70.8428C66.5166 69.6805 65.8366 68.3357 65.4351 66.8905C64.5864 63.8806 64.6268 60.6743 65.551 57.6885C66.0128 56.1779 66.7504 54.7744 67.7232 53.5552C68.681 52.3496 69.8762 51.3721 71.2278 50.689C72.5891 49.9951 74.2111 49.7537 76.0647 49.7537C77.6091 49.7164 79.1423 50.0358 80.5541 50.689C81.7407 51.2248 82.7844 52.0532 83.5953 53.1026C84.3651 54.1331 84.9535 55.2976 85.3331 56.5421C85.7014 57.7312 85.8871 58.9734 85.8834 60.2228C85.8834 60.9469 85.8544 61.5805 85.8254 62.1537C85.7965 62.727 85.7386 63.1494 85.7096 63.4209C85.6968 63.5254 85.6492 63.6219 85.5751 63.6936C85.501 63.7653 85.4051 63.8076 85.3041 63.8131C85.1303 63.8131 84.8117 63.8433 84.3483 63.8735C83.7906 63.9394 83.2296 63.9696 82.6684 63.964C82.0023 63.964 81.3071 63.8433 80.5541 63.8433ZM71.3726 59.4384H77.4839C78.237 59.4384 78.7873 59.4384 79.1349 59.4082C79.3729 59.3876 79.6021 59.3046 79.801 59.1669V58.8652C79.8022 58.4857 79.7435 58.1085 79.6272 57.7489C79.3737 56.9233 78.8693 56.2061 78.1901 55.7054C77.5108 55.2047 76.6937 54.9477 75.862 54.9732C75.0759 54.9273 74.2939 55.1194 73.6104 55.5262C72.9268 55.9331 72.3709 56.5374 72.0098 57.2661C71.6719 57.9437 71.456 58.6799 71.3726 59.4384Z" fill="#9999FF"/>
</svg>
