<svg width="90" height="28" viewBox="0 0 90 28" fill="none" xmlns="http://www.w3.org/2000/svg">
<g clip-path="url(#clip0_1698_31578)">
<path d="M47.0082 7.03503C47.0082 8.04404 46.2002 8.85686 45.1972 8.85686C44.1942 8.85686 43.3862 8.04404 43.3862 7.03503C43.3862 6.02603 44.1663 5.21321 45.1972 5.21321C46.2281 5.24124 47.0082 6.05405 47.0082 7.03503ZM39.5413 10.7067C39.5413 10.8749 39.5413 11.1552 39.5413 11.1552C39.5413 11.1552 38.6775 10.034 36.8387 10.034C33.8018 10.034 31.4335 12.3604 31.4335 15.5836C31.4335 18.7788 33.7739 21.1331 36.8387 21.1331C38.7054 21.1331 39.5413 19.984 39.5413 19.984V20.4605C39.5413 20.6847 39.7084 20.8529 39.9313 20.8529H42.1881V10.3143C42.1881 10.3143 40.1264 10.3143 39.9313 10.3143C39.7084 10.3143 39.5413 10.5105 39.5413 10.7067ZM39.5413 17.4615C39.1233 18.0781 38.2875 18.6106 37.2845 18.6106C35.5013 18.6106 34.1361 17.4895 34.1361 15.5836C34.1361 13.6777 35.5013 12.5566 37.2845 12.5566C38.2596 12.5566 39.1512 13.1171 39.5413 13.7057V17.4615ZM43.8598 10.3143H46.5345V20.8529H43.8598V10.3143ZM83.8134 10.034C81.9746 10.034 81.1109 11.1552 81.1109 11.1552V5.24124H78.4361V20.8529C78.4361 20.8529 80.4979 20.8529 80.6929 20.8529C80.9158 20.8529 81.083 20.6567 81.083 20.4605V19.984C81.083 19.984 81.9467 21.1331 83.7856 21.1331C86.8225 21.1331 89.1907 18.7788 89.1907 15.5836C89.1907 12.3884 86.8225 10.034 83.8134 10.034ZM83.3677 18.5826C82.3368 18.5826 81.5288 18.05 81.1109 17.4334V13.6777C81.5288 13.1171 82.4204 12.5285 83.3677 12.5285C85.1508 12.5285 86.516 13.6496 86.516 15.5556C86.516 17.4615 85.1508 18.5826 83.3677 18.5826ZM77.0431 14.6026V20.8809H74.3683V14.9109C74.3683 13.1732 73.8111 12.4725 72.3066 12.4725C71.4986 12.4725 70.6627 12.8929 70.1334 13.5095V20.8529H67.4586V10.3143H69.5761C69.799 10.3143 69.9662 10.5105 69.9662 10.7067V11.1552C70.7463 10.3423 71.7772 10.034 72.8081 10.034C73.9783 10.034 74.9534 10.3704 75.7336 11.043C76.6809 11.8278 77.0431 12.8368 77.0431 14.6026ZM60.9669 10.034C59.128 10.034 58.2643 11.1552 58.2643 11.1552V5.24124H55.5896V20.8529C55.5896 20.8529 57.6513 20.8529 57.8464 20.8529C58.0693 20.8529 58.2364 20.6567 58.2364 20.4605V19.984C58.2364 19.984 59.1001 21.1331 60.939 21.1331C63.9759 21.1331 66.3442 18.7788 66.3442 15.5836C66.372 12.3884 64.0038 10.034 60.9669 10.034ZM60.5211 18.5826C59.4902 18.5826 58.6822 18.05 58.2643 17.4334V13.6777C58.6822 13.1171 59.5738 12.5285 60.5211 12.5285C62.3042 12.5285 63.6695 13.6496 63.6695 15.5556C63.6695 17.4615 62.3042 18.5826 60.5211 18.5826ZM53.2771 10.034C54.085 10.034 54.503 10.1742 54.503 10.1742V12.6687C54.503 12.6687 52.274 11.9119 50.881 13.5095V20.8809H48.2062V10.3143C48.2062 10.3143 50.268 10.3143 50.463 10.3143C50.6859 10.3143 50.8531 10.5105 50.8531 10.7067V11.1552C51.3546 10.5666 52.4412 10.034 53.2771 10.034ZM25.499 19.8999C25.3597 19.5636 25.2204 19.1992 25.0811 18.8909C24.8582 18.3864 24.6353 17.9099 24.4402 17.4615L24.4124 17.4334C22.4899 13.2292 20.4282 8.96897 18.2549 4.76476L18.1714 4.5966C17.9485 4.17618 17.7256 3.72773 17.5027 3.27928C17.2241 2.77477 16.9454 2.24224 16.4997 1.73774C15.6081 0.616617 14.3265 0 12.9612 0C11.5681 0 10.3144 0.616617 9.39494 1.68168C8.97701 2.18619 8.67053 2.71872 8.39192 3.22322C8.16902 3.67167 7.94613 4.12012 7.72324 4.54054L7.63965 4.70871C5.4943 8.91291 3.40468 13.1732 1.48222 17.3774L1.45436 17.4334C1.25933 17.8819 1.03644 18.3584 0.813545 18.8629C0.674237 19.1712 0.534928 19.5075 0.39562 19.8719C0.0334183 20.9089 -0.0780283 21.8899 0.06128 22.8989C0.367758 25.001 1.76084 26.7668 3.6833 27.5515C4.4077 27.8599 5.15996 28 5.94009 28C6.16298 28 6.4416 27.972 6.66449 27.9439C7.58393 27.8318 8.53123 27.5235 9.45066 26.991C10.593 26.3463 11.6796 25.4214 12.9055 24.0761C14.1314 25.4214 15.2459 26.3463 16.3604 26.991C17.2798 27.5235 18.2271 27.8318 19.1465 27.9439C19.3694 27.972 19.648 28 19.8709 28C20.6511 28 21.4312 27.8599 22.1277 27.5515C24.078 26.7668 25.4433 24.973 25.7497 22.8989C25.9726 21.9179 25.8612 20.9369 25.499 19.8999ZM12.9334 21.3574C11.4288 19.4514 10.4537 17.6577 10.1193 16.1441C9.98003 15.4995 9.95217 14.9389 10.0358 14.4344C10.0915 13.986 10.2586 13.5936 10.4815 13.2573C11.0109 12.5005 11.9025 12.024 12.9334 12.024C13.9643 12.024 14.8837 12.4725 15.3852 13.2573C15.6081 13.5936 15.7753 13.986 15.831 14.4344C15.9146 14.9389 15.8867 15.5275 15.7474 16.1441C15.4131 17.6296 14.4379 19.4234 12.9334 21.3574ZM24.0502 22.6747C23.8551 24.1321 22.88 25.3934 21.5148 25.954C20.8461 26.2342 20.1217 26.3183 19.3973 26.2342C18.7007 26.1501 18.0042 25.9259 17.2798 25.5055C16.2768 24.9449 15.2737 24.0761 14.1036 22.7868C15.9424 20.5165 17.0569 18.4424 17.4748 16.5926C17.6699 15.7237 17.6977 14.9389 17.6141 14.2102C17.5027 13.5095 17.2519 12.8649 16.8619 12.3043C15.9982 11.043 14.5493 10.3143 12.9334 10.3143C11.3174 10.3143 9.86859 11.0711 9.00487 12.3043C8.61481 12.8649 8.36406 13.5095 8.25261 14.2102C8.14116 14.9389 8.16902 15.7518 8.39192 16.5926C8.80984 18.4424 9.95217 20.5445 11.7632 22.8148C10.6209 24.1041 9.58997 24.973 8.58695 25.5335C7.86255 25.954 7.166 26.1782 6.46946 26.2623C5.7172 26.3463 4.99279 26.2342 4.35198 25.982C2.98675 25.4214 2.0116 24.1602 1.81656 22.7027C1.73298 22.002 1.7887 21.3013 2.06732 20.5165C2.1509 20.2362 2.29021 19.956 2.42952 19.6196C2.62455 19.1712 2.84745 18.6947 3.07034 18.2182L3.0982 18.1622C5.02066 13.986 7.08242 9.72573 9.22777 5.57758L9.31135 5.40941C9.53425 4.98899 9.75714 4.54054 9.98003 4.12012C10.2029 3.67167 10.4537 3.25125 10.7602 2.88689C11.3453 2.21421 12.1254 1.84985 12.9891 1.84985C13.8528 1.84985 14.6329 2.21421 15.218 2.88689C15.5245 3.25125 15.7753 3.67167 15.9982 4.12012C16.221 4.54054 16.4439 4.98899 16.6668 5.40941L16.7504 5.57758C18.8679 9.75375 20.9297 14.014 22.8521 18.1902V18.2182C23.075 18.6667 23.27 19.1712 23.4929 19.6196C23.6322 19.956 23.7716 20.2362 23.8551 20.5165C24.078 21.2452 24.1616 21.9459 24.0502 22.6747Z" fill="#808E9A"/>
</g>
<defs>
<clipPath id="clip0_1698_31578">
<rect width="89.1852" height="28" fill="white" transform="translate(0.0055542)"/>
</clipPath>
</defs>
</svg>
