<svg xmlns="http://www.w3.org/2000/svg" width="128" height="40" fill="none"><g fill="#FF385C" clip-path="url(#a)"><path d="M36.733 28.389c-.18-.504-.389-.991-.588-1.442-.307-.695-.629-1.39-.94-2.063l-.024-.053a461.357 461.357 0 0 0-8.849-18.096l-.131-.255c-.316-.613-.643-1.247-.978-1.87a12.15 12.15 0 0 0-1.438-2.213A6.698 6.698 0 0 0 18.645 0a6.71 6.71 0 0 0-5.138 2.397 12.199 12.199 0 0 0-1.437 2.214c-.338.628-.668 1.267-.987 1.886l-.122.237A461.825 461.825 0 0 0 2.113 24.83l-.04.087a135.92 135.92 0 0 0-.924 2.028c-.2.451-.409.938-.589 1.443a8.842 8.842 0 0 0-.476 4.31 8.515 8.515 0 0 0 1.724 4.028 8.537 8.537 0 0 0 3.5 2.64A8.68 8.68 0 0 0 8.583 40c.352 0 .705-.02 1.055-.061a10.745 10.745 0 0 0 4.027-1.36c1.625-.912 3.229-2.25 4.982-4.16 1.752 1.91 3.357 3.248 4.981 4.16a10.763 10.763 0 0 0 4.027 1.36c.35.04.703.06 1.056.061a8.68 8.68 0 0 0 3.274-.633 8.539 8.539 0 0 0 3.5-2.642A8.515 8.515 0 0 0 37.21 32.7a8.85 8.85 0 0 0-.477-4.31zm-18.086 2.083c-2.17-2.75-3.562-5.304-4.05-7.445a6.585 6.585 0 0 1-.14-2.454 3.996 3.996 0 0 1 .646-1.678 4.47 4.47 0 0 1 3.544-1.742 4.48 4.48 0 0 1 3.544 1.742c.34.504.56 1.077.646 1.678.108.82.06 1.653-.14 2.456-.49 2.14-1.881 4.694-4.05 7.443zm16.029 1.865A5.953 5.953 0 0 1 31.023 37c-.974.39-2.03.528-3.072.402a8.116 8.116 0 0 1-3.067-1.048c-1.446-.812-2.91-2.06-4.557-3.889 2.622-3.233 4.26-6.213 4.865-8.868a9.106 9.106 0 0 0 .175-3.412 6.542 6.542 0 0 0-1.065-2.735 7.027 7.027 0 0 0-5.655-2.852 7.038 7.038 0 0 0-5.656 2.852 6.544 6.544 0 0 0-1.064 2.734 9.111 9.111 0 0 0 .173 3.41c.606 2.656 2.244 5.637 4.867 8.871-1.648 1.83-3.111 3.077-4.557 3.89a8.114 8.114 0 0 1-3.068 1.047A6.238 6.238 0 0 1 6.27 37a5.969 5.969 0 0 1-3.652-4.663 6.271 6.271 0 0 1 .355-3.093c.143-.402.31-.797.518-1.266.293-.663.605-1.338.906-1.99l.04-.087a459.378 459.378 0 0 1 8.8-17.996l.122-.238c.314-.609.638-1.238.966-1.846a9.872 9.872 0 0 1 1.13-1.765 4.137 4.137 0 0 1 3.191-1.5 4.147 4.147 0 0 1 3.192 1.5 9.832 9.832 0 0 1 1.13 1.764c.324.603.646 1.226.957 1.83l.131.255a458.892 458.892 0 0 1 8.8 17.996l.025.054c.306.663.623 1.348.922 2.024.207.47.375.864.518 1.265.376.985.498 2.049.355 3.093zm17.43-2.187c-.999 0-1.918-.2-2.757-.6-.839-.401-1.558-.962-2.197-1.682-.64-.721-1.12-1.562-1.479-2.483-.36-.96-.52-2.002-.52-3.123 0-1.121.2-2.202.56-3.163.36-.961.88-1.802 1.519-2.563.639-.72 1.398-1.321 2.277-1.721a6.681 6.681 0 0 1 2.837-.601c.999 0 1.878.2 2.677.64.799.401 1.438 1.002 1.957 1.762l.12-1.961h3.676V29.75H57.1l-.12-2.203a5.66 5.66 0 0 1-2.077 1.922c-.8.44-1.758.681-2.797.681zm.959-3.604c.72 0 1.358-.2 1.958-.56.56-.4.999-.921 1.358-1.562.32-.64.48-1.401.48-2.242 0-.84-.16-1.602-.48-2.242a4.28 4.28 0 0 0-1.358-1.562c-.56-.4-1.239-.56-1.958-.56-.72 0-1.359.2-1.958.56-.56.4-.999.921-1.358 1.562-.32.64-.48 1.401-.48 2.242 0 .84.16 1.602.48 2.242.32.64.799 1.161 1.358 1.562.6.36 1.239.56 1.958.56zM67.049 10.57c0 .44-.08.841-.28 1.162-.2.32-.48.6-.839.8-.36.2-.759.28-1.158.28-.4 0-.8-.08-1.16-.28-.359-.2-.638-.48-.838-.8-.2-.36-.28-.721-.28-1.162 0-.44.08-.84.28-1.16.2-.361.48-.601.839-.802.36-.2.76-.28 1.159-.28.4 0 .799.08 1.158.28.36.2.64.48.84.801.16.32.28.68.28 1.161zm-4.275 19.14V14.613h3.995V29.71h-3.995zm14.663-11.132v.04c-.2-.08-.44-.12-.64-.16-.239-.04-.439-.04-.678-.04-1.119 0-1.958.32-2.517 1.001-.6.68-.88 1.642-.88 2.883v7.407h-3.995V14.614h3.676l.12 2.283c.4-.801.879-1.402 1.558-1.842.64-.44 1.398-.64 2.277-.64.28 0 .56.04.8.08.12.04.2.04.28.08v4.003zm1.598 11.131V8.41h3.996v8.127a6.355 6.355 0 0 1 1.998-1.721 5.876 5.876 0 0 1 2.677-.641c.998 0 1.917.2 2.756.6.84.401 1.559.962 2.198 1.682.64.721 1.119 1.562 1.478 2.483.36.96.52 2.002.52 3.123 0 1.121-.2 2.202-.56 3.163a8.693 8.693 0 0 1-1.518 2.563c-.64.72-1.398 1.32-2.277 1.721-.88.4-1.798.6-2.837.6-.999 0-1.878-.2-2.677-.64-.8-.4-1.438-1-1.958-1.762l-.12 1.962-3.676.04zm7.712-3.163c.719 0 1.358-.2 1.957-.56.56-.4 1-.921 1.359-1.562.32-.64.48-1.401.48-2.242 0-.84-.16-1.602-.48-2.242-.36-.64-.8-1.161-1.359-1.562-.559-.4-1.238-.56-1.957-.56-.72 0-1.359.2-1.958.56-.56.4-.999.921-1.359 1.562-.32.64-.479 1.401-.479 2.242 0 .84.16 1.602.48 2.242.32.64.799 1.161 1.358 1.562.6.36 1.239.56 1.958.56zm9.43 3.163V14.614h3.675l.12 1.962c.439-.72 1.039-1.28 1.798-1.721.759-.44 1.638-.641 2.637-.641 1.118 0 2.077.28 2.876.8.839.521 1.479 1.282 1.918 2.243.44.961.679 2.122.679 3.444v9.049h-3.995v-8.53c0-1.041-.24-1.882-.719-2.483-.48-.6-1.119-.92-1.958-.92-.599 0-1.119.12-1.598.4-.44.28-.799.64-1.079 1.161-.28.48-.399 1.081-.399 1.682v8.648h-3.956zm15.701 0V8.41h3.996v8.127a6.348 6.348 0 0 1 1.997-1.721c.8-.4 1.679-.641 2.677-.641.999 0 1.918.2 2.757.6.839.401 1.558.962 2.198 1.682.64.721 1.118 1.562 1.478 2.483.36.96.519 2.002.519 3.123a9.061 9.061 0 0 1-.559 3.163 8.685 8.685 0 0 1-1.518 2.563c-.639.72-1.399 1.32-2.278 1.721-.879.4-1.798.6-2.836.6-.999 0-1.878-.2-2.677-.64-.799-.4-1.439-1-1.958-1.762l-.12 1.962-3.676.04zm7.751-3.163c.72 0 1.359-.2 1.958-.56.56-.4.999-.921 1.359-1.562.319-.64.479-1.401.479-2.242 0-.84-.16-1.602-.479-2.242a4.28 4.28 0 0 0-1.359-1.562c-.559-.4-1.238-.56-1.958-.56-.719 0-1.358.2-1.957.56-.56.4-.999.921-1.359 1.562-.359.64-.479 1.401-.479 2.242 0 .84.16 1.602.479 2.242.32.64.799 1.161 1.359 1.562.599.36 1.198.56 1.957.56z"/></g><defs><clipPath id="a"><path fill="#fff" d="M0 0h127.5v40H0z"/></clipPath></defs></svg>