<svg width="120" height="120" viewBox="0 0 120 120" fill="none" xmlns="http://www.w3.org/2000/svg">
<rect x="0.6" y="0.6" width="118.8" height="118.8" rx="59.4" fill="white" stroke="#EAE0FF" stroke-width="1.2"/>
<g clip-path="url(#clip0_2432_16522)">
<g clip-path="url(#clip1_2432_16522)">
<path d="M60.6001 105.6C85.4529 105.6 105.6 85.4528 105.6 60.6C105.6 35.7472 85.4529 15.6 60.6001 15.6C35.7473 15.6 15.6001 35.7472 15.6001 60.6C15.6001 85.4528 35.7473 105.6 60.6001 105.6Z" fill="#7D2AE7"/>
<path d="M60.6001 105.6C85.4529 105.6 105.6 85.4528 105.6 60.6C105.6 35.7472 85.4529 15.6 60.6001 15.6C35.7473 15.6 15.6001 35.7472 15.6001 60.6C15.6001 85.4528 35.7473 105.6 60.6001 105.6Z" fill="url(#paint0_radial_2432_16522)"/>
<path d="M60.6001 105.6C85.4529 105.6 105.6 85.4528 105.6 60.6C105.6 35.7472 85.4529 15.6 60.6001 15.6C35.7473 15.6 15.6001 35.7472 15.6001 60.6C15.6001 85.4528 35.7473 105.6 60.6001 105.6Z" fill="url(#paint1_radial_2432_16522)"/>
<path d="M60.6001 105.6C85.4529 105.6 105.6 85.4528 105.6 60.6C105.6 35.7472 85.4529 15.6 60.6001 15.6C35.7473 15.6 15.6001 35.7472 15.6001 60.6C15.6001 85.4528 35.7473 105.6 60.6001 105.6Z" fill="url(#paint2_radial_2432_16522)"/>
<path d="M60.6001 105.6C85.4529 105.6 105.6 85.4528 105.6 60.6C105.6 35.7472 85.4529 15.6 60.6001 15.6C35.7473 15.6 15.6001 35.7472 15.6001 60.6C15.6001 85.4528 35.7473 105.6 60.6001 105.6Z" fill="url(#paint3_radial_2432_16522)"/>
<path d="M96.4928 63.0669C96.372 63.0669 96.2645 63.1479 96.211 63.3089C95.481 65.3865 94.4957 66.6266 93.6853 66.6266C93.2196 66.6266 93.0316 66.1075 93.0316 65.2923C93.0316 63.2597 94.2542 58.9432 94.8628 56.9731C94.9348 56.77 94.9756 56.5571 94.9841 56.3417C94.9841 55.7686 94.6705 55.4865 93.8961 55.4865C93.1211 55.4865 92.1586 55.8179 91.2898 57.3492C90.9853 55.997 90.072 55.4059 88.7959 55.4059C87.3227 55.4059 85.8989 56.3552 84.7255 57.891C83.5527 59.4268 82.1781 59.9373 81.1393 59.6865C81.8867 57.8641 82.1601 56.4985 82.1601 55.4865C82.1601 53.8969 81.3766 52.9388 80.1095 52.9388C78.1792 52.9388 77.0689 54.779 77.0689 56.7134C77.0689 58.2089 77.7453 59.7492 79.2407 60.497C77.9912 63.3222 76.1646 65.8792 75.4707 65.8792C74.575 65.8792 74.3106 61.4999 74.3646 58.3656C74.3912 56.5701 74.5437 56.4761 74.5437 55.9298C74.5437 55.6209 74.3376 55.4059 73.5272 55.4059C71.6334 55.4059 71.0422 57.0134 70.957 58.8582C70.9243 59.5576 70.8148 60.2514 70.6301 60.9268C69.8334 63.7566 68.2034 65.9014 67.1376 65.9014C66.6407 65.9014 66.511 65.4045 66.511 64.7598C66.511 62.7268 67.6483 60.179 67.6483 58.0119C67.6483 56.4134 66.9496 55.4059 65.6285 55.4059C64.0795 55.4059 62.0242 57.2552 60.0809 60.7119C60.7213 58.0656 60.9809 55.4999 59.0914 55.4999C58.6802 55.5063 58.2765 55.6107 57.9138 55.8044C57.6541 55.9388 57.5153 56.1805 57.5332 56.4492C57.7123 59.2746 55.2585 66.4968 52.9302 66.4968C52.5048 66.4968 52.3033 66.0402 52.3033 65.297C52.3033 63.2639 53.5168 58.9566 54.1257 56.982C54.1999 56.7671 54.2407 56.5421 54.2466 56.3149C54.2466 55.7776 53.9153 55.4999 53.1586 55.4999C52.3257 55.4999 51.4257 55.8179 50.5526 57.3492C50.2481 55.997 49.3346 55.4059 48.063 55.4059C45.972 55.4059 43.6302 57.6179 42.6048 60.5059C41.2302 64.3567 38.4585 68.0733 34.7287 68.0733C31.3436 68.0733 29.5571 65.2567 29.5571 60.8104C29.5571 54.3805 34.2765 49.1328 37.7735 49.1328C39.4481 49.1328 40.2451 50.1985 40.2451 51.8328C40.2451 53.8119 39.1436 54.7298 39.1436 55.482C39.1436 55.7104 39.3317 55.9388 39.7123 55.9388C41.2346 55.9388 43.0212 54.1522 43.0212 51.7164C43.0212 49.2806 41.0466 47.494 37.5451 47.494C31.7645 47.494 25.9436 53.3149 25.9436 60.7701C25.9436 66.7029 28.872 70.2806 33.9317 70.2806C37.3839 70.2806 40.4018 67.5986 42.0317 64.4595C42.2153 67.061 43.3929 68.4134 45.1884 68.4134C46.7869 68.4134 48.0809 67.4641 49.0705 65.7896C49.4511 67.5404 50.4586 68.4001 51.7705 68.4001C53.2749 68.4001 54.5287 67.4461 55.7242 65.6774C55.7063 67.0657 56.0242 68.3731 57.2287 68.3731C57.7973 68.3731 58.4779 68.2433 58.5988 67.7464C59.8615 62.5029 63.0005 58.2223 63.9587 58.2223C64.2406 58.2223 64.3168 58.491 64.3168 58.8179C64.3168 60.2417 63.3136 63.1612 63.3136 65.0237C63.3136 67.043 64.1691 68.3731 65.9378 68.3731C67.8989 68.3731 69.8912 65.9729 71.2213 62.4626C71.6376 65.7404 72.5376 68.3864 73.9393 68.3864C75.6673 68.3864 78.7349 64.7551 80.5926 60.9044C81.3183 60.9985 82.4154 60.9761 83.4632 60.2328C83.0198 61.3656 82.7555 62.6059 82.7555 63.8418C82.7555 67.4148 84.457 68.4134 85.9259 68.4134C87.5241 68.4134 88.8182 67.4641 89.8077 65.7896C90.1345 67.2983 90.9673 68.3954 92.5034 68.3954C94.9031 68.3954 96.9897 65.9417 96.9897 63.9266C96.9897 63.3942 96.7614 63.0669 96.4928 63.0669ZM46.6571 66.4386C45.6854 66.4386 45.3048 65.4581 45.3048 64.0029C45.3048 61.4775 47.0332 57.2507 48.8645 57.2507C49.6615 57.2507 49.966 58.1955 49.966 59.3462C49.966 61.9119 48.3227 66.4386 46.6571 66.4386ZM79.8722 58.8895C79.2943 58.1999 79.084 57.2597 79.084 56.4268C79.084 55.397 79.4601 54.5283 79.9124 54.5283C80.3643 54.5283 80.4988 54.9716 80.4988 55.5895C80.4988 56.6193 80.1317 58.1328 79.8722 58.8895ZM87.39 66.4386C86.4227 66.4386 86.0419 65.315 86.0419 64.0029C86.0419 61.5626 87.7704 57.2507 89.6154 57.2507C90.4121 57.2507 90.6987 58.182 90.6987 59.3462C90.6987 61.9119 89.0825 66.4386 87.39 66.4386Z" fill="white"/>
</g>
</g>
<defs>
<radialGradient id="paint0_radial_2432_16522" cx="0" cy="0" r="1" gradientUnits="userSpaceOnUse" gradientTransform="translate(32.9843 95.3684) rotate(-49.4156) scale(69.6074)">
<stop stop-color="#6420FF"/>
<stop offset="1" stop-color="#6420FF" stop-opacity="0"/>
</radialGradient>
<radialGradient id="paint1_radial_2432_16522" cx="0" cy="0" r="1" gradientUnits="userSpaceOnUse" gradientTransform="translate(39.4264 25.8316) rotate(54.7035) scale(78.4952)">
<stop stop-color="#00C4CC"/>
<stop offset="1" stop-color="#00C4CC" stop-opacity="0"/>
</radialGradient>
<radialGradient id="paint2_radial_2432_16522" cx="0" cy="0" r="1" gradientUnits="userSpaceOnUse" gradientTransform="translate(32.9843 95.3684) rotate(-45.1954) scale(68.7647 31.6258)">
<stop stop-color="#6420FF"/>
<stop offset="1" stop-color="#6420FF" stop-opacity="0"/>
</radialGradient>
<radialGradient id="paint3_radial_2432_16522" cx="0" cy="0" r="1" gradientUnits="userSpaceOnUse" gradientTransform="translate(52.4054 27.7263) rotate(66.5198) scale(70.8565 118.701)">
<stop stop-color="#00C4CC" stop-opacity="0.725916"/>
<stop offset="0.0001" stop-color="#00C4CC"/>
<stop offset="1" stop-color="#00C4CC" stop-opacity="0"/>
</radialGradient>
<clipPath id="clip0_2432_16522">
<rect width="90" height="90" fill="white" transform="translate(15.6001 15.6)"/>
</clipPath>
<clipPath id="clip1_2432_16522">
<rect width="90" height="90" fill="white" transform="translate(15.6001 15.6)"/>
</clipPath>
</defs>
</svg>
