<svg width="41" height="41" viewBox="0 0 41 41" fill="none" xmlns="http://www.w3.org/2000/svg">
<rect width="39.9063" height="39.9063" rx="8" transform="matrix(1 0 -0.00234907 0.999997 0.760468 0.96875)" fill="#20272C"/>
<g clip-path="url(#clip0_1698_31640)">
<path d="M20.783 20.9681C20.783 18.495 22.838 16.49 25.3731 16.49C27.9081 16.49 29.9632 18.495 29.9632 20.9681C29.9632 23.4414 27.9081 25.4463 25.3731 25.4463C22.838 25.4463 20.783 23.4414 20.783 20.9681Z" fill="#1ABCFE"/>
<path d="M11.6027 29.9244C11.6027 27.4513 13.6577 25.4463 16.1928 25.4463H20.7829V29.9244C20.7829 32.3977 18.7279 34.4026 16.1928 34.4026C13.6577 34.4026 11.6027 32.3977 11.6027 29.9244Z" fill="#0ACF83"/>
<path d="M20.783 7.53369V16.49H25.3731C27.9082 16.49 29.9632 14.485 29.9632 12.0118C29.9632 9.53863 27.9082 7.53369 25.3731 7.53369H20.783Z" fill="#FF7262"/>
<path d="M11.6026 12.0118C11.6026 14.4851 13.6577 16.49 16.1927 16.49H20.7828V7.53369H16.1927C13.6577 7.53369 11.6026 9.53863 11.6026 12.0118Z" fill="#F24E1E"/>
<path d="M11.6027 20.9681C11.6027 23.4414 13.6577 25.4463 16.1928 25.4463H20.7829V16.49H16.1928C13.6577 16.49 11.6027 18.495 11.6027 20.9681Z" fill="#A259FF"/>
</g>
<defs>
<clipPath id="clip0_1698_31640">
<rect x="6.78302" y="7.53369" width="27.5406" height="26.8689" rx="8" fill="white"/>
</clipPath>
</defs>
</svg>
