<svg width="110" height="26" viewBox="0 0 110 26" fill="none" xmlns="http://www.w3.org/2000/svg">
<g clip-path="url(#clip0_1698_31573)">
<path fill-rule="evenodd" clip-rule="evenodd" d="M13.108 0.5C20.2878 0.5 26.0734 6.04813 26.0734 12.9332C26.0734 18.0802 22.7972 22.492 18.1269 24.4305C17.8481 24.5642 17.4995 24.631 17.2207 24.631C15.8963 24.631 14.781 23.6283 14.781 22.2914C14.781 21.3556 15.4083 20.4866 16.2448 20.1524L16.4539 20.0856C19.3119 18.8824 21.2637 16.1417 21.2637 13C21.194 8.65508 17.5692 5.17914 13.108 5.17914C8.64678 5.17914 5.02203 8.65508 5.02203 13C5.02203 16.2086 7.11323 19.016 9.9712 20.1524L10.1106 20.2192C10.9471 20.6203 11.5047 21.4225 11.5047 22.2914C11.5047 23.5615 10.4591 24.631 9.06502 24.631C8.71648 24.631 8.36795 24.5642 8.15883 24.4305C3.41878 22.492 0.142563 18.0802 0.142563 12.9332C0.142563 6.04813 5.99792 0.5 13.108 0.5ZM13.108 8.25401C15.8266 8.25401 17.9875 10.3262 17.9875 12.9332C17.9875 15.5401 15.8266 17.6123 13.108 17.6123C10.3894 17.6123 8.22854 15.5401 8.22854 12.9332C8.22854 10.3262 10.4591 8.25401 13.108 8.25401Z" fill="#808E9A"/>
<path fill-rule="evenodd" clip-rule="evenodd" d="M73.6134 4.64438V20.6872C73.6134 24.0294 72.2192 25.5 68.3854 25.5H65.8759V22.0241H68.0368C69.1521 22.0241 69.5704 21.623 69.5704 20.6203V4.64438H73.6134ZM48.8675 4.64438V18.6818C48.8675 22.5588 45.8004 25.5 41.1998 25.5C38.2024 25.5 35.6232 24.4973 33.8806 22.7594L36.4597 20.3529C37.575 21.4225 38.8995 22.0241 41.1301 22.0241C43.3607 22.0241 45.0336 20.6872 45.0336 18.8155V17.4118H44.9639C43.988 18.4813 42.3151 19.0829 40.3633 19.0829C35.9718 19.0829 32.6259 16.008 32.6259 11.8636C32.6259 7.85294 35.8324 4.71123 40.2239 4.71123C42.2454 4.71123 43.9183 5.31283 44.9639 6.31551H45.0336V4.64438H48.8675ZM59.2538 4.64438C63.9241 4.64438 67.2701 7.7861 67.2701 11.8636C67.2701 15.9412 63.9241 19.0829 59.2538 19.0829C54.5835 19.0829 51.2375 15.9412 51.2375 11.8636C51.2375 7.7861 54.5835 4.64438 59.2538 4.64438ZM83.6511 4.64438C88.3912 4.64438 91.3886 7.91979 91.3886 11.9973V13.0668H79.8173C79.887 14.4706 81.7691 15.9412 84.1391 15.9412C85.7423 15.9412 86.7879 15.5401 88.0426 14.4706L90.6915 16.2754C89.5762 17.6123 87.3456 19.016 84.2785 19.016C79.2596 19.016 75.9137 16.1417 75.9137 11.7968C75.9834 7.65241 79.1899 4.64438 83.6511 4.64438ZM97.5925 0.5V10.3262H97.6622L104.075 4.51069H109.233L102.611 10.5936L109.233 19.016H104.633L100.102 12.9332H100.032L97.5925 15.139V19.016H93.7586V0.5H97.5925ZM59.2538 7.98663C56.7444 7.98663 55.2108 9.65775 55.2108 11.8636C55.2108 14.0695 56.8141 15.7406 59.2538 15.7406C61.7632 15.7406 63.2968 14.0695 63.2968 11.8636C63.3665 9.59091 61.7632 7.98663 59.2538 7.98663ZM40.9907 7.98663C38.3418 7.98663 36.6688 9.52406 36.6688 11.7299C36.6688 14.1364 38.2721 15.607 40.8512 15.607C43.1516 15.607 44.8942 14.2701 44.8942 12.5989V10.9947C44.8942 9.39037 43.0819 7.98663 40.9907 7.98663ZM83.7905 7.71925C81.6296 7.71925 80.1658 8.78877 79.9567 10.393H87.6244C87.3456 8.72192 85.8817 7.71925 83.7905 7.71925Z" fill="#808E9A"/>
</g>
<defs>
<clipPath id="clip0_1698_31573">
<rect width="109.091" height="25" fill="white" transform="translate(0.142563 0.5)"/>
</clipPath>
</defs>
</svg>
