<svg width="167" height="40" viewBox="0 0 167 40" fill="none" xmlns="http://www.w3.org/2000/svg">
<g clip-path="url(#clip0_3247_224391)">
<path fill-rule="evenodd" clip-rule="evenodd" d="M19.8083 0C30.7774 0 39.6166 8.87701 39.6166 19.893C39.6166 28.1283 34.6113 35.1872 27.476 38.2888C27.0501 38.5027 26.5176 38.6096 26.0916 38.6096C24.0682 38.6096 22.3642 37.0053 22.3642 34.8663C22.3642 33.369 23.3227 31.9786 24.6006 31.4438L24.9201 31.3369C29.2865 29.4118 32.2684 25.0267 32.2684 20C32.1619 13.0481 26.6241 7.48663 19.8083 7.48663C12.9925 7.48663 7.45474 13.0481 7.45474 20C7.45474 25.1337 10.6496 29.6257 15.016 31.4438L15.229 31.5508C16.5069 32.1925 17.3589 33.4759 17.3589 34.8663C17.3589 36.8984 15.7614 38.6096 13.6315 38.6096C13.099 38.6096 12.5666 38.5027 12.2471 38.2888C5.00532 35.1872 0 28.1283 0 19.893C0 8.87701 8.94569 0 19.8083 0ZM19.8083 12.4064C23.9617 12.4064 27.263 15.7219 27.263 19.893C27.263 24.0642 23.9617 27.3797 19.8083 27.3797C15.655 27.3797 12.3536 24.0642 12.3536 19.893C12.3536 15.7219 15.7614 12.4064 19.8083 12.4064Z" fill="#00AA13"/>
<path fill-rule="evenodd" clip-rule="evenodd" d="M112.247 6.63102V32.2995C112.247 37.6471 110.117 40 104.26 40H100.426V34.4385H103.727C105.431 34.4385 106.07 33.7968 106.07 32.1925V6.63102H112.247ZM74.4409 6.63102V29.0909C74.4409 35.2941 69.7551 40 62.7263 40C58.147 40 54.2066 38.3957 51.5442 35.615L55.4846 31.7647C57.1885 33.4759 59.2119 34.4385 62.6198 34.4385C66.0277 34.4385 68.5836 32.2995 68.5836 29.3048V27.0588H68.4771C66.9862 28.7701 64.4302 29.7326 61.4483 29.7326C54.7391 29.7326 49.6273 24.8128 49.6273 18.1818C49.6273 11.7647 54.5261 6.73797 61.2354 6.73797C64.3237 6.73797 66.8797 7.70053 68.4771 9.30481H68.5836V6.63102H74.4409ZM90.3088 6.63102C97.4441 6.63102 102.556 11.6578 102.556 18.1818C102.556 24.7059 97.4441 29.7326 90.3088 29.7326C83.1736 29.7326 78.0618 24.7059 78.0618 18.1818C78.0618 11.6578 83.1736 6.63102 90.3088 6.63102ZM127.583 6.63102C134.824 6.63102 139.404 11.8717 139.404 18.3957V20.107H121.725C121.832 22.3529 124.707 24.7059 128.328 24.7059C130.777 24.7059 132.375 24.0642 134.292 22.3529L138.339 25.2406C136.635 27.3797 133.227 29.6257 128.541 29.6257C120.873 29.6257 115.761 25.0267 115.761 18.0749C115.868 11.4438 120.767 6.63102 127.583 6.63102ZM148.882 0V15.7219H148.988L158.786 6.41711H166.667L156.55 16.1497L166.667 29.6257H159.638L152.716 19.893H152.609L148.882 23.4225V29.6257H143.024V0H148.882ZM90.3088 11.9786C86.475 11.9786 84.1321 14.6524 84.1321 18.1818C84.1321 21.7112 86.5815 24.385 90.3088 24.385C94.1427 24.385 96.4856 21.7112 96.4856 18.1818C96.5921 14.5455 94.1427 11.9786 90.3088 11.9786ZM62.4068 11.9786C58.36 11.9786 55.804 14.4385 55.804 17.9679C55.804 21.8182 58.2535 24.1711 62.1938 24.1711C65.7082 24.1711 68.3706 22.0321 68.3706 19.3583V16.7914C68.3706 14.2246 65.6017 11.9786 62.4068 11.9786ZM127.796 11.5508C124.494 11.5508 122.258 13.262 121.938 15.8289H133.653C133.227 13.1551 130.99 11.5508 127.796 11.5508Z" fill="black"/>
</g>
<defs>
<clipPath id="clip0_3247_224391">
<rect width="166.667" height="40" fill="white"/>
</clipPath>
</defs>
</svg>
