<svg width="94" height="28" viewBox="0 0 94 28" fill="none" xmlns="http://www.w3.org/2000/svg">
<g clip-path="url(#clip0_1698_31563)">
<path d="M11.7902 9.99091V12.9818H19.3579C19.157 14.6364 18.5543 15.9091 17.6167 16.7364C16.5451 17.7545 14.8039 18.9 11.7902 18.9C7.1692 18.9 3.55277 15.3364 3.55277 10.9455C3.55277 6.55455 7.10223 2.99091 11.7902 2.99091C14.2681 2.99091 16.1433 3.94546 17.4827 5.15455L19.6928 3.05455C17.8176 1.33636 15.2727 0 11.7902 0C5.42796 0 0.070282 4.9 0.070282 10.9455C0.070282 16.9909 5.42796 21.8909 11.7902 21.8909C15.2057 21.8909 17.8176 20.8091 19.8267 18.8364C21.9028 16.8636 22.5725 14.0636 22.5725 11.8364C22.5725 11.1364 22.5055 10.5 22.4386 9.99091H11.7902Z" fill="#808E9A"/>
<path d="M31.9484 7.50928C27.8632 7.50928 24.4477 10.5002 24.4477 14.5729C24.4477 18.6456 27.7962 21.6365 31.9484 21.6365C36.1006 21.6365 39.4492 18.7093 39.4492 14.6365C39.4492 10.5002 36.1006 7.50928 31.9484 7.50928ZM31.9484 18.9002C29.6714 18.9002 27.7293 17.1184 27.7293 14.6365C27.7293 12.0911 29.6714 10.3729 31.9484 10.3729C34.2254 10.3729 36.1676 12.0911 36.1676 14.6365C36.1676 17.1184 34.2254 18.9002 31.9484 18.9002Z" fill="#808E9A"/>
<path d="M68.5815 9.10019H68.4476C67.7109 8.27291 66.3045 7.50928 64.4963 7.50928C60.7459 7.50928 57.5313 10.5638 57.5313 14.5729C57.5313 18.5184 60.7459 21.6365 64.4963 21.6365C66.3045 21.6365 67.7109 20.8729 68.4476 20.0456H68.5815V21.0638C68.5815 23.7365 67.0412 25.2002 64.6302 25.2002C62.6211 25.2002 61.4156 23.8638 60.8799 22.6547L58.0671 23.8002C58.8707 25.6456 61.0808 28.0002 64.6972 28.0002C68.5146 28.0002 71.7961 25.8366 71.7961 20.6184V7.8911H68.7155V9.10019H68.5815ZM64.8312 18.9002C62.5541 18.9002 60.8799 17.0547 60.8799 14.6365C60.8799 12.1547 62.6211 10.3729 64.8312 10.3729C67.0412 10.3729 68.7824 12.2184 68.7824 14.7002C68.8494 17.1184 67.1082 18.9002 64.8312 18.9002Z" fill="#808E9A"/>
<path d="M48.6242 7.50928C44.539 7.50928 41.1234 10.5002 41.1234 14.5729C41.1234 18.6456 44.472 21.6365 48.6242 21.6365C52.7764 21.6365 56.1249 18.7093 56.1249 14.6365C56.1249 10.5002 52.7764 7.50928 48.6242 7.50928ZM48.6242 18.9002C46.3472 18.9002 44.405 17.1184 44.405 14.6365C44.405 12.0911 46.3472 10.3729 48.6242 10.3729C50.9012 10.3729 52.8434 12.0911 52.8434 14.6365C52.8434 17.1184 50.9012 18.9002 48.6242 18.9002Z" fill="#808E9A"/>
<path d="M74.274 0.318359H77.4886V21.7002H74.274V0.318359Z" fill="#808E9A"/>
<path d="M87.4004 18.9002C85.7261 18.9002 84.5876 18.2002 83.7839 16.7365L93.7626 12.8547L93.4277 12.0275C92.825 10.4365 90.8828 7.50928 87.0655 7.50928C83.2482 7.50928 80.0336 10.3729 80.0336 14.5729C80.0336 18.5184 83.1812 21.6365 87.4004 21.6365C90.8159 21.6365 92.758 19.6638 93.6286 18.5184L91.0838 16.9275C90.2131 18.1365 89.0746 18.9002 87.4004 18.9002ZM87.1994 10.182C88.5389 10.182 89.6774 10.8184 90.0122 11.7093L83.3151 14.382C83.2482 11.4547 85.5252 10.182 87.1994 10.182Z" fill="#808E9A"/>
</g>
<defs>
<clipPath id="clip0_1698_31563">
<rect width="93.6923" height="28" fill="white" transform="translate(0.070282)"/>
</clipPath>
</defs>
</svg>
