<svg width="80" height="80" viewBox="0 0 80 80" fill="none" xmlns="http://www.w3.org/2000/svg">
<rect x="0.4" y="0.4" width="79.2" height="79.2" rx="39.6" fill="white" stroke="#EAE0FF" stroke-width="0.8"/>
<path d="M59.3598 40.4834C59.3598 38.9754 59.2314 37.5254 58.9931 36.1334H39.9998V44.3597H50.8531C50.3856 47.018 48.9648 49.2704 46.8289 50.7784V56.1144H53.3464C57.1598 52.412 59.3598 46.96 59.3598 40.4834Z" fill="#4285F4"/>
<path d="M39.9999 61.2666C45.4449 61.2666 50.0099 59.3623 53.3466 56.1143L46.8291 50.7783C45.0233 52.0543 42.7133 52.8083 39.9999 52.8083C34.7474 52.8083 30.3016 49.0673 28.7158 44.0406H21.9783V49.5506C25.2966 56.5009 32.1166 61.2666 39.9999 61.2666Z" fill="#34A853"/>
<path d="M28.7158 44.0407C28.3124 42.7647 28.0833 41.4017 28.0833 40C28.0833 38.5983 28.3124 37.2353 28.7158 35.9593V30.4493H21.9783C20.5666 33.4129 19.832 36.6836 19.8333 40C19.8333 43.4317 20.6124 46.6797 21.9783 49.5507L28.7158 44.0407Z" fill="#FBBC05"/>
<path d="M39.9999 27.1916C42.9608 27.1916 45.6191 28.2646 47.7091 30.3719L53.4933 24.2723C50.0008 20.8406 45.4358 18.7333 39.9999 18.7333C32.1166 18.7333 25.2966 23.4989 21.9783 30.4493L28.7158 35.9593C30.3016 30.9326 34.7474 27.1916 39.9999 27.1916Z" fill="#EA4335"/>
</svg>
