<svg xmlns="http://www.w3.org/2000/svg" width="153" height="40" fill="none"><path fill="#413D45" d="M41.373 9.76h2.57v7.16c1.061-1.557 2.466-2.323 4.198-2.323 2.346 0 3.68 1.285 3.68 3.879v8.764h-2.57v-8.094c0-1.78-.671-2.274-1.948-2.274-.79 0-1.557.47-2.275 1.404-.718.942-1.085 2.171-1.085 3.704v5.26h-2.57V9.76zm23.482 11.98h-8.812c0 1.948 1.133 3.432 3.089 3.432 1.38 0 2.642-.79 3.256-2.099l2.195.862c-1.26 2.443-2.714 3.504-5.46 3.504-4.102 0-5.802-3.456-5.802-6.417s1.7-6.417 5.803-6.417c3.975 0 5.73 3.232 5.73 6.026v1.11zm-8.764-2.147h6.05c-.224-1.556-1.261-2.714-3.01-2.714-1.66-.008-2.745 1.11-3.04 2.714zm28.917-4.988c.615 0 1.238.175 1.9.495.67.319 1.133.67 1.429 1.085V9.76h2.57v17.48h-2.57v-1.43c-.471.815-1.876 1.63-3.385 1.63-3.631 0-5.555-2.371-5.555-6.418.008-3.951 1.964-6.417 5.611-6.417zm-2.889 6.417c0 1.261.295 2.275.886 3.041.59.742 1.357 1.11 2.299 1.11s1.7-.368 2.298-1.11c.591-.766.886-1.78.886-3.041s-.295-2.275-.886-3.01c-.59-.765-1.356-1.133-2.298-1.133s-1.7.368-2.3 1.134c-.582.742-.885 1.748-.885 3.009zm18.637-4.446-1.628 1.429c-.59-.767-1.309-1.134-2.17-1.134-.695 0-1.238.447-1.238 1.238 0 .27.096.542.32.766.422.423.837.614 1.899 1.013.862.32 1.237.447 1.923.91.99.59 1.461 1.333 1.557 2.69 0 1.11-.391 2.051-1.181 2.818-.79.766-1.828 1.133-3.137 1.133-2.37 0-4.047-1.532-4.813-3.336l2.17-1.182c.671 1.509 1.581 2.251 2.739 2.251 1.109 0 1.676-.543 1.676-1.628 0-.423-.176-.718-.639-.99a3.17 3.17 0 0 0-.638-.343c-.368-.176-1.285-.495-1.677-.67-1.78-.743-2.665-1.876-2.665-3.409 0-.99.367-1.827 1.085-2.49.718-.694 1.628-1.037 2.738-1.037 1.508 0 2.89.766 3.679 1.971zm8.237 10.871c-1.46 0-2.713-.694-3.336-1.58v6.417h-2.57v-17.48h2.57v1.429c.471-.814 1.876-1.629 3.384-1.629 3.632 0 5.555 2.371 5.555 6.418 0 3.95-1.947 6.425-5.603 6.425zm2.89-6.425c0-1.261-.296-2.275-.886-3.01-.591-.766-1.357-1.133-2.299-1.133s-1.7.367-2.299 1.134c-.59.742-.886 1.756-.886 3.009 0 1.26.296 2.275.886 3.04.591.743 1.357 1.11 2.299 1.11s1.7-.367 2.299-1.11c.59-.765.886-1.78.886-3.04zm28.159 2.994c-1.014 2.298-2.793 3.432-5.38 3.432-1.875 0-3.336-.615-4.342-1.828-1.013-1.237-1.508-2.762-1.508-4.59 0-1.827.495-3.36 1.508-4.565 1.014-1.237 2.467-1.852 4.342-1.852 2.595 0 4.374 1.134 5.38 3.432l-2.299.99c-.638-1.429-1.676-2.147-3.089-2.147-2.099 0-3.136 1.652-3.136 4.15 0 2.49 1.037 4.151 3.136 4.151 1.405 0 2.443-.718 3.089-2.147l2.299.974zm12.444-2.276h-8.812c0 1.948 1.133 3.432 3.089 3.432 1.381 0 2.642-.79 3.256-2.099l2.195.862c-1.261 2.443-2.714 3.504-5.459 3.504-4.103 0-5.803-3.456-5.803-6.417s1.7-6.417 5.803-6.417c3.975 0 5.731 3.232 5.731 6.026v1.11zm-8.764-2.147h6.05c-.224-1.556-1.261-2.714-3.009-2.714-1.66-.008-2.746 1.11-3.041 2.714zm-71.82-4.98c.615 0 1.238.176 1.9.495.67.32 1.133.67 1.437 1.086v-1.397h2.57v12.467h-2.147l-.423-1.436c-.471.814-1.876 1.628-3.384 1.628-3.632 0-5.564-2.37-5.564-6.425 0-3.943 1.956-6.418 5.611-6.418zm-2.889 6.425c0 1.262.295 2.275.886 3.042.59.742 1.357 1.109 2.299 1.109s1.708-.367 2.299-1.11c.59-.766.885-1.78.885-3.04 0-1.262-.295-2.275-.886-3.018-.59-.766-1.356-1.133-2.298-1.133s-1.708.367-2.299 1.133c-.59.743-.886 1.756-.886 3.017zm52.4-6.425c.614 0 1.237.176 1.9.495.662.32 1.133.67 1.436 1.086v-1.397h2.57v12.467h-2.147l-.423-1.436c-.471.814-1.875 1.628-3.384 1.628-3.632 0-5.563-2.37-5.563-6.425 0-3.943 1.955-6.418 5.611-6.418zm-2.889 6.425c0 1.262.295 2.275.885 3.042.591.742 1.357 1.109 2.299 1.109s1.708-.367 2.299-1.11c.591-.766.886-1.78.886-3.04 0-1.262-.295-2.275-.886-3.018-.591-.766-1.357-1.133-2.299-1.133s-1.708.367-2.299 1.133c-.59.743-.885 1.756-.885 3.017z"/><path fill="#F47D31" d="M33.407 19.434c.375 5.284-2.075 8.277-3.552 10.376-2.299 2.427-5.22 5.739-12.627 5.923-6.282.247-9.379-2.515-11.965-4.917C1.887 27.104 1.001 24.9.833 19.434c-.016-3.352 1.278-6.697 3.536-9.642 3.17-4.47 8.206-5.97 12.859-6.282 4.885-.191 8.764 2.275 11.414 4.925 3.392 3.576 4.438 6.649 4.765 10.999z"/></svg>