<svg width="61" height="20" viewBox="0 0 61 20" fill="none" xmlns="http://www.w3.org/2000/svg">
<g clip-path="url(#clip0_1698_31567)">
<path d="M3.91492 12.1606V0H0.978943V12.3136C0.978943 16.9407 4.21996 20 8.41422 20C10.4732 20 12.2653 19.1969 13.5998 17.8203V19.6558H16.4977V0H13.5617V12.1606C13.5617 15.2964 11.4646 17.3996 8.75738 17.3996C6.01205 17.3614 3.91492 15.3346 3.91492 12.1606ZM19.3955 19.6941H22.179V17.8967C23.4754 19.2352 25.3056 20.0382 27.2884 20.0382C31.4826 20.0382 34.7999 16.7113 34.7999 12.543C34.7999 8.37476 31.4826 5.0478 27.2884 5.0478C25.3056 5.0478 23.5135 5.85086 22.2171 7.18929V0H19.3955V19.6941ZM22.179 12.543C22.179 9.75143 24.3905 7.5717 27.0977 7.5717C29.8049 7.5717 32.0164 9.75143 32.0164 12.543C32.0164 15.2964 29.8049 17.5143 27.0977 17.5143C24.3524 17.5143 22.179 15.2964 22.179 12.543ZM36.4776 12.5048C36.4776 16.7878 39.7949 20 44.0654 20C46.6582 20 48.7935 18.8528 50.2424 16.9407L48.1834 15.4111C47.1158 16.826 45.705 17.5143 44.0654 17.5143C41.6632 17.5143 39.7186 15.7553 39.3373 13.4226H50.9669V12.5048C50.9669 8.2218 47.9546 5.0478 43.8366 5.0478C39.6424 5.0478 36.4776 8.45124 36.4776 12.5048ZM43.7604 7.53346C45.8575 7.53346 47.6115 8.98662 48.1071 11.2046H39.3755C39.9093 8.98662 41.6632 7.53346 43.7604 7.53346ZM60.3849 7.87763V5.23901H59.3935C57.8302 5.23901 56.6863 5.96558 55.9618 7.11281V5.35373H53.2165V19.6941H56.0381V11.5105C56.0381 9.29254 57.3726 7.83939 59.241 7.83939H60.3849V7.87763Z" fill="#808E9A"/>
</g>
<defs>
<clipPath id="clip0_1698_31567">
<rect width="59.4059" height="20" fill="white" transform="translate(0.978943)"/>
</clipPath>
</defs>
</svg>
