<svg width="111" height="32" viewBox="0 0 111 32" fill="none" xmlns="http://www.w3.org/2000/svg">
<g clip-path="url(#clip0_1698_31569)">
<path d="M11.4674 31.9999C11.4471 31.9798 11.4268 31.9596 11.4066 31.9394C11.0215 31.4548 8.63023 28.4668 6.17812 24.6511C5.44857 23.4397 4.9622 22.4706 5.06353 22.2283C5.30671 21.5823 9.56243 21.2391 10.8594 21.8246C11.2647 22.0063 11.2445 22.2283 11.2445 22.3697C11.2445 22.9552 11.2242 24.5299 11.2242 24.5299C11.2242 24.8529 11.4876 25.1154 11.8119 25.1154C12.1361 25.1154 12.3996 24.8529 12.3996 24.5299V20.6132C12.3996 20.27 12.0348 20.1892 11.9537 20.169C11.2647 20.169 9.88668 20.169 8.38704 20.169C5.10406 20.169 4.35424 20.3104 3.80707 19.947C2.59115 19.1596 0.625413 13.8498 0.564617 10.8618C0.503821 6.64222 3.01672 2.98796 6.5429 1.19112C8.02227 0.444113 9.68403 0.0403278 11.4471 0.0403278C17.0606 -5.07385e-05 21.6608 4.19932 22.2688 9.61004C22.2688 9.61004 22.2688 9.61004 22.2688 9.63023C22.3904 10.9425 15.1557 11.2252 13.7168 10.8416C13.4939 10.781 13.4331 10.5589 13.4331 10.458C13.4331 9.46872 13.4331 6.66241 13.4331 6.66241C13.4331 6.33938 13.1697 6.07692 12.8454 6.07692C12.5212 6.07692 12.2577 6.33938 12.2577 6.66241L12.278 11.8107C12.278 12.1337 12.5617 12.2145 12.6428 12.2346C13.4534 12.2346 15.3583 12.2346 17.1417 12.2346C19.533 12.2346 20.5463 12.5173 21.215 13.022C21.6608 13.3652 21.823 14.0113 21.6811 14.8391C20.3031 22.3495 11.7916 31.6164 11.4674 31.9999ZM34.5496 14.5362C36.6977 15.4447 38.0353 16.4744 38.0353 18.6952C38.0353 20.9766 36.2924 22.4504 33.6174 22.4504C31.449 22.4504 29.7062 21.4611 28.8348 19.7652L28.6929 19.4826L31.2464 18.0088L31.4085 18.2914C31.9759 19.2201 32.6244 19.6239 33.5566 19.6239C34.3672 19.6239 34.8941 19.2605 34.8941 18.7356C34.8941 18.1501 34.5091 17.928 33.2932 17.4031L32.6852 17.1406C31.0437 16.434 29.5238 15.4851 29.5238 13.123C29.5238 11.0233 31.145 9.54948 33.4755 9.54948C35.2386 9.54948 36.4343 10.2359 37.2652 11.6895L37.4273 11.952L34.9549 13.547L34.7928 13.2441C34.3875 12.4971 33.9822 12.3558 33.4958 12.3558C32.9689 12.3558 32.6447 12.6384 32.6447 13.0826C32.6447 13.5873 32.8879 13.8094 33.9619 14.2738L34.5496 14.5362ZM52.6466 14.9602L54.4502 9.95326H57.5508L52.9506 22.6725H52.2615L49.4852 16.6965C49.3636 16.4138 49.2217 16.0908 49.1001 15.7678C48.9785 16.0706 48.8367 16.4138 48.7151 16.6965L45.8374 22.6523H45.1484L40.4874 9.93307H43.7906L45.6145 14.94C45.7361 15.263 45.8577 15.6466 45.959 16.01C46.0806 15.6466 46.2225 15.2428 46.3846 14.8996L48.7759 9.81194H49.4446L51.8765 14.8996C52.0386 15.2227 52.1805 15.6264 52.3021 16.01C52.4236 15.6668 52.5452 15.2832 52.6466 14.9602ZM61.1783 22.2889V9.6908H64.2991V22.2889H61.1783ZM74.5534 18.0492V15.2227H80.3493V20.8757L80.2277 20.9766C79.559 21.5217 77.7959 22.4302 75.4248 22.4302C71.392 22.4302 68.5954 19.7652 68.5954 15.9697C68.5954 12.2346 71.311 9.52929 75.0398 9.52929C77.0866 9.52929 78.6065 10.1148 79.64 11.2858L79.8427 11.5078L77.7148 13.6075L77.4919 13.3652C76.9042 12.7596 76.276 12.376 75.0398 12.376C73.1348 12.376 71.7973 13.8498 71.7973 15.9495C71.7973 18.1501 73.2159 19.5634 75.4248 19.5634C76.1544 19.5634 76.9245 19.4422 77.4311 19.2403V18.029H74.5534V18.0492ZM90.4009 18.0492V15.2227H96.1968V20.8757L96.0752 20.9766C95.4065 21.5217 93.6434 22.4302 91.2723 22.4302C87.2395 22.4302 84.4429 19.7652 84.4429 15.9697C84.4429 12.2346 87.1585 9.52929 90.8873 9.52929C92.9341 9.52929 94.454 10.1148 95.4875 11.2858L95.6902 11.5078L93.5623 13.6075L93.3394 13.3652C92.7517 12.7596 92.1235 12.376 90.8873 12.376C88.9823 12.376 87.6448 13.8498 87.6448 15.9495C87.6448 18.1501 89.0634 19.5634 91.2926 19.5634C92.0221 19.5634 92.7922 19.4422 93.2989 19.2403V18.029H90.4009V18.0492ZM107.667 9.6908H110.93L106.431 18.0693V22.2889H103.29V18.2511L98.5273 9.6908H102.013L104.222 13.7085C104.465 14.1526 104.708 14.7179 104.891 15.2025C105.073 14.7381 105.316 14.1728 105.539 13.7287L107.667 9.6908Z" fill="#808E9A"/>
</g>
<defs>
<clipPath id="clip0_1698_31569">
<rect width="110.345" height="32" fill="white" transform="translate(0.5849)"/>
</clipPath>
</defs>
</svg>
