<svg width="60" height="61" viewBox="0 0 60 61" fill="none" xmlns="http://www.w3.org/2000/svg">
<rect x="0.498825" y="0.499999" width="58.4088" height="58.4088" rx="7.5" transform="matrix(1 0 -0.00234907 0.999997 0.14073 0.968751)" fill="#00DDB3"/>
<path d="M41.6404 8.74341H19.9063C13.7577 8.74341 8.77333 13.7278 8.77333 19.8763V41.6105C8.77333 47.759 13.7577 52.7434 19.9063 52.7434H41.6404C47.7889 52.7434 52.7733 47.759 52.7733 41.6105V19.8763C52.7733 13.7278 47.7889 8.74341 41.6404 8.74341Z" fill="#00DDB3"/>
<path d="M42.5345 18.7434C34.7496 18.7434 31.8648 24.0867 29.5452 28.3792L28.0299 31.1255C25.5736 35.6777 23.7385 38.4449 19.0092 38.4449C18.7156 38.4449 18.4248 38.5005 18.1536 38.6085C17.8823 38.7165 17.6358 38.8748 17.4282 39.0744C17.2206 39.274 17.0558 39.5109 16.9435 39.7717C16.8311 40.0324 16.7733 40.3119 16.7733 40.5942C16.7742 41.1639 17.01 41.7101 17.4291 42.113C17.8482 42.5159 18.4165 42.7426 19.0092 42.7434C26.7971 42.7434 29.6819 37.4001 32.0015 33.1076L33.5138 30.3613C35.9731 25.8091 37.8083 23.0419 42.5345 23.0419C42.8283 23.0423 43.1194 22.987 43.391 22.8792C43.6626 22.7713 43.9095 22.6131 44.1174 22.4135C44.3253 22.2139 44.4904 21.9768 44.6029 21.7158C44.7155 21.4549 44.7733 21.1752 44.7733 20.8927C44.7725 20.3224 44.5363 19.7757 44.1165 19.3727C43.6967 18.9698 43.1277 18.7434 42.5345 18.7434Z" fill="white"/>
</svg>
