<svg width="106" height="24" viewBox="0 0 106 24" fill="none" xmlns="http://www.w3.org/2000/svg">
<g clip-path="url(#clip0_1698_31577)">
<path d="M37.5652 13.8235L36.9348 15.7211H36.8822C36.7771 15.2932 36.5845 14.6421 36.2693 13.8607L32.8893 4.83742H29.5793V19.2188H31.7685V10.3444C31.7685 9.78626 31.7685 9.1537 31.7509 8.3723C31.7334 7.98161 31.6984 7.68393 31.6809 7.46068H31.7334C31.8385 8.01882 31.9611 8.42812 32.0487 8.68858L36.1116 19.1816H37.6528L41.6807 8.59556C41.7683 8.3537 41.8559 7.86998 41.9434 7.46068H41.996C41.9434 8.52114 41.9084 9.46998 41.8909 10.0467V19.163H44.2201V4.80021H41.0328L37.5652 13.8235ZM46.4267 8.85603H48.7034V19.163H46.4267V8.85603ZM47.5826 4.50254C47.1973 4.50254 46.8821 4.65137 46.6194 4.91184C46.3567 5.1723 46.2166 5.50719 46.2166 5.91649C46.2166 6.30719 46.3567 6.64207 46.6194 6.90254C46.8821 7.163 47.1973 7.29323 47.5826 7.29323C47.9679 7.29323 48.3006 7.1444 48.5458 6.90254C48.8085 6.64207 48.9486 6.30719 48.9486 5.91649C48.9486 5.52579 48.8085 5.19091 48.5458 4.91184C48.3181 4.65137 47.9854 4.50254 47.5826 4.50254ZM56.7768 8.763C56.3565 8.66998 55.9187 8.61416 55.4984 8.61416C54.4651 8.61416 53.5194 8.85603 52.7314 9.33975C51.9433 9.82347 51.3128 10.4932 50.91 11.3304C50.4897 12.1863 50.2796 13.1723 50.2796 14.3072C50.2796 15.2932 50.4897 16.1677 50.8925 16.9677C51.2953 17.749 51.8557 18.3816 52.6088 18.8095C53.3268 19.2374 54.1674 19.4607 55.1131 19.4607C56.1989 19.4607 57.1271 19.2188 57.8626 18.7723L57.8802 18.7537V16.5211L57.7926 16.5956C57.4598 16.856 57.0746 17.0793 56.6893 17.2095C56.2865 17.3584 55.9187 17.4328 55.6035 17.4328C54.6928 17.4328 53.9748 17.1537 53.4669 16.5397C52.9415 15.9444 52.6788 15.1258 52.6788 14.1025C52.6788 13.0421 52.9415 12.2049 53.4844 11.5909C54.0273 10.977 54.7453 10.6607 55.621 10.6607C56.3565 10.6607 57.1096 10.9211 57.7926 11.4421L57.8802 11.5165V9.1537L57.8626 9.1351C57.5649 9.00486 57.2322 8.85603 56.7768 8.763ZM64.2899 8.68858C63.7294 8.68858 63.2041 8.87463 62.7487 9.26533C62.3634 9.60021 62.1008 10.0839 61.8731 10.6607H61.8556V8.85603H59.5789V19.163H61.8556V13.8979C61.8556 13.0049 62.0307 12.2607 62.416 11.7211C62.8013 11.163 63.2916 10.8839 63.8871 10.8839C64.0972 10.8839 64.3074 10.9397 64.5701 10.977C64.8152 11.0514 64.9904 11.1258 65.113 11.2188L65.2005 11.2932V8.87463L65.148 8.85603C64.9904 8.7444 64.6751 8.68858 64.2899 8.68858ZM70.4894 8.63277C68.8957 8.63277 67.6173 9.1351 66.7242 10.1211C65.8135 11.1072 65.3757 12.4653 65.3757 14.177C65.3757 15.777 65.831 17.0793 66.7066 18.0281C67.5823 18.9584 68.7732 19.4421 70.2617 19.4421C71.8204 19.4421 73.0638 18.9397 73.957 17.9351C74.8676 16.9304 75.3055 15.5909 75.3055 13.9351C75.3055 12.2979 74.8852 10.9956 74.027 10.0467C73.2039 9.09789 71.9955 8.63277 70.4894 8.63277ZM72.3108 16.5584C71.8904 17.1351 71.225 17.4142 70.4019 17.4142C69.5788 17.4142 68.9133 17.1351 68.4404 16.5211C67.9676 15.9444 67.7399 15.1072 67.7399 14.0467C67.7399 12.949 67.9851 12.1118 68.4404 11.5165C68.9133 10.9211 69.5612 10.6235 70.3843 10.6235C71.1899 10.6235 71.8204 10.9025 72.2757 11.4793C72.7311 12.056 72.9762 12.8932 72.9762 13.9909C72.9412 15.1072 72.7486 15.9816 72.3108 16.5584ZM80.3842 13.1351C79.6662 12.8188 79.2108 12.577 79.0007 12.3723C78.8255 12.1863 78.738 11.9258 78.738 11.5909C78.738 11.3118 78.8431 11.0328 79.1058 10.8467C79.3684 10.6607 79.6662 10.5677 80.104 10.5677C80.4893 10.5677 80.8921 10.6421 81.2773 10.7537C81.6626 10.8653 82.0129 11.0328 82.2931 11.256L82.3807 11.3304V9.06068L82.3281 9.04207C82.0654 8.93044 81.7152 8.81882 81.2949 8.72579C80.8746 8.65137 80.4893 8.61416 80.174 8.61416C79.0882 8.61416 78.1951 8.89323 77.4946 9.50719C76.7941 10.0839 76.4613 10.8653 76.4613 11.777C76.4613 12.2607 76.5314 12.6886 76.689 13.0421C76.8466 13.3956 77.0743 13.7304 77.3895 14.0095C77.7047 14.27 78.1601 14.5677 78.7905 14.8467C79.3159 15.0886 79.7187 15.2746 79.9639 15.4235C80.2091 15.5723 80.3667 15.7397 80.4893 15.87C80.5768 16.0188 80.6294 16.2049 80.6294 16.4467C80.6294 17.1351 80.139 17.47 79.1408 17.47C78.7555 17.47 78.3527 17.3956 77.8799 17.2281C77.407 17.0607 76.9692 16.8188 76.6014 16.5397L76.5138 16.4653V18.8281L76.5664 18.8467C76.8991 19.0142 77.3019 19.1258 77.7923 19.256C78.2826 19.349 78.7205 19.4235 79.1058 19.4235C80.2791 19.4235 81.2423 19.1444 81.9253 18.5304C82.6258 17.9351 82.9936 17.1723 82.9936 16.1863C82.9936 15.4979 82.8185 14.8839 82.4332 14.4188C81.9253 13.9723 81.2949 13.5072 80.3842 13.1351ZM89.0005 8.63277C87.4069 8.63277 86.1284 9.1351 85.2353 10.1211C84.3421 11.1072 83.8868 12.4653 83.8868 14.177C83.8868 15.777 84.3421 17.0793 85.2177 18.0281C86.0934 18.9584 87.2843 19.4421 88.7729 19.4421C90.3315 19.4421 91.5749 18.9397 92.4681 17.9351C93.3787 16.9304 93.8166 15.5909 93.8166 13.9351C93.8166 12.2979 93.3963 10.9956 92.5381 10.0467C91.715 9.09789 90.5066 8.63277 89.0005 8.63277ZM90.8044 16.5584C90.384 17.1351 89.7186 17.4142 88.8954 17.4142C88.0548 17.4142 87.4069 17.1351 86.934 16.5211C86.4612 15.9444 86.2335 15.1072 86.2335 14.0467C86.2335 12.949 86.4787 12.1118 86.934 11.5165C87.4069 10.9211 88.0548 10.6235 88.8779 10.6235C89.666 10.6235 90.314 10.9025 90.7693 11.4793C91.2247 12.056 91.4698 12.8932 91.4698 13.9909C91.4698 15.1072 91.2422 15.9816 90.8044 16.5584ZM105.988 10.8467V8.85603H103.694V5.80486L103.624 5.82347L101.452 6.51184L101.4 6.53044V8.85603H97.9671V7.5537C97.9671 6.95835 98.1072 6.49323 98.3524 6.19556C98.5976 5.89789 98.9654 5.74905 99.4207 5.74905C99.7359 5.74905 100.069 5.82347 100.436 5.99091L100.524 6.04672V3.9444L100.471 3.92579C100.156 3.81416 99.7359 3.73975 99.193 3.73975C98.51 3.73975 97.9146 3.90719 97.3717 4.18626C96.8288 4.50254 96.426 4.93044 96.1283 5.50719C95.8305 6.06533 95.6729 6.69789 95.6729 7.42347V8.85603H94.0793V10.8281H95.6729V19.163H97.9671V10.8467H101.4V16.149C101.4 18.3258 102.363 19.4235 104.289 19.4235C104.604 19.4235 104.937 19.3677 105.252 19.3118C105.585 19.2374 105.83 19.1444 105.97 19.07L105.988 19.0514V17.0607L105.9 17.1351C105.76 17.2281 105.638 17.3025 105.428 17.3584C105.252 17.4142 105.095 17.4328 104.972 17.4328C104.517 17.4328 104.202 17.3211 103.974 17.0421C103.764 16.7816 103.659 16.3537 103.659 15.7211V10.8467H105.988Z" fill="#808E9A"/>
<path d="M0.227783 0H10.9632V11.4047H0.227783V0Z" fill="#808E9A"/>
<path d="M12.084 0H22.8194V11.4047H12.084V0Z" fill="#808E9A"/>
<path d="M0.227783 12.5952H10.9632V23.9999H0.227783V12.5952Z" fill="#808E9A"/>
<path d="M12.084 12.5952H22.8194V23.9999H12.084V12.5952Z" fill="#808E9A"/>
</g>
<defs>
<clipPath id="clip0_1698_31577">
<rect width="105.778" height="24" fill="white" transform="translate(0.227783)"/>
</clipPath>
</defs>
</svg>
