<svg width="62" height="32" viewBox="0 0 62 32" fill="none" xmlns="http://www.w3.org/2000/svg">
<path fill-rule="evenodd" clip-rule="evenodd" d="M11.0006 19.5898C10.52 19.5898 10.1437 19.9305 10.1437 20.4277C10.1437 20.9253 10.5219 21.264 11.0006 21.264C11.479 21.264 11.8576 20.923 11.8576 20.4277C11.8576 19.9305 11.4809 19.5898 11.0006 19.5898ZM11.0006 21.0244C10.6579 21.0244 10.4037 20.7708 10.4037 20.4277C10.4037 20.085 10.656 19.8294 11.0006 19.8294C11.3411 19.8294 11.5972 20.089 11.5972 20.4277C11.5972 20.7645 11.3388 21.0244 11.0006 21.0244ZM19.3392 16.659H15.1675L15.6417 9.3114L12.9325 16.659H9.05865L15.2053 0.0512695H19.3272L18.8514 7.49969L21.6119 0.0512695H25.4861L19.3392 16.659ZM19.8424 16.659L25.9887 0.0512695H29.8626L23.7163 16.659H19.8424Z" fill="#808E9A"/>
<path fill-rule="evenodd" clip-rule="evenodd" d="M8.61079 10.9342C3.1974 17.3762 -1.90912 25.9476 2.60144 29.8947C6.97214 33.7197 12.4353 31.455 16.1603 29.9451C19.8852 28.4352 61.0575 10.3176 61.0575 10.3176C61.4548 10.1163 61.3805 9.86457 60.8837 9.99026C60.6835 10.041 16.0611 22.2951 16.0611 22.2951C10.3987 23.9058 3.94227 20.3953 8.61079 10.9342Z" fill="#808E9A"/>
<path fill-rule="evenodd" clip-rule="evenodd" d="M11.1458 20.4861C11.2659 20.4802 11.3599 20.4174 11.3599 20.2488C11.3599 20.0315 11.2197 19.9768 10.9855 19.9768H10.649V20.8779H10.8735V20.4943H10.9112L11.1157 20.8779H11.3738L11.1458 20.4861ZM11.0017 20.3401H10.8738V20.131H10.9817C11.0479 20.131 11.1238 20.1388 11.1238 20.2262C11.1238 20.3198 11.0799 20.3401 11.0017 20.3401ZM49.9417 0C49.461 0 49.0847 0.341063 49.0847 0.83793C49.0847 1.33512 49.4633 1.6739 49.9417 1.6739C50.42 1.6739 50.7986 1.33283 50.7986 0.83793C50.7989 0.341063 50.4226 0 49.9417 0ZM49.9417 1.43496C49.5989 1.43496 49.3447 1.18129 49.3447 0.838258C49.3447 0.495558 49.597 0.239922 49.9417 0.239922C50.2821 0.239922 50.5386 0.499485 50.5386 0.838258C50.5386 1.17507 50.2802 1.43496 49.9417 1.43496Z" fill="#808E9A"/>
<path fill-rule="evenodd" clip-rule="evenodd" d="M50.0866 0.897386C50.2068 0.891494 50.3011 0.828649 50.3011 0.660081C50.3011 0.442742 50.1606 0.388079 49.9267 0.388079H49.5901V1.28886H49.8143V0.905569H49.8524L50.0566 1.28886H50.315L50.0866 0.897386ZM49.9422 0.751402H49.8143V0.542246H49.9225C49.9884 0.542246 50.0646 0.550429 50.0646 0.637823C50.0646 0.731108 50.0204 0.751402 49.9422 0.751402ZM47.3878 2.8194L48.4289 0.0512695H36.6085L32.5499 5.0337L34.4237 0.0512695H30.5L24.4028 16.659H28.2767L30.8799 9.71402L31.0582 16.659L42.9448 16.6329L44.0763 13.4382H39.557L41.0419 9.41223H44.7666L45.9126 6.31711H42.188L43.4648 2.8194H47.3878ZM34.9014 15.5517L34.653 6.89581L40.5102 0.379242L34.9014 15.5517Z" fill="#808E9A"/>
</svg>
