<svg width="80" height="80" viewBox="0 0 80 80" fill="none" xmlns="http://www.w3.org/2000/svg">
<rect x="0.4" y="0.4" width="79.2" height="79.2" rx="39.6" fill="white" stroke="#EAE0FF" stroke-width="0.8"/>
<g clip-path="url(#clip0_2432_16655)">
<path fill-rule="evenodd" clip-rule="evenodd" d="M39.5591 52.9928L39.6582 59.0687C38.7514 59.0692 37.8801 58.7164 37.2291 58.0852L36.7547 57.5203L25.2285 43.814L21.3079 39.1478C21.2976 39.1423 21.2894 39.1336 21.2844 39.123L21.2225 39.0512L21.2101 39.0351C21.1334 38.934 21.0721 38.8221 21.028 38.7031C20.9694 38.5572 20.9371 38.402 20.9326 38.2448V38.1506C20.9326 38.1209 20.9351 38.0899 20.9413 38.0602C20.9684 37.755 21.0976 37.4679 21.3079 37.2451C21.5594 36.9726 21.9248 36.7992 22.3262 36.7992H26.1971L39.5579 52.9953L39.5603 52.9928H39.5591Z" fill="#FCD1CA"/>
<path fill-rule="evenodd" clip-rule="evenodd" d="M39.5566 45.7067V53.2368L21.2807 31.4281C21.1709 31.3052 21.0845 31.1633 21.0255 31.0094C20.9677 30.862 20.9358 30.7057 20.9314 30.5474V30.4545C20.9408 30.1178 21.0745 29.7966 21.3067 29.5527C21.5569 29.2765 21.9224 29.1068 22.3249 29.1068H25.7909L39.5566 45.7067Z" fill="#FF9D8D"/>
<path fill-rule="evenodd" clip-rule="evenodd" d="M22.3175 21.8194C22.127 21.8184 21.9384 21.8574 21.7638 21.9337C21.5893 22.0101 21.4327 22.1223 21.3042 22.2629C21.0813 22.497 20.9425 22.8141 20.9326 23.1597V23.2514C20.9363 23.4161 20.9685 23.5697 21.0268 23.7097C21.028 23.7233 21.0342 23.7345 21.0391 23.7469C21.0996 23.8926 21.1861 24.026 21.2943 24.1408L21.3141 24.1631L39.5566 45.7067V59.0687C40.4582 59.0706 41.325 58.7204 41.9721 58.0926C41.9758 58.0926 41.9758 58.0926 41.9758 58.0901L57.8313 39.2667C57.8511 39.2469 57.8685 39.2246 57.8858 39.2023C57.97 39.0982 58.0369 38.9805 58.0865 38.8517C58.1484 38.6981 58.1806 38.5296 58.1806 38.35V23.2031C58.1822 22.852 58.0482 22.5139 57.8065 22.2592C57.6775 22.1191 57.5206 22.0075 57.3459 21.9315C57.1712 21.8556 56.9825 21.817 56.792 21.8182H22.3187L22.3175 21.8194Z" fill="#FF6661"/>
</g>
<defs>
<clipPath id="clip0_2432_16655">
<rect width="38.4" height="38.4" fill="white" transform="translate(20.8 20.8)"/>
</clipPath>
</defs>
</svg>
