<svg width="62" height="62" viewBox="0 0 62 62" fill="none" xmlns="http://www.w3.org/2000/svg">
<path d="M30.7778 12C30.0418 12 29.4445 12.597 29.4445 13.3333V48C29.4445 48.7364 30.0418 49.3333 30.7778 49.3333C31.5138 49.3333 32.1111 48.7364 32.1111 48V13.3333C32.1111 12.597 31.5138 12 30.7778 12Z" fill="url(#paint0_linear_1_34)"/>
<path d="M30.7778 12C30.0418 12 29.4445 12.597 29.4445 13.3333V48C29.4445 48.7364 30.0418 49.3333 30.7778 49.3333C31.5138 49.3333 32.1111 48.7364 32.1111 48V13.3333C32.1111 12.597 31.5138 12 30.7778 12Z" fill="url(#paint1_linear_1_34)"/>
<path d="M25.8889 16.4445H17.8889C15.1884 16.4445 13 18.6333 13 21.3333V40C13 42.7001 15.1884 44.8889 17.8889 44.8889H25.8889V35.1111H24.5556V37.7778H21.8889V40.4445H19.2222V42.2222H17.8889C16.6622 42.2222 15.6667 41.2274 15.6667 40V21.3333C15.6667 20.106 16.6622 19.1111 17.8889 19.1111H25.8889V16.4445Z" fill="url(#paint2_linear_1_34)"/>
<path d="M25.8889 16.4445H17.8889C15.1884 16.4445 13 18.6333 13 21.3333V40C13 42.7001 15.1884 44.8889 17.8889 44.8889H25.8889V35.1111H24.5556V37.7778H21.8889V40.4445H19.2222V42.2222H17.8889C16.6622 42.2222 15.6667 41.2274 15.6667 40V21.3333C15.6667 20.106 16.6622 19.1111 17.8889 19.1111H25.8889V16.4445Z" fill="url(#paint3_linear_1_34)"/>
<path d="M35.6667 29.9047L37.8889 28L45.8889 36.8V21.3333C45.8889 20.106 44.8934 19.1111 43.6667 19.1111H35.6667V16.4445H43.6667C46.3671 16.4445 48.5556 18.6333 48.5556 21.3333V40C48.5556 42.7001 46.3671 44.8889 43.6667 44.8889H35.6667V29.9047Z" fill="url(#paint4_linear_1_34)"/>
<path d="M35.6667 29.9047L37.8889 28L45.8889 36.8V21.3333C45.8889 20.106 44.8934 19.1111 43.6667 19.1111H35.6667V16.4445H43.6667C46.3671 16.4445 48.5556 18.6333 48.5556 21.3333V40C48.5556 42.7001 46.3671 44.8889 43.6667 44.8889H35.6667V29.9047Z" fill="url(#paint5_linear_1_34)"/>
<path d="M23.6667 21.7777H25.8889V30.6666H23.6667V28.8888H21.8889V27.111H21V25.3333H21.8889V23.5555H23.6667V21.7777Z" fill="url(#paint6_linear_1_34)"/>
<path d="M23.6667 21.7777H25.8889V30.6666H23.6667V28.8888H21.8889V27.111H21V25.3333H21.8889V23.5555H23.6667V21.7777Z" fill="url(#paint7_linear_1_34)"/>
<defs>
<linearGradient id="paint0_linear_1_34" x1="5.13015" y1="61.6018" x2="37.928" y2="12.9593" gradientUnits="userSpaceOnUse">
<stop offset="0.130163" stop-color="#192168"/>
<stop offset="0.398876" stop-color="#3240CD"/>
<stop offset="0.686082" stop-color="#63F9D6"/>
<stop offset="1" stop-color="#BAFFEF"/>
</linearGradient>
<linearGradient id="paint1_linear_1_34" x1="28.8702" y1="62.6791" x2="32.9325" y2="11.6962" gradientUnits="userSpaceOnUse">
<stop stop-color="#3240CD"/>
<stop offset="0.686082" stop-color="#63F9D6"/>
<stop offset="1" stop-color="#BAFFEF"/>
</linearGradient>
<linearGradient id="paint2_linear_1_34" x1="5.13013" y1="61.6018" x2="37.928" y2="12.9593" gradientUnits="userSpaceOnUse">
<stop offset="0.130163" stop-color="#192168"/>
<stop offset="0.398876" stop-color="#3240CD"/>
<stop offset="0.686082" stop-color="#63F9D6"/>
<stop offset="1" stop-color="#BAFFEF"/>
</linearGradient>
<linearGradient id="paint3_linear_1_34" x1="28.8702" y1="62.6791" x2="32.9324" y2="11.6962" gradientUnits="userSpaceOnUse">
<stop stop-color="#3240CD"/>
<stop offset="0.686082" stop-color="#63F9D6"/>
<stop offset="1" stop-color="#BAFFEF"/>
</linearGradient>
<linearGradient id="paint4_linear_1_34" x1="5.13015" y1="61.6018" x2="37.928" y2="12.9593" gradientUnits="userSpaceOnUse">
<stop offset="0.130163" stop-color="#192168"/>
<stop offset="0.398876" stop-color="#3240CD"/>
<stop offset="0.686082" stop-color="#63F9D6"/>
<stop offset="1" stop-color="#BAFFEF"/>
</linearGradient>
<linearGradient id="paint5_linear_1_34" x1="28.8702" y1="62.6791" x2="32.9325" y2="11.6962" gradientUnits="userSpaceOnUse">
<stop stop-color="#3240CD"/>
<stop offset="0.686082" stop-color="#63F9D6"/>
<stop offset="1" stop-color="#BAFFEF"/>
</linearGradient>
<linearGradient id="paint6_linear_1_34" x1="5.13013" y1="61.6017" x2="37.928" y2="12.9592" gradientUnits="userSpaceOnUse">
<stop offset="0.130163" stop-color="#192168"/>
<stop offset="0.398876" stop-color="#3240CD"/>
<stop offset="0.686082" stop-color="#63F9D6"/>
<stop offset="1" stop-color="#BAFFEF"/>
</linearGradient>
<linearGradient id="paint7_linear_1_34" x1="28.8702" y1="62.679" x2="32.9324" y2="11.6961" gradientUnits="userSpaceOnUse">
<stop stop-color="#3240CD"/>
<stop offset="0.686082" stop-color="#63F9D6"/>
<stop offset="1" stop-color="#BAFFEF"/>
</linearGradient>
</defs>
</svg>
