<svg xmlns="http://www.w3.org/2000/svg" width="133" height="40" fill="none"><path fill="#072654" fill-rule="evenodd" d="M31.72 16.566c-.21.78-.615 1.353-1.217 1.719-.602.366-1.448.549-2.537.549h-3.463l1.215-4.536h3.463c1.09 0 1.837.183 2.243.549.406.366.505.939.295 1.719zm3.585-.098c.44-1.641.258-2.902-.547-3.78-.805-.877-2.216-1.316-4.232-1.316h-7.73l-4.651 17.361H21.9l1.876-6.998h2.462c.553 0 .987.09 1.305.268.319.18.505.497.563.951l.67 5.78H32.8l-.653-5.39c-.133-1.202-.684-1.91-1.651-2.12 1.233-.358 2.266-.952 3.098-1.781a6.496 6.496 0 0 0 1.711-2.975zm9.128 6.047c-.314 1.17-.798 2.064-1.45 2.682a3.294 3.294 0 0 1-2.345.926c-.928 0-1.557-.304-1.89-.914-.332-.61-.344-1.49-.034-2.646.309-1.154.802-2.056 1.48-2.707.678-.65 1.472-.975 2.383-.975.91 0 1.526.314 1.846.94.32.625.323 1.523.01 2.694zm1.646-6.145-.47 1.755a2.757 2.757 0 0 0-1.18-1.511c-.583-.374-1.305-.561-2.166-.561-1.057 0-2.073.272-3.048.817-.975.545-1.827 1.313-2.556 2.304a10.057 10.057 0 0 0-1.603 3.39c-.34 1.268-.408 2.385-.204 3.352.205.968.647 1.711 1.33 2.231.68.521 1.558.78 2.63.78a5.82 5.82 0 0 0 2.461-.536 5.727 5.727 0 0 0 1.984-1.487l-.49 1.829h3.632l3.313-12.363h-3.633zm16.696 0H52.216l-.738 2.756h6.145l-8.124 7.022-.693 2.585h10.9l.738-2.755h-6.583l8.247-7.12.667-2.488zm9.295 6.12c-.327 1.22-.811 2.13-1.452 2.732-.64.6-1.415.901-2.325.901-1.903 0-2.529-1.21-1.88-3.633.323-1.203.81-2.109 1.46-2.718.65-.61 1.44-.915 2.366-.915.91 0 1.524.305 1.84.915.316.61.314 1.515-.009 2.718zm2.126-5.657c-.837-.52-1.905-.78-3.205-.78-1.317 0-2.537.26-3.66.78a7.945 7.945 0 0 0-2.868 2.243c-.79.976-1.36 2.114-1.708 3.414-.349 1.301-.39 2.438-.122 3.414.267.976.822 1.723 1.667 2.243.844.521 1.924.78 3.241.78 1.3 0 2.508-.259 3.623-.78a7.985 7.985 0 0 0 2.856-2.243c.79-.976 1.359-2.113 1.707-3.414.349-1.3.39-2.438.123-3.414-.268-.975-.82-1.723-1.654-2.243zm37.998 5.682c-.314 1.17-.797 2.064-1.45 2.682-.653.618-1.436.926-2.346.926-.926 0-1.556-.304-1.888-.914-.333-.61-.344-1.49-.035-2.646.309-1.154.802-2.056 1.481-2.707.678-.65 1.472-.975 2.382-.975.91 0 1.527.314 1.846.94.32.625.324 1.523.01 2.694zm1.646-6.145-.47 1.755a2.76 2.76 0 0 0-1.179-1.511c-.583-.374-1.306-.561-2.167-.561-1.057 0-2.073.272-3.048.817-.974.545-1.827 1.313-2.556 2.304-.729.992-1.263 2.122-1.603 3.39-.34 1.268-.407 2.385-.203 3.352.204.968.646 1.711 1.329 2.231.681.521 1.558.78 2.631.78.861 0 1.682-.178 2.461-.536a5.73 5.73 0 0 0 1.983-1.487l-.49 1.829h3.632l3.313-12.363h-3.633zm-26.691 3.317.926-3.365c-.315-.162-.732-.244-1.252-.244a4.98 4.98 0 0 0-2.397.622 5.263 5.263 0 0 0-1.7 1.481l.482-1.812-1.051.002h-2.58l-3.338 12.363h3.683l1.731-6.462c.252-.943.705-1.678 1.36-2.206.652-.529 1.467-.793 2.442-.793.602 0 1.166.138 1.694.414zM97.4 22.564c-.31 1.155-.79 2.036-1.44 2.646-.651.61-1.432.914-2.341.914-.911 0-1.531-.309-1.862-.927-.33-.617-.339-1.511-.025-2.682.314-1.17.802-2.069 1.466-2.694a3.326 3.326 0 0 1 2.361-.94c.894 0 1.501.326 1.823.976.321.65.328 1.553.019 2.707zm2.575-5.694c-.684-.544-1.554-.816-2.61-.816-.927 0-1.81.21-2.644.634a5.49 5.49 0 0 0-2.037 1.73l.011-.08.62-1.97h-.713v.002H89.72l-.916 3.419-.03.117L84.997 34h3.682l1.902-7.095c.186.633.574 1.13 1.161 1.487.587.357 1.311.536 2.173.536 1.073 0 2.093-.26 3.062-.78.969-.52 1.81-1.264 2.524-2.231.714-.967 1.242-2.085 1.581-3.353.34-1.268.411-2.398.214-3.39-.197-.99-.639-1.759-1.321-2.304zm32.747-.497.002-.003h-2.23c-.072 0-.135.002-.2.003h-1.157l-.592.825a5.308 5.308 0 0 0-.146.197l-.065.096-4.704 6.552-.976-7.673h-3.853l1.951 11.66-4.31 5.97h3.84l1.044-1.48.09-.126 1.219-1.728.035-.05 5.453-7.73 4.595-6.507.006-.006h-.002z" clip-rule="evenodd"/><path fill="#3395FF" fill-rule="evenodd" d="M8.681 13.36 7.58 17.419l6.308-4.08L9.762 28.73l4.188.003L20.044 6 8.681 13.36z" clip-rule="evenodd"/><path fill="#072654" fill-rule="evenodd" d="m1.892 22.263-1.735 6.47h8.587l3.513-13.163-10.365 6.693z" clip-rule="evenodd"/></svg>