<svg width="103" height="32" viewBox="0 0 103 32" fill="none" xmlns="http://www.w3.org/2000/svg">
<path d="M25.0087 14.2116C20.1459 11.1948 12.125 10.9174 7.48289 12.3893C6.73742 12.6254 5.94915 12.1858 5.72327 11.4071C5.49739 10.628 5.91777 9.80502 6.66374 9.56827C11.9926 7.87832 20.8508 8.20483 26.4489 11.6764C27.1196 12.0921 27.3395 12.9967 26.942 13.6962C26.5442 14.3966 25.6776 14.6275 25.0087 14.2116ZM24.8494 18.68C24.5084 19.2584 23.7846 19.4396 23.2318 19.0847C19.1777 16.4814 12.9957 15.7272 8.19944 17.2481C7.57747 17.4445 6.92051 17.0781 6.73165 16.4295C6.54418 15.7798 6.89504 15.0947 7.5159 14.8971C12.995 13.1603 19.8062 14.0015 24.4625 16.9909C25.0154 17.3465 25.1894 18.1031 24.8494 18.68ZM23.0035 22.9714C22.7326 23.4357 22.1536 23.5813 21.7108 23.2983C18.1682 21.0365 13.7094 20.5255 8.45825 21.7787C7.95216 21.8999 7.44791 21.5685 7.33244 21.04C7.21656 20.5114 7.53243 19.9847 8.03964 19.864C13.7861 18.4916 18.7154 19.0823 22.6917 21.6206C23.135 21.9034 23.2746 22.5085 23.0035 22.9714ZM16.0851 0.240396C7.75374 0.240396 0.999481 7.29605 0.999481 15.9998C0.999481 24.7043 7.75374 31.7598 16.0851 31.7598C24.4169 31.7598 31.1708 24.7043 31.1708 15.9998C31.1708 7.29605 24.4169 0.240396 16.0851 0.240396Z" fill="#808E9A"/>
<path d="M42.0423 14.7892C39.4377 14.1403 38.9738 13.6848 38.9738 12.7281C38.9738 11.8239 39.7888 11.2156 41.0004 11.2156C42.1749 11.2156 43.3393 11.6777 44.5605 12.6288C44.5974 12.6576 44.6437 12.669 44.6893 12.6615C44.7349 12.6544 44.7751 12.6284 44.8019 12.5889L46.0737 10.716C46.1259 10.639 46.1117 10.5325 46.0413 10.4736C44.5881 9.25545 42.9517 8.66321 41.0389 8.66321C38.2266 8.66321 36.2621 10.4262 36.2621 12.9491C36.2621 15.6544 37.9567 16.6122 40.8851 17.3516C43.3775 17.9513 43.7982 18.4537 43.7982 19.3521C43.7982 20.3474 42.9475 20.9662 41.5786 20.9662C40.0584 20.9662 38.8181 20.4312 37.4309 19.1761C37.3965 19.1453 37.3493 19.131 37.3057 19.1336C37.2599 19.1375 37.2179 19.1597 37.1888 19.1964L35.7628 20.9694C35.703 21.043 35.7105 21.1529 35.7795 21.2165C37.3938 22.7218 39.3787 23.5171 41.521 23.5171C44.5515 23.5171 46.5098 21.7871 46.5098 19.1097C46.5098 16.8469 45.2157 15.5955 42.0423 14.7892Z" fill="#808E9A"/>
<path d="M55.5661 17.8222C55.5661 19.7329 54.4395 21.0662 52.8263 21.0662C51.2316 21.0662 50.0286 19.6723 50.0286 17.8222C50.0286 15.9723 51.2316 14.5782 52.8263 14.5782C54.4136 14.5782 55.5661 15.9422 55.5661 17.8222ZM53.3662 12.1059C52.0526 12.1059 50.9752 12.6464 50.0868 13.7539V12.5073C50.0868 12.4089 50.0104 12.3287 49.9162 12.3287H47.584C47.4898 12.3287 47.4136 12.4089 47.4136 12.5073V26.3586C47.4136 26.457 47.4898 26.5371 47.584 26.5371H49.9162C50.0104 26.5371 50.0868 26.457 50.0868 26.3586V21.9865C50.9754 23.0283 52.053 23.5372 53.3662 23.5372C55.807 23.5372 58.2778 21.5743 58.2778 17.8222C58.2778 14.0692 55.807 12.1059 53.3662 12.1059Z" fill="#808E9A"/>
<path d="M64.6112 21.0858C62.9393 21.0858 61.6788 19.6825 61.6788 17.8218C61.6788 15.9533 62.8957 14.5974 64.5726 14.5974C66.2553 14.5974 67.5243 16.0007 67.5243 17.8626C67.5243 19.7308 66.2991 21.0858 64.6112 21.0858ZM64.6112 12.1055C61.4679 12.1055 59.0054 14.6341 59.0054 17.8626C59.0054 21.056 61.451 23.5581 64.5726 23.5581C67.7271 23.5581 70.1972 21.038 70.1972 17.8218C70.1972 14.6164 67.744 12.1055 64.6112 12.1055Z" fill="#808E9A"/>
<path d="M76.9096 12.3284H74.3432V9.58725C74.3432 9.48883 74.2671 9.40885 74.1729 9.40885H71.841C71.7466 9.40885 71.6699 9.48883 71.6699 9.58725V12.3284H70.5485C70.4544 12.3284 70.3786 12.4086 70.3786 12.507V14.601C70.3786 14.6993 70.4544 14.7795 70.5485 14.7795H71.6699V20.1978C71.6699 22.3875 72.7131 23.4976 74.7705 23.4976C75.607 23.4976 76.3011 23.3171 76.9552 22.9296C77.0084 22.8986 77.0415 22.8387 77.0415 22.7751V20.7811C77.0415 20.7195 77.0107 20.6615 76.9604 20.6292C76.9096 20.5959 76.8464 20.5942 76.7943 20.6211C76.3451 20.8572 75.9108 20.9662 75.4253 20.9662C74.6771 20.9662 74.3432 20.6115 74.3432 19.816V14.7795H76.9096C77.0039 14.7795 77.0797 14.6993 77.0797 14.601V12.507C77.0797 12.4086 77.0039 12.3284 76.9096 12.3284Z" fill="#808E9A"/>
<path d="M85.8513 12.3392V12.0025C85.8513 11.0121 86.2149 10.5704 87.0302 10.5704C87.5164 10.5704 87.9069 10.6712 88.3443 10.8237C88.3982 10.8414 88.4544 10.8325 88.4982 10.7988C88.5432 10.7651 88.5686 10.7111 88.5686 10.6539V8.60076C88.5686 8.52228 88.5203 8.45284 88.4481 8.42988C87.986 8.28629 87.3948 8.13875 86.5096 8.13875C84.3553 8.13875 83.2168 9.40603 83.2168 11.8023V12.3179H82.0963C82.0022 12.3179 81.9251 12.3979 81.9251 12.4963V14.601C81.9251 14.6994 82.0022 14.7795 82.0963 14.7795H83.2168V23.137C83.2168 23.2354 83.2928 23.3154 83.3868 23.3154H85.7189C85.8131 23.3154 85.8899 23.2354 85.8899 23.137V14.7795H88.0674L91.4031 23.1348C91.0245 24.0127 90.6521 24.1873 90.1437 24.1873C89.7328 24.1873 89.3001 24.0591 88.8577 23.8063C88.8161 23.7823 88.7669 23.7784 88.7219 23.7929C88.6774 23.8094 88.6399 23.8439 88.621 23.8892L87.8305 25.7009C87.7929 25.7865 87.825 25.8871 87.9039 25.9315C88.7291 26.3984 89.4742 26.5977 90.3947 26.5977C92.1168 26.5977 93.0687 25.7595 93.908 23.5049L97.9541 12.5823C97.9743 12.5274 97.9684 12.4655 97.9361 12.4165C97.9041 12.3683 97.8524 12.3392 97.7958 12.3392H95.3678C95.2952 12.3392 95.23 12.3874 95.2063 12.4587L92.719 19.8806L89.9948 12.4538C89.9699 12.3847 89.9063 12.3392 89.8355 12.3392H85.8513Z" fill="#808E9A"/>
<path d="M80.6676 12.3285H78.3353C78.241 12.3285 78.1645 12.4086 78.1645 12.5071V23.137C78.1645 23.2354 78.241 23.3154 78.3353 23.3154H80.6676C80.7616 23.3154 80.8383 23.2354 80.8383 23.137V12.5071C80.8383 12.4086 80.7616 12.3285 80.6676 12.3285Z" fill="#808E9A"/>
<path d="M79.5132 7.4882C78.5895 7.4882 77.8395 8.26976 77.8395 9.2348C77.8395 10.2006 78.5895 10.9829 79.5132 10.9829C80.4368 10.9829 81.1858 10.2006 81.1858 9.2348C81.1858 8.26976 80.4368 7.4882 79.5132 7.4882Z" fill="#808E9A"/>
<path d="M100.041 13.3858H99.6134V13.955H100.041C100.254 13.955 100.381 13.846 100.381 13.6703C100.381 13.4851 100.254 13.3858 100.041 13.3858ZM100.318 14.1978L100.782 14.877H100.391L99.9726 14.2541H99.6134V14.877H99.2857V13.077H100.054C100.454 13.077 100.717 13.291 100.717 13.6511C100.717 13.9461 100.554 14.1265 100.318 14.1978ZM99.9539 12.4782C99.1131 12.4782 98.4769 13.1762 98.4769 14.0313C98.4769 14.8858 99.1086 15.5746 99.9452 15.5746C100.786 15.5746 101.423 14.877 101.423 14.0215C101.423 13.167 100.79 12.4782 99.9539 12.4782ZM99.9452 15.7461C99.0222 15.7461 98.304 14.9716 98.304 14.0313C98.304 13.0907 99.0315 12.3075 99.9539 12.3075C100.877 12.3075 101.595 13.0819 101.595 14.0215C101.595 14.962 100.868 15.7461 99.9452 15.7461Z" fill="#808E9A"/>
</svg>
