<svg xmlns="http://www.w3.org/2000/svg" width="135" height="40" fill="none"><path fill="#FC8019" d="M13.774 39.342a1.29 1.29 0 0 1-.082-.067c-.466-.577-3.348-4.188-6.285-8.82-.88-1.475-1.453-2.626-1.343-2.923.287-.774 5.407-1.198 6.984-.496.48.213.468.495.468.659 0 .708-.036 2.609-.036 2.609a.712.712 0 1 0 1.424-.003l-.007-4.736c0-.412-.45-.514-.535-.53-.823-.005-2.494-.01-4.289-.01-3.96 0-4.844.162-5.517-.277C3.099 23.793.716 17.37.66 13.756c-.08-5.099 2.942-9.513 7.195-11.7A13.098 13.098 0 0 1 13.76.658c6.733 0 12.278 5.082 13.015 11.62l.002.018c.136 1.58-8.576 1.916-10.3 1.456-.263-.07-.331-.34-.331-.457l-.01-4.585a.713.713 0 0 0-1.426.003l.015 6.231a.532.532 0 0 0 .432.516l5.406-.002c2.885 0 4.097.335 4.903.949.536.408.744 1.191.562 2.208-1.617 9.049-11.87 20.26-12.254 20.727zm27.8-21.118c2.586 1.108 4.188 2.338 4.188 5.037 0 2.757-2.089 4.538-5.32 4.538-2.62 0-4.721-1.186-5.768-3.255l-.17-.333 3.08-1.784.201.33c.693 1.133 1.468 1.616 2.593 1.616.969 0 1.62-.43 1.62-1.07 0-.708-.471-.974-1.928-1.612l-.74-.317c-1.977-.842-3.807-2.013-3.807-4.847 0-2.547 1.952-4.326 4.748-4.326 2.118 0 3.57.82 4.57 2.58l.184.326-2.983 1.918-.205-.368c-.5-.893-.969-1.072-1.566-1.072-.624 0-1.026.345-1.026.878 0 .614.296.883 1.587 1.442l.741.319zm21.794.521 2.174-6.06h3.731l-5.53 15.365h-.828l-3.354-7.196c-.156-.33-.317-.74-.455-1.115a15.71 15.71 0 0 1-.463 1.116l-3.485 7.195h-.823l-5.618-15.366h3.985l2.198 6.061c.14.387.284.858.41 1.296.149-.452.329-.939.516-1.332l2.886-6.151h.799l2.931 6.152c.187.392.367.88.516 1.331.126-.438.271-.909.41-1.296zm10.256 8.863V12.37h3.765v15.238h-3.765zm16.112-5.12v-3.405h6.992v6.83l-.145.119c-.8.657-2.92 1.768-5.793 1.768-4.847 0-8.23-3.212-8.23-7.81 0-4.513 3.265-7.789 7.763-7.789 2.474 0 4.287.697 5.542 2.132l.245.28-2.566 2.541-.28-.287c-.716-.739-1.459-1.197-2.941-1.197-2.304 0-3.914 1.777-3.914 4.32 0 2.65 1.719 4.362 4.38 4.362.884 0 1.803-.152 2.428-.395v-1.468h-3.481zm19.082 0v-3.405h6.992v6.83l-.144.119c-.801.657-2.921 1.768-5.793 1.768-4.847 0-8.231-3.212-8.231-7.81 0-4.513 3.266-7.789 7.763-7.789 2.475 0 4.288.697 5.542 2.132l.246.28-2.566 2.541-.279-.287c-.717-.739-1.46-1.197-2.943-1.197-2.304 0-3.913 1.777-3.913 4.32 0 2.65 1.719 4.362 4.381 4.362.883 0 1.801-.152 2.427-.395v-1.468h-3.482zm20.789-10.117h3.936l-5.402 10.14v5.098h-3.786v-4.882L118.6 12.37h4.2l2.66 4.859c.286.529.585 1.227.81 1.794.216-.562.502-1.255.786-1.79l2.551-4.863z"/></svg>