<svg width="28" height="28" viewBox="0 0 28 28" fill="none" xmlns="http://www.w3.org/2000/svg">
<g clip-path="url(#clip0_1849_121545)">
<path d="M23.8977 23.8985C29.365 18.4312 29.365 9.56687 23.8977 4.09953C18.4304 -1.36781 9.56605 -1.36781 4.09871 4.09953C-1.36863 9.56687 -1.36863 18.4312 4.09871 23.8985C9.56605 29.3659 18.4304 29.3659 23.8977 23.8985Z" fill="url(#paint0_linear_1849_121545)"/>
<path d="M20.8111 8.05283L18.3104 20.6601C18.3104 20.6601 17.9605 21.5345 16.999 21.1149L11.2286 16.6911L9.13028 15.6771L5.59828 14.4879C5.59828 14.4879 5.05638 14.2953 5.00393 13.8757C4.95147 13.456 5.61611 13.2289 5.61611 13.2289L19.6576 7.72077C19.6576 7.72077 20.8116 7.2135 20.8116 8.05283H20.8111Z" fill="white"/>
<path d="M10.7854 20.5196C10.7854 20.5196 10.617 20.5039 10.4072 19.8392C10.1973 19.1746 9.13086 15.6777 9.13086 15.6777L17.6117 10.2919C17.6117 10.2919 18.1012 9.99443 18.0839 10.2919C18.0839 10.2919 18.1715 10.3443 17.9092 10.5893C17.6469 10.8343 11.247 16.5868 11.247 16.5868" fill="#D3E6F2"/>
<path d="M13.4431 18.3886L11.1606 20.4696C11.1606 20.4696 10.9823 20.6049 10.7871 20.5199L11.2241 16.6543" fill="#B6D0E5"/>
</g>
<defs>
<linearGradient id="paint0_linear_1849_121545" x1="13.998" y1="-0.00114991" x2="13.998" y2="27.8971" gradientUnits="userSpaceOnUse">
<stop stop-color="#42BDE9"/>
<stop offset="1" stop-color="#23A8DD"/>
</linearGradient>
<clipPath id="clip0_1849_121545">
<rect width="28" height="28" fill="white"/>
</clipPath>
</defs>
</svg>
