<svg width="96" height="28" viewBox="0 0 96 28" fill="none" xmlns="http://www.w3.org/2000/svg">
<g clip-path="url(#clip0_1849_122514)">
<path d="M18.3792 10.1076C20.1833 11.3993 22.3934 12.1593 24.7804 12.1593V7.55856C24.3286 7.55866 23.8781 7.51148 23.4361 7.41769V11.0391C21.0493 11.0391 18.8395 10.2791 17.0349 8.98749V18.3762C17.0349 23.073 13.2336 26.8801 8.5448 26.8801C6.79528 26.8801 5.16917 26.3504 3.81836 25.4418C5.36009 27.0207 7.51014 28.0002 9.8888 28.0002C14.5779 28.0002 18.3794 24.193 18.3794 19.4961V10.1076H18.3792ZM20.0375 5.466C19.1156 4.4571 18.5102 3.15329 18.3792 1.71187V1.12012H17.1053C17.426 2.95216 18.5197 4.51736 20.0375 5.466ZM6.78406 21.8377C6.26893 21.1612 5.99056 20.3336 5.99181 19.4827C5.99181 17.3346 7.7305 15.5929 9.87556 15.5929C10.2753 15.5928 10.6727 15.6541 11.0537 15.7751V11.0716C10.6085 11.0105 10.1591 10.9845 9.70996 10.994V14.6551C9.3287 14.534 8.93114 14.4725 8.53128 14.4729C6.38621 14.4729 4.64762 16.2144 4.64762 18.3628C4.64762 19.8819 5.51667 21.197 6.78406 21.8377Z" fill="#FF004F"/>
<path d="M17.0348 8.9874C18.8394 10.279 21.0492 11.039 23.436 11.039V7.41759C22.1037 7.13334 20.9242 6.43598 20.0374 5.466C18.5195 4.51726 17.4258 2.95207 17.1052 1.12012H13.759V19.4959C13.7514 21.6382 12.0157 23.3728 9.87525 23.3728C8.6139 23.3728 7.49333 22.7706 6.78364 21.8377C5.51636 21.197 4.6473 19.8818 4.6473 18.3629C4.6473 16.2147 6.38589 14.473 8.53096 14.473C8.94194 14.473 9.33807 14.5371 9.70964 14.6552V10.9941C5.10316 11.0895 1.39844 14.8595 1.39844 19.496C1.39844 21.8106 2.321 23.9088 3.81833 25.4419C5.16914 26.3504 6.79525 26.8802 8.54477 26.8802C13.2337 26.8802 17.0349 23.0729 17.0349 18.3762V8.9874H17.0348Z" fill="black"/>
<path d="M23.4364 7.41746V6.43825C22.235 6.44008 21.0572 6.10308 20.0379 5.46577C20.9402 6.45526 22.1284 7.13754 23.4364 7.41746ZM17.1056 1.11998C17.075 0.9449 17.0515 0.768662 17.0352 0.591752V0H12.4151V18.376C12.4077 20.518 10.6721 22.2526 8.5314 22.2526C7.90293 22.2526 7.30956 22.1031 6.78408 21.8376C7.49377 22.7704 8.61434 23.3726 9.87569 23.3726C12.016 23.3726 13.752 21.6381 13.7594 19.4959V1.11998H17.1056ZM9.71028 10.994V9.95157C9.32422 9.89872 8.935 9.8722 8.5453 9.87239C3.85597 9.8723 0.0546875 13.6797 0.0546875 18.376C0.0546875 21.3204 1.54866 23.9152 3.81887 25.4416C2.32154 23.9086 1.39898 21.8102 1.39898 19.4958C1.39898 14.8593 5.1036 11.0893 9.71028 10.994Z" fill="#00F2EA"/>
<path d="M76.9709 23.0302C80.326 23.0302 83.046 20.3265 83.046 16.9916C83.046 13.6568 80.326 10.9526 76.9709 10.9526H76.0557C79.4109 10.9526 82.1308 13.6567 82.1308 16.9916C82.1308 20.3265 79.4109 23.0302 76.0557 23.0302H76.9709Z" fill="#FF004F"/>
<path d="M75.973 10.9526H75.0578C71.7028 10.9526 68.9824 13.6567 68.9824 16.9916C68.9824 20.3265 71.7028 23.0302 75.0578 23.0302H75.973C72.6175 23.0302 69.8976 20.3265 69.8976 16.9916C69.8975 13.6568 72.6175 10.9526 75.973 10.9526Z" fill="#00F2EA"/>
<path d="M29.7871 8.22314V11.2841H33.3649V22.9475H36.9441V11.3667H39.8565L40.8551 8.22324H29.7871V8.22314ZM59.0799 8.22314V11.2841H62.6577V22.9475H66.2369V11.3667H69.1492L70.1477 8.22324H59.0799V8.22314ZM41.5214 9.96015C41.5214 9.00103 42.3025 8.22314 43.2676 8.22314C44.2335 8.22314 45.0155 9.00103 45.0155 9.96015C45.0155 10.9194 44.234 11.6973 43.2676 11.6973C42.3025 11.6968 41.5214 10.9194 41.5214 9.96015ZM41.5214 12.9384H45.0155V22.9475H41.5214V12.9384ZM46.5137 8.22314V22.9474H50.0091V19.1426L51.091 18.1491L54.5025 23.03H58.247L53.3367 15.9161L57.7474 11.6141H53.5035L50.0091 15.0883V8.22314H46.5137ZM84.2108 8.22314V22.9474H87.7066V19.1426L88.7881 18.1491L92.2006 23.03H95.9455L91.0353 15.9161L95.4458 11.6141H91.202L87.7066 15.0883V8.22314H84.2108Z" fill="black"/>
<path d="M76.0555 23.0302C79.4106 23.0302 82.131 20.3265 82.131 16.9916C82.131 13.6568 79.4106 10.9526 76.0555 10.9526H75.9726C72.6174 10.9526 69.8975 13.6567 69.8975 16.9916C69.8975 20.3265 72.6174 23.0302 75.9726 23.0302H76.0555ZM73.0597 16.9916C73.0597 15.3694 74.383 14.0554 76.0148 14.0554C77.6454 14.0554 78.9686 15.3694 78.9686 16.9916C78.9686 18.6138 77.6454 19.9286 76.0148 19.9286C74.383 19.9283 73.0597 18.6138 73.0597 16.9916Z" fill="black"/>
</g>
<defs>
<clipPath id="clip0_1849_122514">
<rect width="95.8904" height="28" fill="white" transform="translate(0.0546875)"/>
</clipPath>
</defs>
</svg>
