<svg xmlns="http://www.w3.org/2000/svg" width="228" height="40" fill="none"><g clip-path="url(#a)"><path fill="#146EF5" fill-rule="evenodd" d="M60.75 1.053 41.365 38.948H23.158l8.112-15.706h-.364C24.214 31.93 14.228 37.65 0 38.947V23.46s9.102-.538 14.453-6.164H0V1.053h16.243v13.36l.365-.002 6.638-13.358H35.53v13.275h.364l6.887-13.275H60.75z" clip-rule="evenodd"/><path fill="#000" d="M166.455 34.765h5.232V4.737h-5.232v30.028z"/><path fill="#000" fill-rule="evenodd" d="M137.616 34.458a8.961 8.961 0 0 0 3.468.709c1.942 0 3.679-.473 5.212-1.418 1.533-.946 2.721-2.249 3.565-3.91.843-1.673 1.264-3.57 1.264-5.69 0-2.121-.434-4.018-1.303-5.692-.868-1.673-2.076-2.97-3.622-3.89-1.545-.933-3.302-1.392-5.269-1.38a9.172 9.172 0 0 0-3.603.729c-1.149.485-2.108 1.175-2.874 2.07a6.16 6.16 0 0 0-.172.205V4.756h-5.251v30.008h5.212l-.01-2.803c.134.165.279.327.432.485a8.965 8.965 0 0 0 2.951 2.012zm5.365-4.848c-.856.524-1.833.785-2.932.785a5.764 5.764 0 0 1-2.989-.804 6.076 6.076 0 0 1-2.165-2.242c-.524-.946-.786-2.019-.786-3.22-.013-1.2.243-2.274.766-3.22.537-.957 1.259-1.698 2.166-2.222.907-.537 1.91-.798 3.008-.786 1.099-.012 2.076.243 2.932.767.869.51 1.533 1.245 1.993 2.204.473.945.709 2.03.709 3.257 0 1.227-.236 2.313-.709 3.258a5.254 5.254 0 0 1-1.993 2.223z" clip-rule="evenodd"/><path fill="#000" d="M68.329 6.557h5.979l5.348 19.531 5.69-19.531h4.981l6.17 19.14 5.136-19.14h5.481l-8.087 28.207h-5.154l-6.275-18.698-5.76 18.698h-5.212L68.33 6.557z"/><path fill="#000" fill-rule="evenodd" d="M115.943 35.263c-2.083.013-3.96-.447-5.634-1.38a10.357 10.357 0 0 1-3.928-3.928c-.946-1.673-1.418-3.583-1.418-5.73 0-2.082.485-3.966 1.456-5.652.971-1.687 2.287-3.003 3.948-3.948 1.66-.945 3.513-1.418 5.557-1.418 2.299 0 4.311.511 6.036 1.533 1.737 1.022 3.034 2.472 3.89 4.35.869 1.865 1.182 4.005.939 6.42h-16.414c.046.961.286 1.836.72 2.625a5.172 5.172 0 0 0 2.031 2.03c.869.486 1.84.729 2.913.729a6.637 6.637 0 0 0 2.28-.421 5.373 5.373 0 0 0 1.782-1.131 3.962 3.962 0 0 0 1.054-1.61h5.481a8.928 8.928 0 0 1-1.993 3.928c-.997 1.138-2.249 2.025-3.756 2.664-1.508.639-3.156.952-4.944.94zm-4.829-15.023a5.537 5.537 0 0 0-.636 1.724h10.88a4.877 4.877 0 0 0-.72-2.127 4.663 4.663 0 0 0-1.878-1.744c-.792-.421-1.686-.632-2.683-.632-1.06 0-2.025.243-2.894.728a5.41 5.41 0 0 0-2.069 2.05z" clip-rule="evenodd"/><path fill="#000" d="M154.977 13.648c0-1.712.39-3.232 1.169-4.56.779-1.342 1.871-2.383 3.277-3.124 1.418-.754 3.072-1.144 4.963-1.17v4.657c-.882.013-1.635.198-2.261.556a3.46 3.46 0 0 0-1.418 1.514c-.306.611-.471 1.32-.495 2.127h4.059v4.427h-4.063v16.69h-5.231v-16.69h-3.373v-4.427h3.373z"/><path fill="#000" fill-rule="evenodd" d="M184.985 35.223c-2.133 0-4.043-.466-5.729-1.398a10.356 10.356 0 0 1-3.948-3.91c-.945-1.673-1.418-3.57-1.418-5.69 0-2.134.473-4.038 1.418-5.711a10.143 10.143 0 0 1 3.948-3.929c1.686-.932 3.596-1.399 5.729-1.399 2.146 0 4.063.467 5.749 1.4a9.986 9.986 0 0 1 3.967 3.909c.945 1.673 1.424 3.583 1.437 5.73-.013 2.12-.492 4.017-1.437 5.69-.933 1.661-2.249 2.964-3.948 3.91-1.699.932-3.622 1.398-5.768 1.398zm0-4.81c1.124 0 2.121-.255 2.99-.766a5.287 5.287 0 0 0 2.012-2.184c.472-.946.709-2.025.709-3.239 0-1.226-.237-2.312-.709-3.258-.473-.945-1.144-1.673-2.012-2.184-.869-.524-1.866-.786-2.99-.786-1.111 0-2.101.262-2.97.786-.856.511-1.52 1.24-1.993 2.184-.473.946-.702 2.032-.69 3.258 0 1.214.237 2.293.709 3.239.486.932 1.15 1.66 1.993 2.184.856.511 1.84.767 2.951.767z" clip-rule="evenodd"/><path fill="#000" d="M201.791 13.648h-5.825l6.304 21.117h5.097l4.147-13.488 4.476 13.488h5.021l6.324-21.117h-5.27l-3.587 13.144-3.964-13.145h-5.096l-3.945 13.434-3.682-13.433z"/></g><defs><clipPath id="a"><path fill="#fff" d="M0 0h227.368v40H0z"/></clipPath></defs></svg>