<svg width="80" height="80" viewBox="0 0 80 80" fill="none" xmlns="http://www.w3.org/2000/svg">
<rect x="0.4" y="0.4" width="79.2" height="79.2" rx="39.6" fill="white" stroke="#EAE0FF" stroke-width="0.8"/>
<g clip-path="url(#clip0_2432_16605)">
<path d="M58.303 29.9926C59.9312 32.9634 60.8577 36.3727 60.8577 39.9992C60.8577 47.6945 56.6874 54.4128 50.4863 58.0283L56.857 39.6084C58.047 36.6327 58.4432 34.2533 58.4432 32.1375C58.4432 31.3696 58.3926 30.6569 58.303 29.9926ZM42.8743 30.2197C44.13 30.1536 45.2615 30.0215 45.2615 30.0215C46.3854 29.8885 46.2528 28.2368 45.1284 28.3025C45.1284 28.3025 41.7499 28.5677 39.5688 28.5677C37.5194 28.5677 34.0755 28.3025 34.0755 28.3025C32.9506 28.2368 32.8188 29.955 33.9432 30.0215C33.9432 30.0215 35.0072 30.1536 36.1311 30.2197L39.3805 39.1238L34.8152 52.8136L27.2199 30.2197C28.4766 30.1536 29.6069 30.0215 29.6069 30.0215C30.73 29.8885 30.5975 28.2368 29.4736 28.3025C29.4736 28.3025 26.0957 28.5677 23.9144 28.5677C23.5231 28.5677 23.0618 28.5581 22.572 28.5424C26.3017 22.8802 32.7122 19.1409 39.9997 19.1409C45.4297 19.1409 50.3741 21.2171 54.0848 24.6173C53.995 24.6119 53.9073 24.6006 53.8148 24.6006C51.7658 24.6006 50.312 26.3854 50.312 28.3025C50.312 30.0215 51.3038 31.4759 52.3609 33.1947C53.1541 34.5839 54.0807 36.3685 54.0807 38.9472C54.0807 40.7323 53.394 42.8041 52.4935 45.6902L50.4124 52.6415L42.8743 30.2197ZM39.9997 60.8592C37.9522 60.8592 35.9762 60.559 34.1069 60.0093L40.366 41.8238L46.777 59.3892C46.8192 59.4923 46.871 59.5873 46.9263 59.6766C44.7582 60.4399 42.4287 60.8592 39.9997 60.8592ZM19.1414 39.9992C19.1414 36.9751 19.79 34.1045 20.9475 31.5105L30.8975 58.7715C23.9387 55.3909 19.1414 48.2554 19.1414 39.9992ZM39.9997 16.8001C27.2073 16.8001 16.8 27.2071 16.8 39.9992C16.8 52.7918 27.2073 63.2001 39.9997 63.2001C52.7918 63.2001 63.1996 52.7918 63.1996 39.9992C63.1996 27.2071 52.7918 16.8001 39.9997 16.8001Z" fill="#3F3C3C"/>
</g>
<defs>
<clipPath id="clip0_2432_16605">
<rect width="46.4" height="46.4" fill="white" transform="translate(16.8 16.8)"/>
</clipPath>
</defs>
</svg>
