<svg width="40" height="41" viewBox="0 0 40 41" fill="none" xmlns="http://www.w3.org/2000/svg">
<g clip-path="url(#clip0_1698_31633)">
<path d="M7.08332 0.96875H32.9167C36.8333 0.96875 40 4.09726 40 7.96674V33.4888C40 37.3583 36.8333 40.4868 32.9167 40.4868H7.08332C3.16665 40.4868 -1.52588e-05 37.3583 -1.52588e-05 33.4888V7.96674C-1.52588e-05 4.09726 3.16665 0.96875 7.08332 0.96875Z" fill="#00005B"/>
<path d="M16.0667 24.0209H9.86667L8.6 27.9068C8.56667 28.055 8.43334 28.1538 8.28334 28.1373H5.15C4.96667 28.1373 4.91667 28.0385 4.96667 27.8409L10.3333 12.643C10.3833 12.4783 10.4333 12.3301 10.5 12.1325C10.5667 11.7867 10.6 11.4245 10.6 11.0622C10.5833 10.9799 10.65 10.8976 10.7333 10.8811C10.75 10.8811 10.7667 10.8811 10.7833 10.8811H15.05C15.1667 10.8811 15.25 10.9305 15.2667 11.0128L21.35 27.8903C21.4 28.0715 21.35 28.1538 21.1833 28.1538H17.7C17.5833 28.1703 17.4667 28.0879 17.4333 27.9727L16.0667 24.0209ZM10.8333 20.7442H15.0667C14.9667 20.3984 14.8333 19.9867 14.6833 19.5586C14.5333 19.114 14.3833 18.6365 14.2333 18.1426C14.0667 17.6321 13.9167 17.1381 13.75 16.6277C13.5833 16.1172 13.4333 15.6397 13.3 15.1622C13.1667 14.7012 13.05 14.2731 12.9333 13.8779H12.9C12.75 14.5859 12.5667 15.294 12.3333 16.002C12.0833 16.7923 11.8333 17.6156 11.5667 18.4389C11.35 19.2787 11.0833 20.0526 10.8333 20.7442Z" fill="#9999FF"/>
<path d="M31.2335 22.5061H25.9501C26.0168 23.0166 26.1835 23.527 26.4668 23.9716C26.7668 24.4161 27.1835 24.7619 27.6835 24.9595C28.3501 25.2394 29.0835 25.3876 29.8168 25.3712C30.4001 25.3547 30.9835 25.3053 31.5501 25.19C32.0668 25.1242 32.5668 24.9925 33.0335 24.8113C33.1168 24.7455 33.1668 24.7784 33.1668 24.9431V27.4623C33.1668 27.5282 33.1501 27.5941 33.1335 27.6599C33.1001 27.7093 33.0668 27.7423 33.0168 27.7752C32.4835 28.0057 31.9335 28.1704 31.3501 28.2692C30.5668 28.4174 29.7835 28.4832 28.9835 28.4668C27.7168 28.4668 26.6501 28.2692 25.7835 27.8904C24.9668 27.5447 24.2501 27.0013 23.6835 26.3262C23.1501 25.684 22.7668 24.9595 22.5335 24.1692C22.3001 23.3953 22.1835 22.5884 22.1835 21.7651C22.1835 20.876 22.3168 20.0033 22.6001 19.1471C22.8668 18.3238 23.2835 17.5663 23.8501 16.8912C24.4001 16.2326 25.0835 15.7057 25.8668 15.327C26.6501 14.9483 27.5835 14.8166 28.6501 14.8166C29.5335 14.8001 30.4168 14.9647 31.2335 15.327C31.9168 15.6234 32.5168 16.068 32.9835 16.6443C33.4168 17.2041 33.7668 17.8298 33.9835 18.5214C34.2001 19.18 34.3001 19.8551 34.3001 20.5302C34.3001 20.9254 34.2835 21.2712 34.2668 21.584C34.2335 21.8969 34.2168 22.1274 34.2001 22.2756C34.1835 22.3908 34.0835 22.4896 33.9668 22.4896C33.8668 22.4896 33.6835 22.5061 33.4168 22.5226C33.1501 22.5555 32.8335 22.572 32.4501 22.572C32.0668 22.572 31.6668 22.5061 31.2335 22.5061ZM25.9501 20.1021H29.4668C29.9001 20.1021 30.2168 20.1021 30.4168 20.0856C30.5501 20.0692 30.6835 20.0362 30.8001 19.9539V19.7892C30.8001 19.5752 30.7668 19.3776 30.7001 19.18C30.4001 18.2579 29.5168 17.6322 28.5335 17.6651C27.6168 17.6157 26.7501 18.0933 26.3168 18.9166C26.1168 19.2953 26.0001 19.6904 25.9501 20.1021Z" fill="#9999FF"/>
</g>
<defs>
<clipPath id="clip0_1698_31633">
<rect width="40" height="39.5181" fill="white" transform="translate(-1.52588e-05 0.96875)"/>
</clipPath>
</defs>
</svg>
