<svg width="62" height="62" viewBox="0 0 62 62" fill="none" xmlns="http://www.w3.org/2000/svg">
<path d="M44.3545 12.9481C44.2372 12.4022 43.7892 12.0113 43.2665 12.0002C42.7438 11.9894 42.2816 12.3611 42.1465 12.9017C41.5918 15.1067 41.2558 16.2155 40.7509 17.0497C40.2709 17.8418 39.5847 18.4696 38.0772 19.5083C37.7412 19.7408 37.542 20.1465 37.5563 20.5759C37.5705 21.0054 37.7945 21.3953 38.1465 21.602C39.5883 22.45 40.2621 23.0987 40.7367 23.9236C41.2541 24.8233 41.59 26.0162 42.1483 28.1737C42.2869 28.7103 42.7474 29.0777 43.2683 29.0665C43.7874 29.0553 44.2336 28.6683 44.3527 28.1263C44.8203 25.9867 45.1172 24.9266 45.6114 24.1105C46.0896 23.322 46.8132 22.6648 48.4132 21.5574C48.7581 21.3185 48.9572 20.8985 48.9323 20.4589C48.9056 20.0193 48.6621 19.6283 48.2923 19.4363C46.7634 18.6434 46.0807 18.0276 45.6256 17.2365C45.1243 16.3645 44.8274 15.1695 44.3545 12.9481Z" fill="url(#paint0_linear_1_35)"/>
<path d="M42.4444 40.4448V31.7449C42.6809 31.7945 42.9369 31.827 43.2124 31.84C43.9538 31.8754 44.5813 31.8144 45.1111 31.6887V40.4448C45.1111 41.7413 44.5956 42.9849 43.68 43.9017C42.7627 44.8187 41.5182 45.3337 40.2222 45.3337H36.2702L30.4231 50.346C29.8951 50.7995 29.1058 50.7691 28.6133 50.2765L23.6693 45.3337H18.8889C17.5929 45.3337 16.3484 44.8187 15.4329 43.9017C14.5156 42.9849 14 41.7413 14 40.4448V20.8893C14 19.5925 14.5156 18.3492 15.4329 17.4322C16.3484 16.5154 17.5929 16.0004 18.8889 16.0004H38.2027C37.8933 16.3193 37.5164 16.5954 37.1324 16.8786C36.4658 17.3684 35.7707 17.8788 35.3351 18.667H18.8889C18.3004 18.667 17.7351 18.9012 17.3173 19.3179C16.9013 19.7346 16.6667 20.2999 16.6667 20.8893V40.4448C16.6667 41.0341 16.9013 41.5993 17.3173 42.0162C17.7351 42.4329 18.3004 42.667 18.8889 42.667H24.2222C24.576 42.667 24.9156 42.8075 25.1644 43.0576L29.6249 47.5179L34.9102 42.9879C35.152 42.7808 35.4596 42.667 35.7778 42.667H40.2222C40.8124 42.667 41.3778 42.4329 41.7938 42.0162C42.2098 41.5993 42.4444 41.0341 42.4444 40.4448Z" fill="url(#paint1_linear_1_35)"/>
<path d="M21.5581 23.0004H35.6968C36.095 23.4589 36.5946 23.7817 37.0941 24.1035C37.4461 24.3312 37.7981 24.5584 38.1128 24.8329C37.9546 24.9387 37.7626 25.0004 37.5581 25.0004H21.5581C21.0053 25.0004 20.559 24.5525 20.559 24.0004C20.559 23.448 21.0053 23.0004 21.5581 23.0004Z" fill="url(#paint2_linear_1_35)"/>
<path d="M21.5581 29.667C21.0053 29.667 20.559 30.1146 20.559 30.667C20.559 31.2192 21.0053 31.667 21.5581 31.667H37.5581C38.111 31.667 38.559 31.2192 38.559 30.667C38.559 30.1146 38.111 29.667 37.5581 29.667H21.5581Z" fill="url(#paint3_linear_1_35)"/>
<path d="M20.559 37.3336C20.559 36.7813 21.0053 36.3336 21.5581 36.3336H29.5581C30.111 36.3336 30.559 36.7813 30.559 37.3336C30.559 37.8858 30.111 38.3336 29.5581 38.3336H21.5581C21.0053 38.3336 20.559 37.8858 20.559 37.3336Z" fill="url(#paint4_linear_1_35)"/>
<defs>
<linearGradient id="paint0_linear_1_35" x1="29.5918" y1="64.4907" x2="34.0238" y2="11.7224" gradientUnits="userSpaceOnUse">
<stop stop-color="#3240CD"/>
<stop offset="0.686082" stop-color="#63F9D6"/>
<stop offset="1" stop-color="#BAFFEF"/>
</linearGradient>
<linearGradient id="paint1_linear_1_35" x1="29.5929" y1="64.4907" x2="34.0249" y2="11.7223" gradientUnits="userSpaceOnUse">
<stop stop-color="#3240CD"/>
<stop offset="0.686082" stop-color="#63F9D6"/>
<stop offset="1" stop-color="#BAFFEF"/>
</linearGradient>
<linearGradient id="paint2_linear_1_35" x1="29.5937" y1="64.4907" x2="34.0257" y2="11.7223" gradientUnits="userSpaceOnUse">
<stop stop-color="#3240CD"/>
<stop offset="0.686082" stop-color="#63F9D6"/>
<stop offset="1" stop-color="#BAFFEF"/>
</linearGradient>
<linearGradient id="paint3_linear_1_35" x1="29.5937" y1="64.4906" x2="34.0257" y2="11.7223" gradientUnits="userSpaceOnUse">
<stop stop-color="#3240CD"/>
<stop offset="0.686082" stop-color="#63F9D6"/>
<stop offset="1" stop-color="#BAFFEF"/>
</linearGradient>
<linearGradient id="paint4_linear_1_35" x1="29.5937" y1="64.4906" x2="34.0257" y2="11.7222" gradientUnits="userSpaceOnUse">
<stop stop-color="#3240CD"/>
<stop offset="0.686082" stop-color="#63F9D6"/>
<stop offset="1" stop-color="#BAFFEF"/>
</linearGradient>
</defs>
</svg>
