<svg width="79" height="24" viewBox="0 0 79 24" fill="none" xmlns="http://www.w3.org/2000/svg">
<g clip-path="url(#clip0_1698_31579)">
<path fill-rule="evenodd" clip-rule="evenodd" d="M48.5804 18.769C44.0477 22.1802 37.4778 24.0002 31.8212 24.0002C23.8898 24.0002 16.7495 21.005 11.3476 16.0233C10.9232 15.6316 11.3035 15.0977 11.8128 15.4028C17.6425 18.866 24.8507 20.9495 32.2966 20.9495C37.3182 20.9495 42.8423 19.8887 47.9217 17.6874C48.689 17.3546 49.3307 18.2004 48.5804 18.769Z" fill="#808E9A"/>
<path fill-rule="evenodd" clip-rule="evenodd" d="M50.4648 16.5675C49.8876 15.8118 46.6349 16.2104 45.1749 16.3872C44.7301 16.4427 44.6622 16.0475 45.0629 15.7632C47.6535 13.9016 51.9044 14.439 52.4001 15.063C52.8958 15.6904 52.2711 20.0412 49.8366 22.1177C49.4632 22.4366 49.1067 22.2668 49.273 21.8438C49.8197 20.4502 51.0454 17.3267 50.4648 16.5675Z" fill="#808E9A"/>
<path fill-rule="evenodd" clip-rule="evenodd" d="M45.2768 2.62074V0.81112C45.2768 0.537251 45.4805 0.353516 45.7249 0.353516H53.6597C53.9144 0.353516 54.1181 0.540718 54.1181 0.81112V2.36074C54.1147 2.62074 53.9008 2.96048 53.5205 3.49781L49.4088 9.49174C50.9367 9.45361 52.5495 9.68588 53.9348 10.4832C54.2471 10.6635 54.332 10.927 54.3558 11.187V13.1179C54.3558 13.3814 54.0706 13.6899 53.7718 13.5305C51.3306 12.2235 48.0881 12.0814 45.3888 13.5443C45.1138 13.6969 44.8252 13.3918 44.8252 13.1283V11.2944C44.8252 10.9998 44.8286 10.4971 45.1172 10.0499L49.8808 3.07488H45.7351C45.4805 3.07488 45.2768 2.89114 45.2768 2.62074Z" fill="#808E9A"/>
<path fill-rule="evenodd" clip-rule="evenodd" d="M16.3319 13.9121H13.9179C13.687 13.8948 13.5037 13.718 13.4867 13.4927V0.842658C13.4867 0.589589 13.6938 0.388519 13.9518 0.388519H16.2029C16.4372 0.398912 16.6239 0.582654 16.6409 0.811456V2.46508H16.6851C17.2724 0.866923 18.3759 0.121582 19.8631 0.121582C21.374 0.121582 22.3178 0.866923 22.9969 2.46508C23.5809 0.866923 24.9085 0.121582 26.3311 0.121582C27.3429 0.121582 28.4497 0.547986 29.1254 1.5048C29.8893 2.56907 29.7332 4.11522 29.7332 5.47071L29.7298 13.4545C29.7298 13.7076 29.5227 13.9121 29.2646 13.9121H26.854C26.6129 13.8948 26.4194 13.6972 26.4194 13.4545V6.74992C26.4194 6.21605 26.4669 4.88483 26.3515 4.37869C26.1715 3.52935 25.6316 3.29015 24.9322 3.29015C24.3482 3.29015 23.7371 3.68882 23.4892 4.32669C23.2414 4.96457 23.2651 6.03231 23.2651 6.74992V13.4545C23.2651 13.7076 23.058 13.9121 22.8 13.9121H20.3893C20.1449 13.8948 19.9547 13.6972 19.9547 13.4545L19.9513 6.74992C19.9513 5.33897 20.1788 3.26241 18.4642 3.26241C16.7292 3.26241 16.7971 5.28697 16.7971 6.74992V13.4545C16.7971 13.7076 16.59 13.9121 16.3319 13.9121" fill="#808E9A"/>
<path fill-rule="evenodd" clip-rule="evenodd" d="M60.9494 0.121582C64.5315 0.121582 66.4702 3.26241 66.4702 7.25606C66.4702 11.1145 64.3277 14.1756 60.9494 14.1756C57.4319 14.1756 55.517 11.0348 55.517 7.12085C55.517 3.18268 57.4557 0.121582 60.9494 0.121582ZM60.9698 2.70428C59.1907 2.70428 59.0786 5.1795 59.0786 6.72218C59.0786 8.26833 59.0549 11.5686 60.9494 11.5686C62.8202 11.5686 62.9085 8.90621 62.9085 7.28379C62.9085 6.21605 62.8644 4.9403 62.5486 3.92802C62.277 3.04748 61.7371 2.70428 60.9698 2.70428Z" fill="#808E9A"/>
<path fill-rule="evenodd" clip-rule="evenodd" d="M71.1149 13.9121H68.7111C68.47 13.8948 68.2765 13.6972 68.2765 13.4545L68.2731 0.801056C68.2934 0.568786 68.4938 0.388519 68.7382 0.388519H70.9757C71.1862 0.398912 71.3594 0.544521 71.4069 0.742123V2.67654H71.4511C72.1267 0.946658 73.074 0.121582 74.7411 0.121582C75.8242 0.121582 76.8801 0.520253 77.5592 1.61226C78.1907 2.62454 78.1907 4.32669 78.1907 5.55044V13.5135C78.1636 13.7353 77.9632 13.9121 77.7256 13.9121H75.3047C75.084 13.8948 74.9007 13.7284 74.8769 13.5135V6.64245C74.8769 5.25924 75.0331 3.23468 73.366 3.23468C72.7786 3.23468 72.2388 3.63682 71.9705 4.24696C71.631 5.02003 71.5869 5.78964 71.5869 6.64245V13.4545C71.5835 13.7076 71.373 13.9121 71.1149 13.9121" fill="#808E9A"/>
<path fill-rule="evenodd" clip-rule="evenodd" d="M38.9514 7.86942C38.9514 8.82969 38.9752 9.6305 38.4998 10.4833C38.1161 11.1767 37.505 11.6031 36.8293 11.6031C35.9024 11.6031 35.3592 10.882 35.3592 9.8177C35.3592 7.71688 37.2028 7.33554 38.9514 7.33554V7.86942ZM41.3858 13.8772C41.2262 14.0228 40.9954 14.0332 40.8154 13.9361C40.0141 13.2567 39.8681 12.9412 39.4301 12.2929C38.106 13.6727 37.1655 14.0852 35.4508 14.0852C33.4171 14.0852 31.8383 12.806 31.8383 10.2441C31.8383 8.24382 32.8976 6.88141 34.4119 6.2158C35.7225 5.62646 37.5525 5.52246 38.9514 5.35952V5.04059C38.9514 4.45471 38.9955 3.76137 38.656 3.25524C38.364 2.8011 37.8004 2.61389 37.3013 2.61389C36.3812 2.61389 35.5629 3.09577 35.3626 4.09418C35.3218 4.31605 35.1622 4.53445 34.9416 4.54485L32.6022 4.28831C32.4053 4.24325 32.1846 4.08031 32.2423 3.77177C32.7788 0.873611 35.3456 0 37.6408 0C38.8156 0 40.3502 0.318937 41.2772 1.22721C42.4519 2.34696 42.3399 3.84111 42.3399 5.46699V9.3081C42.3399 10.4625 42.8084 10.9686 43.2498 11.5927C43.4026 11.8145 43.4366 12.0815 43.2396 12.2479C42.7473 12.6673 41.8713 13.4473 41.3892 13.8841L41.3858 13.8772" fill="#808E9A"/>
<path fill-rule="evenodd" clip-rule="evenodd" d="M7.30387 7.86942C7.30387 8.82969 7.32763 9.6305 6.85229 10.4833C6.46862 11.1767 5.86087 11.6031 5.18181 11.6031C4.2549 11.6031 3.71505 10.882 3.71505 9.8177C3.71505 7.71688 5.55869 7.33554 7.30387 7.33554V7.86942ZM9.73829 13.8772C9.57871 14.0228 9.34783 14.0332 9.16788 13.9361C8.36659 13.2567 8.22399 12.9412 7.7826 12.2929C6.45844 13.6727 5.52134 14.0852 3.80332 14.0852C1.77294 14.0852 0.190735 12.806 0.190735 10.2441C0.190735 8.24382 1.25346 6.88141 2.76436 6.2158C4.07495 5.62646 5.90501 5.52246 7.30387 5.35952V5.04059C7.30387 4.45471 7.34801 3.76137 7.01187 3.25524C6.71648 2.8011 6.15286 2.61389 5.65715 2.61389C4.73703 2.61389 3.91537 3.09577 3.71505 4.09418C3.6743 4.31605 3.51472 4.53445 3.29743 4.54485L0.954675 4.28831C0.757748 4.24325 0.540449 4.08031 0.594774 3.77177C1.13463 0.873611 3.69807 0 5.99329 0C7.16805 0 8.70272 0.318937 9.62964 1.22721C10.8044 2.34696 10.6924 3.84111 10.6924 5.46699V9.3081C10.6924 10.4625 11.1609 10.9686 11.6023 11.5927C11.7585 11.8145 11.7924 12.0815 11.5955 12.2479C11.1032 12.6673 10.2272 13.4473 9.74508 13.8841L9.73829 13.8772" fill="#808E9A"/>
</g>
<defs>
<clipPath id="clip0_1698_31579">
<rect width="78" height="24" fill="white" transform="translate(0.190735)"/>
</clipPath>
</defs>
</svg>
