<svg width="28" height="28" viewBox="0 0 28 28" fill="none" xmlns="http://www.w3.org/2000/svg">
<path d="M25.4013 21.8205C24.974 22.7987 24.4682 23.6992 23.8822 24.5271C23.0834 25.6557 22.4293 26.4369 21.9253 26.8707C21.1439 27.5828 20.3068 27.9475 19.4103 27.9682C18.7667 27.9682 17.9906 27.7867 17.0872 27.4186C16.1808 27.0522 15.3478 26.8707 14.5861 26.8707C13.7873 26.8707 12.9306 27.0522 12.0143 27.4186C11.0965 27.7867 10.3572 27.9786 9.79193 27.9976C8.93226 28.0339 8.07539 27.6588 7.22008 26.8707C6.67418 26.3989 5.99136 25.59 5.17338 24.4441C4.29575 23.2205 3.57421 21.8015 3.00895 20.1838C2.40357 18.4364 2.1001 16.7444 2.1001 15.1062C2.1001 13.2298 2.50926 11.6114 3.32882 10.2551C3.97291 9.16575 4.82979 8.30642 5.90224 7.67557C6.97469 7.04473 8.13347 6.72326 9.38137 6.70269C10.0642 6.70269 10.9596 6.91199 12.0723 7.32334C13.1819 7.73607 13.8944 7.94537 14.2068 7.94537C14.4403 7.94537 15.2318 7.70063 16.5735 7.21272C17.8424 6.76024 18.9132 6.57289 19.7905 6.64669C22.1677 6.83681 23.9537 7.76545 25.1414 9.43848C23.0154 10.715 21.9637 12.503 21.9846 14.7967C22.0038 16.5833 22.6578 18.07 23.9432 19.2505C24.5258 19.7983 25.1763 20.2218 25.9001 20.5225C25.7431 20.9736 25.5774 21.4057 25.4013 21.8205ZM19.9492 0.56016C19.9492 1.96048 19.433 3.26795 18.404 4.47814C17.1622 5.91681 15.6601 6.74814 14.0313 6.61696C14.0106 6.44897 13.9985 6.27216 13.9985 6.08636C13.9985 4.74206 14.5891 3.30338 15.6378 2.12707C16.1614 1.53149 16.8273 1.03627 17.6348 0.641218C18.4406 0.252064 19.2028 0.0368539 19.9196 0C19.9405 0.187201 19.9492 0.374414 19.9492 0.560141V0.56016Z" fill="black"/>
</svg>
