<svg width="87" height="24" viewBox="0 0 87 24" fill="none" xmlns="http://www.w3.org/2000/svg">
<g clip-path="url(#clip0_1698_31572)">
<path d="M86.1426 0V24H61.7616V0H86.1426ZM55.6664 0V24H31.2854V0H55.6664ZM25.1902 0V24H0.809235V0H25.1902ZM75.0841 5.11429C73.9811 5.11429 72.9943 5.28571 72.1235 5.6C71.2818 5.88571 70.4981 6.37143 69.8596 7C69.221 7.6 68.7276 8.34286 68.4083 9.17143C68.06 10.0286 67.9149 10.9714 67.9149 12C67.9149 13.0857 68.089 14.0286 68.4083 14.8857C68.7276 15.7429 69.192 16.4571 69.8015 17.0571C70.411 17.6571 71.1367 18.1143 72.0364 18.4286C72.9072 18.7429 73.894 18.9143 74.997 18.9143C75.8097 18.9143 76.6224 18.8286 77.348 18.6571C78.0446 18.5143 78.7122 18.2571 79.3217 17.9143V15.3429C78.1317 16.0571 76.7675 16.4571 75.4033 16.4286C74.4745 16.4286 73.6909 16.2571 73.0233 15.9143C72.3847 15.5714 71.8623 15.0571 71.543 14.4C71.1947 13.7429 71.0206 12.9429 71.0206 12C71.0206 11.0571 71.1947 10.2571 71.543 9.6C71.8913 8.97143 72.4138 8.42857 73.0813 8.11429C73.7489 7.77143 74.5616 7.6 75.4904 7.6C76.187 7.6 76.8256 7.68571 77.4351 7.85714C78.0446 8.02857 78.6251 8.28571 79.1475 8.65714V6C78.538 5.68571 77.9285 5.45714 77.2609 5.31429C76.5353 5.17143 75.8097 5.11429 75.0841 5.11429ZM43.3017 5.25714H38.1643V18.7429H43.621C44.6949 18.7429 45.6237 18.6 46.4074 18.2571C47.1911 17.9429 47.7716 17.4857 48.1779 16.9143C48.5843 16.3429 48.8165 15.6286 48.8165 14.8286C48.8165 14 48.6133 13.3143 48.1779 12.7429C47.7426 12.1714 47.133 11.7429 46.3203 11.4857C46.9008 11.2 47.3362 10.8286 47.6555 10.3714C47.9457 9.88571 48.0909 9.34286 48.0909 8.71429C48.0909 7.6 47.6845 6.74286 46.8428 6.14286C46.0011 5.54286 44.811 5.25714 43.3017 5.25714ZM12.8256 5.25714H7.65912V18.7429H13.1158C14.1897 18.7429 15.1185 18.6 15.9022 18.2571C16.6859 17.9429 17.2664 17.4857 17.6727 16.9143C18.0791 16.3429 18.3113 15.6286 18.3113 14.8286C18.3113 14 18.1081 13.3143 17.6727 12.7429C17.2374 12.1714 16.6278 11.7429 15.8151 11.4857C16.3956 11.2 16.831 10.8286 17.1503 10.3714C17.4405 9.88571 17.5856 9.34286 17.5856 8.71429C17.5856 7.6 17.1793 6.74286 16.3376 6.14286C15.4959 5.54286 14.3349 5.25714 12.8256 5.25714ZM43.3888 12.9143C45.1013 12.9143 45.943 13.5429 45.943 14.7714C45.943 15.3429 45.7108 15.8 45.2754 16.1143C44.8401 16.4286 44.1725 16.5714 43.3598 16.5714H40.9217V12.9143H43.3888ZM12.9126 12.9143C14.6251 12.9143 15.4668 13.5429 15.4668 14.7714C15.4668 15.3429 15.2346 15.8 14.7993 16.1143C14.3639 16.4286 13.6963 16.5714 12.8836 16.5714H10.4455V12.9143H12.9126ZM43.0405 7.42857C44.5208 7.42857 45.2464 7.97143 45.2464 9.02857C45.2464 9.57143 45.0432 10 44.6659 10.3143C44.2886 10.6286 43.7371 10.7714 43.0115 10.7714H40.8927V7.42857H43.0405ZM12.5643 7.42857C14.0446 7.42857 14.7702 7.97143 14.7702 9.02857C14.7702 9.57143 14.5671 10 14.1897 10.3143C13.8124 10.6286 13.2609 10.7714 12.5353 10.7714H10.4165V7.42857H12.5643Z" fill="#808E9A"/>
</g>
<defs>
<clipPath id="clip0_1698_31572">
<rect width="85.3333" height="24" fill="white" transform="translate(0.809235)"/>
</clipPath>
</defs>
</svg>
