<svg width="80" height="80" viewBox="0 0 80 80" fill="none" xmlns="http://www.w3.org/2000/svg">
<rect x="0.4" y="0.4" width="79.2" height="79.2" rx="39.6" fill="white" stroke="#EAE0FF" stroke-width="0.8"/>
<path d="M43.5736 29.1501C40.2029 29.1501 36.8874 30.6467 34.3455 33.611V19.0195H29.3447V43.5977C29.3447 51.5698 35.5612 58.0453 43.2144 58.0453C50.8676 58.0453 57.0841 51.5698 57.0841 43.5977C57.0841 35.6256 51.2268 29.1501 43.5736 29.1501ZM43.2144 52.4907C38.4899 52.4907 34.6771 48.5191 34.6771 43.5977C34.6771 38.7051 38.4899 34.7047 43.2144 34.7047C47.9389 34.7047 51.7517 38.6763 51.7517 43.5977C51.7517 48.4903 47.9389 52.4907 43.2144 52.4907Z" fill="black"/>
<path d="M25.6979 58.0471C27.5901 58.0471 29.1239 56.4494 29.1239 54.4784C29.1239 52.5074 27.5901 50.9097 25.6979 50.9097C23.8058 50.9097 22.272 52.5074 22.272 54.4784C22.272 56.4494 23.8058 58.0471 25.6979 58.0471Z" fill="#0000FF"/>
</svg>
