<svg xmlns="http://www.w3.org/2000/svg" width="213" height="121" fill="none"><path fill="#000" stroke="#000" stroke-linecap="round" stroke-linejoin="round" stroke-width="1.046" d="m37.23.969 25.814.608 6.872 3.649c2.021 1.013 3.864 2.058 3.84 4.054l-.218 18.741-40.206-4.74.219-18.741c.023-1.996 1.668-3.592 3.675-3.568l.003-.003zm53.36 0 25.814.608 6.872 3.649c2.021 1.013 3.864 2.058 3.84 4.054l-.218 18.741-40.206-4.74.219-18.741c.023-1.996 1.668-3.592 3.675-3.568l.003-.003zm51.338 1.216 25.815.608 6.872 3.649c2.021 1.013 3.864 2.058 3.84 4.054l-.218 18.741-40.206-4.74.218-18.74c.024-1.996 1.668-3.593 3.676-3.57l.003-.002z"/><path fill="#00DDB3" stroke="#000" stroke-linecap="round" stroke-linejoin="round" stroke-width="1.046" d="m35.208.969 26.469.308c2.008.023 3.614 1.658 3.59 3.653l-.218 18.742-33.738-.39.218-18.742c.024-1.996 1.668-3.592 3.676-3.568l.003-.003zm53.718.405 26.153.308c1.984.024 3.571 1.658 3.548 3.654l-.216 18.74-33.336-.39.216-18.74a3.599 3.599 0 0 1 3.632-3.569l.003-.003zm50.981.811 26.468.308c2.008.024 3.614 1.658 3.591 3.653l-.219 18.742-33.737-.39.218-18.742c.024-1.995 1.668-3.592 3.676-3.568l.003-.003z"/><g clip-path="url(#a)"><path fill="#000" d="M212.413 49.89v22.517h-35.537l-12.121-8.229h35.538V21.565h.027l-.027-8.229v-.207l12.12 8.229V49.89z"/><path fill="#148AFF" d="M200.293 21.564v42.614H12.706V21.564h187.587z"/><path fill="#148AFF" d="M200.293 13.336v8.229H12.706v42.613H.586V13.336h199.707z"/><path fill="#002B28" d="M194.618 72.407v48.156l-12.12-8.226V64.178l12.12 8.229z"/><path fill="#00514D" d="M194.011 120.563H33.425v.003H12.744v-.003h-.038v-.024L.653 112.643l12.053-.198v-.108h169.185l12.12 8.226z"/><path fill="#00DDB3" d="M182.498 64.212v48.244H12.716V64.212h169.782zM12.706 72.407v39.93H.586V64.178h12.12v8.229z"/><path stroke="#000" stroke-linecap="round" stroke-linejoin="round" stroke-width="1.046" d="M12.706 112.337v.108l-12.053.199 12.053 7.895v.024h.038v.003h20.68v-.003h160.797V72.407h18.193V21.358l-12.121-8.229v.207l.027 8.229h-.027"/><path stroke="#000" stroke-miterlimit="10" stroke-width="1.046" d="M200.293 13.336H.586v99.001H182.7V64.178h17.593V13.336z"/><path stroke="#000" stroke-linecap="round" stroke-linejoin="round" stroke-width="1.046" d="M194.221 72.407 182.1 64.178H.586m181.507 48.159 12.121 8.226"/><path fill="#fff" d="M14.843 51.724H28.02c5.619 0 10.55-2.108 10.55-7.905 0-3.568-2.02-5.716-4.527-6.527 1.415-.933 2.304-2.96 2.304-4.581 0-5.798-4.487-7.257-8.852-7.257H14.842v26.27zm7.68-10.256h5.296c1.496 0 2.749.283 2.749 1.864 0 1.581-1.253 1.865-2.75 1.865h-5.295v-3.73zm6.63-7.541c0 1.095-.566 1.784-2.345 1.784h-4.285v-3.73h4.285c1.779 0 2.345.73 2.345 1.946zm31.766-2.919H53.56v9.77c0 2.554-.808 4.46-3.032 4.46-1.94 0-2.668-1.135-2.668-3.608V31.008h-7.357v11.554c0 5.068 1.294 9.568 7.52 9.568 2.06 0 4.122-.284 5.941-2.676v2.27h6.953V31.008zm2.428 20.716h7.357V31.008h-7.357v20.716zm-.525-26.473c0 2.27 1.9 4.176 4.163 4.176 2.345 0 4.245-1.905 4.245-4.176 0-2.31-1.9-4.216-4.245-4.216-2.263 0-4.163 1.905-4.163 4.216zm10.296 26.473h7.358V25.05h-7.358v26.675zm11.47-6.689c0 4.54 2.587 7.095 6.548 7.095 1.82 0 4.002-.365 5.78-1.622l-1.98-5.392c-.525.365-1.253.649-1.86.649-.646 0-1.131-.325-1.131-1.297v-7.622h4.568v-5.838h-4.568v-5.554l-7.357 1.824v3.73h-3.032v5.838h3.032v8.189zm31.579-14.027-1.738 12.081-2.466-12.081h-7.155l6.226 20.716h6.71l2.062-12.08 2.061 12.08h6.711l6.225-20.716h-7.155l-2.466 12.081-1.738-12.081h-7.277zm19.683 20.716h7.357V31.008h-7.357v20.716zm-.525-26.473c0 2.27 1.9 4.176 4.163 4.176 2.345 0 4.245-1.905 4.245-4.176 0-2.31-1.9-4.216-4.245-4.216-2.263 0-4.163 1.905-4.163 4.216zm11.994 19.784c0 4.54 2.587 7.095 6.549 7.095 1.819 0 4.002-.365 5.781-1.622l-1.981-5.392c-.526.365-1.253.649-1.86.649-.646 0-1.131-.325-1.131-1.297v-7.622h4.567v-5.838h-4.567v-5.554l-7.358 1.824v3.73h-3.031v5.838h3.031v8.189zm20.8-19.986h-7.357v26.675h7.357v-9.77c0-2.554 1.213-4.46 3.396-4.46 1.616 0 2.304 1.136 2.304 3.609v10.621h7.357V40.17c0-4.175-.566-9.567-7.236-9.567-2.062 0-4.204.527-5.821 2.27v-7.824z"/><path fill="#000" d="M58.684 101.156h21.627v-6.527H66.365V74.886h-7.68v26.27zm22.459-10.337c0 5.959 4.81 10.743 11.157 10.743s11.157-4.784 11.157-10.743c0-6-4.81-10.784-11.157-10.784-6.346 0-11.157 4.784-11.157 10.784zm7.438 0c0-2.474 1.536-4.298 3.72-4.298 2.182 0 3.718 1.825 3.718 4.297 0 2.514-1.536 4.257-3.719 4.257s-3.719-1.743-3.719-4.257zm18.608 3.648c0 4.54 2.587 7.095 6.549 7.095 1.819 0 4.002-.365 5.78-1.622l-1.981-5.392c-.525.365-1.253.649-1.859.649-.647 0-1.132-.324-1.132-1.297v-7.622h4.568V80.44h-4.568v-5.554l-7.357 1.824v3.73h-3.032v5.838h3.032v8.19zm15.948 0c0 4.54 2.588 7.095 6.549 7.095 1.819 0 4.002-.365 5.781-1.622l-1.981-5.392c-.525.365-1.253.649-1.859.649-.647 0-1.132-.324-1.132-1.297v-7.622h4.568V80.44h-4.568v-5.554l-7.358 1.824v3.73h-3.031v5.838h3.031v8.19zm14.251 6.689h7.357V80.44h-7.357v20.716zm-.525-26.473c0 2.27 1.9 4.176 4.163 4.176 2.345 0 4.245-1.905 4.245-4.176 0-2.31-1.9-4.216-4.245-4.216-2.263 0-4.163 1.906-4.163 4.216zm29.7 24.933-2.466-4.987c-1.293.73-3.153 1.257-4.891 1.257-1.981 0-3.8-.73-4.406-2.676h13.704s.161-1.135.161-2.391c0-6-4.487-10.784-10.348-10.784-6.104 0-10.753 4.784-10.753 10.784 0 6.81 5.336 10.743 11.602 10.743 2.546 0 5.093-.527 7.397-1.946zm-8.246-13.784c1.9 0 3.395 1.297 3.638 3.203h-7.357c.444-1.906 1.9-3.203 3.719-3.203zM39.201 72.626H23.825c-4.35 0-7.875 3.536-7.875 7.898v15.42c0 4.362 3.526 7.898 7.875 7.898h15.376c4.35 0 7.875-3.536 7.875-7.898v-15.42c0-4.362-3.526-7.898-7.875-7.898z"/><path fill="#fff" d="M39.607 79.618c-5.358 0-7.346 3.838-8.94 6.92l-1.042 1.971c-1.693 3.269-2.955 5.255-6.21 5.255a1.543 1.543 0 0 0 0 3.087c5.358 0 7.346-3.839 8.94-6.921l1.042-1.97c1.692-3.27 2.955-5.256 6.21-5.256a1.543 1.543 0 0 0 0-3.086z"/></g><defs><clipPath id="a"><path fill="#fff" d="M.184 12.726h212.632v108.243H.184z"/></clipPath></defs></svg>