<svg width="75" height="32" viewBox="0 0 75 32" fill="none" xmlns="http://www.w3.org/2000/svg">
<g clip-path="url(#clip0_1698_31564)">
<path d="M64.5122 13.9773C63.2737 14.2707 60.0027 14.4338 60.0027 14.4338L59.6005 15.7597C59.6005 15.7597 61.2201 15.6184 62.4057 15.738C62.4057 15.738 62.7868 15.7054 62.8291 16.1727C62.8503 16.651 62.7973 17.1509 62.7973 17.1509C62.7973 17.1509 62.7656 17.4444 62.3739 17.5205C61.9187 17.5965 58.8489 17.7378 58.8489 17.7378L58.3514 19.4551C58.3514 19.4551 58.1714 19.8464 58.5843 19.7377C58.9653 19.629 62.1834 18.9986 62.6068 19.0856C63.0514 19.1943 63.5595 19.8246 63.4113 20.3898C63.2419 21.0745 60.0239 23.1831 58.0761 23.0418C58.0761 23.0418 57.0493 23.107 56.1919 21.6832C55.3662 20.3246 56.4777 17.7705 56.4777 17.7705C56.4777 17.7705 55.9802 16.5749 56.3507 16.1401C56.3507 16.1401 56.5624 15.9554 57.1975 15.901L57.9915 14.2272C57.9915 14.2272 57.0917 14.2816 56.5624 13.6077C56.0754 12.9556 56.0331 12.673 56.4142 12.4991C56.8164 12.2817 60.5426 11.597 63.1043 11.684C63.1043 11.684 64.0041 11.5753 64.798 13.173C64.798 13.173 65.1579 13.8251 64.5228 13.9773M54.8581 20.4116C54.5405 21.205 53.6619 22.0419 52.6034 21.531C51.5236 21.0093 49.8193 17.4444 49.8193 17.4444C49.8193 17.4444 49.1842 16.1184 49.0572 16.1619C49.0572 16.1619 48.9195 15.901 48.8455 17.3574C48.7396 18.803 48.8666 21.618 48.2844 22.0636C47.7551 22.4983 47.12 22.3136 46.7601 21.8027C46.4637 21.2919 46.3367 20.0638 46.506 17.9226C46.6966 15.7815 47.1729 13.499 47.7763 12.7926C48.4114 12.0752 48.9195 12.5969 49.1101 12.7926C49.1101 12.7926 49.9252 13.5534 51.3013 15.8032L51.5342 16.2162C51.5342 16.2162 52.7833 18.3574 52.9103 18.3465C52.9103 18.3465 53.0162 18.4552 53.1009 18.3682C53.2279 18.3356 53.1856 17.64 53.1856 17.64C53.1856 17.64 52.9527 15.325 51.7883 11.4122C51.7883 11.4122 51.6189 10.9123 51.7353 10.4341C51.8412 9.99931 52.2964 10.2167 52.2964 10.2167C52.2964 10.2167 54.0536 11.0862 54.911 14.0207C55.7579 16.9553 55.1863 19.6181 54.8687 20.4116M46.2414 12.8795C46.072 13.1838 45.9979 13.6077 45.2675 13.7273C45.2675 13.7273 38.1751 14.2381 37.8258 14.7489C37.8258 14.7489 37.5929 15.0533 37.974 15.1293C38.3762 15.2163 39.9853 15.4337 40.7474 15.4771C41.5731 15.4771 44.3465 15.4989 45.3628 16.7814C45.3628 16.7814 45.945 17.39 45.9238 18.7704C45.9026 20.1833 45.6592 20.6833 45.1193 21.1941C44.5583 21.6723 39.7524 23.8895 36.6508 20.4985C36.6508 20.4985 35.2323 18.8682 37.1483 17.6292C37.1483 17.6292 38.5244 16.7597 42.0495 17.7705C42.0495 17.7705 43.108 18.1617 43.0657 18.5639C43.0022 18.9986 42.1871 19.4334 41.0015 19.4116C39.8582 19.379 39.0114 18.8138 39.1807 18.9117C39.3395 18.966 37.9422 18.2161 37.5082 18.7269C37.0848 19.2051 37.1906 19.4877 37.6141 19.7812C38.6726 20.4116 42.8328 20.1833 44.0713 18.7595C44.0713 18.7595 44.5688 18.1835 43.8173 17.7161C43.0763 17.2814 40.9168 17.0096 40.0805 16.977C39.2866 16.9336 36.312 16.977 35.8674 16.1836C35.8674 16.1836 35.444 15.6184 35.9098 14.0751C36.3967 12.4448 39.8582 11.8144 41.3614 11.684C41.3614 11.684 45.4898 11.5101 46.2625 12.3796C46.2625 12.3796 46.3684 12.5752 46.2414 12.8687M34.5336 22.4331C34.0361 22.8135 32.9776 22.6505 32.6706 22.2158C32.3742 21.8354 32.2683 20.3355 32.3212 17.977C32.3953 15.5641 32.4271 12.6078 32.9564 12.1296C33.4857 11.6622 33.8032 12.0752 34.0149 12.3904C34.2267 12.7165 34.5019 13.0752 34.5442 13.8251C34.6077 14.5859 34.7877 18.4987 34.7877 18.4987C34.7877 18.4987 35.0206 22.0636 34.5442 22.4331M35.5922 9.71672C34.1314 10.2276 33.1363 10.0645 32.2895 9.68411C31.919 10.3688 31.6967 10.5753 31.4215 10.6188C30.998 10.6623 30.6275 9.9667 30.5746 9.74933C30.4899 9.5863 30.2888 9.29284 30.5323 8.62985C29.7066 7.86904 29.6431 6.84738 29.7913 6.16265C29.9818 5.35836 31.3791 2.33685 35.6134 1.97818C35.6134 1.97818 37.6882 1.82602 38.0481 2.95637H38.1116C38.1116 2.95637 40.1229 2.95637 40.0805 4.80405C40.0805 6.65174 37.8575 8.95591 35.5922 9.74933M37.4765 4.45625C36.1427 4.67363 34.0891 6.49958 33.1046 8.01033C34.6183 8.29292 37.2647 8.18423 38.4503 5.7279C38.4503 5.7279 39.0114 4.18454 37.4765 4.45625ZM31.6226 5.65182C31.1992 6.35828 31.178 6.78216 31.3791 7.06475C31.8766 6.30394 32.7553 5.10838 34.0785 4.17367C33.0622 4.28236 32.2048 4.7171 31.6226 5.65182ZM67.6879 22.3571C66.714 24.8134 65.8884 27.3023 65.412 31.0303C65.412 31.0303 65.3061 31.7585 64.7239 31.5194C64.1417 31.302 63.189 30.3238 62.9773 28.9435C62.7656 27.1393 63.5489 24.0961 65.1474 20.5963C64.6816 19.8355 64.3534 18.7052 64.6181 17.1183C64.6181 17.1183 65.0415 14.1838 67.8996 11.5318C67.8996 11.5318 68.2384 11.2383 68.4289 11.3362C68.6618 11.4448 68.5665 12.3796 68.376 12.8578C68.2066 13.3143 66.9363 15.575 66.9363 15.575C66.9363 15.575 66.1424 17.1183 66.3647 18.3248C67.8679 15.9554 71.287 11.1514 73.4042 12.673C74.7485 13.6512 74.7485 16.8031 73.7429 18.6291C72.949 20.0746 70.7048 23.0635 67.7091 22.3679M72.1127 14.9772C71.3294 15.8467 69.9321 17.4987 68.8312 19.7377C69.9956 19.6073 71.1283 18.9443 71.4776 18.6073C72.0386 18.0965 73.3301 16.7162 73.1289 14.8902C73.1289 14.8902 73.0019 13.9338 72.1127 14.9772ZM24.689 23.6396C20.9417 24.8134 17.4061 24.27 15.4795 23.7483C15.4265 24.5525 15.3419 24.8895 15.2148 25.0199C15.0666 25.1938 13.8387 25.9111 13.1612 24.8895C12.8648 24.4004 12.7166 23.52 12.6319 22.7157C8.29181 20.6941 6.28054 17.7161 6.21703 17.6074C6.11117 17.4987 5.1267 16.4445 6.11117 15.1402C7.03212 13.9664 10.0808 12.7817 12.8119 12.3143C12.9177 9.92323 13.1718 8.07554 13.5 7.26039C13.8916 6.2822 14.3891 7.1517 14.8337 7.80382C15.1937 8.29292 15.416 10.3906 15.4371 12.0644C17.2155 11.9774 18.2953 12.1078 20.2748 12.4991C22.8788 12.9556 24.6149 14.3251 24.4773 15.8684C24.3502 17.39 22.9953 18.0204 22.466 18.0639C21.9367 18.1074 21.0899 17.7052 21.0899 17.7052C20.4971 17.4226 21.0369 17.1618 21.725 16.8575C22.4872 16.4771 22.3178 16.0967 22.3178 16.0967C22.0426 15.2272 18.6658 14.6511 15.3101 14.6511C15.3101 16.5532 15.3842 19.7051 15.4371 21.5419C17.7871 21.9984 19.5444 21.9006 19.5444 21.9006C19.5444 21.9006 28.1187 21.6506 28.3622 16.0315C28.6269 10.4015 19.7878 5.01056 13.2777 3.31504C6.77807 1.56517 3.09426 2.80421 2.77669 2.96724C2.42736 3.14114 2.74493 3.20635 2.74493 3.20635C2.74493 3.20635 3.09426 3.26069 3.7294 3.47807C4.36454 3.69544 3.85643 4.02151 3.85643 4.02151C2.74493 4.41278 1.50641 4.18454 1.26294 3.66284C1.01947 3.15201 1.42173 2.68465 1.89808 1.99992C2.34268 1.29345 2.85079 1.31519 2.85079 1.31519C10.8959 -1.56502 20.7194 3.59763 20.7194 3.59763C29.9077 8.35813 31.4744 13.9555 31.305 16.1293C31.1568 18.2704 30.3523 21.8897 24.689 23.6504M7.01095 15.8684C6.10058 16.3032 6.73572 16.9988 6.73572 16.9988C8.4506 18.8791 10.5466 20.0638 12.5578 20.8028C12.7907 17.5422 12.7695 16.3793 12.7695 14.7381C9.65736 14.9554 7.8578 15.4771 7.01095 15.8684Z" fill="#808E9A"/>
</g>
<defs>
<clipPath id="clip0_1698_31564">
<rect width="74.1053" height="32" fill="white" transform="translate(0.762573)"/>
</clipPath>
</defs>
</svg>
