<svg width="56" height="28" viewBox="0 0 56 28" fill="none" xmlns="http://www.w3.org/2000/svg">
<g clip-path="url(#clip0_1849_121531)">
<path d="M24.9551 7.30469C24.9913 7.30478 25.0363 7.30491 25.0725 7.305C25.4247 7.33338 25.6408 7.59901 25.8115 7.90109C26.2071 8.61505 26.7628 10.2799 26.9778 10.9294C27.1389 11.4143 27.2914 11.9082 27.4436 12.393C27.5779 12.8047 27.7663 13.3444 27.7922 13.7558C27.8009 13.902 27.7552 14.0938 27.6464 14.2124C27.5197 14.3491 27.1762 14.4578 26.9774 14.4756C26.4805 14.5108 26.2373 14.2542 26.0398 13.8058C25.5638 12.7352 25.0279 10.522 24.8588 9.57103C24.8053 9.26013 24.6455 8.24521 24.6828 7.78835C24.7012 7.63301 24.7383 7.32238 24.9551 7.30469Z" fill="black"/>
<path d="M22.6771 4.58389C22.6771 4.58389 22.7865 4.22775 22.8956 3.95386C23.0776 3.45168 23.4679 2.72159 23.7762 2.24718C23.876 2.10121 23.9848 1.937 23.9848 1.937C23.9848 1.937 23.7589 2.02778 23.6321 2.09141C23.3337 2.24597 22.9622 2.68367 22.7899 2.94824C22.4997 3.38614 22.236 4.03433 22.56 4.45564C22.605 4.51058 22.6771 4.58389 22.6771 4.58389ZM23.7389 6.11309C23.6936 6.19523 23.675 6.37796 23.6386 6.50581C23.6202 6.57888 23.5749 6.67929 23.5385 6.71576C23.4118 6.87992 23.2851 6.91613 23.0956 6.83337C22.8341 6.70469 22.627 6.44822 22.5374 6.17379C22.5016 6.05489 22.4839 5.90861 22.43 5.80792C22.3401 5.64316 22.1146 5.51461 21.9795 5.36801C21.8083 5.20301 21.6286 4.88264 21.5478 4.66309C21.3148 3.97699 21.4974 3.23718 21.8243 2.5983C22.1512 1.95028 22.6586 1.34846 23.256 0.865689C23.8172 0.410241 24.7037 -0.0443217 25.4713 0.00346536C25.7243 0.0132931 26.0942 0.123975 26.3106 0.279937C26.3556 0.316618 26.4007 0.353298 26.4369 0.362536C26.473 0.371773 26.5543 0.353714 26.6266 0.353911C26.8614 0.327133 27.2315 0.410396 27.394 0.483955C27.7186 0.640212 27.9261 0.814425 28.0879 1.11647C28.4023 1.72054 28.2377 2.53349 27.9381 3.08105C27.4297 4.02104 26.8678 4.74154 26.0532 5.36994C25.7001 5.64318 25.1123 5.9706 24.6423 6.06071C24.4976 6.08774 24.344 6.09645 24.1996 6.12349C24.1272 6.14156 23.8472 6.14994 23.8201 6.1316C23.793 6.11323 23.7389 6.10395 23.7389 6.11309ZM24.9443 4.55351C25.523 4.34487 26.0479 4.00815 26.4826 3.5615C26.9173 3.12399 27.5065 2.34872 27.2462 1.70825C27.1654 1.5161 26.9852 1.37851 26.7775 1.35053C26.5156 1.31326 26.4071 1.3678 26.1446 1.54074C25.9547 1.66817 25.8641 1.7319 25.701 1.90511C25.2119 2.41559 24.5861 3.39182 24.3043 4.10394C24.2406 4.26826 24.1769 4.46002 24.1223 4.58782C24.0859 4.66998 24.0677 4.74305 24.0766 4.75221C24.0946 4.81622 24.7093 4.63513 24.9443 4.55351Z" fill="black"/>
<path d="M23.8551 10.0159C23.9987 10.3727 24.0961 11.095 24.1141 11.1864C24.1405 11.4058 24.1209 11.9359 24.1118 11.9998C24.0748 12.3013 24.02 12.5937 23.9467 12.8859C23.8371 13.3609 23.4827 14.1733 23.238 14.5474C22.3309 15.9341 20.657 17.0537 19.1197 17.7076C18.0798 18.1435 16.8324 18.4782 15.6308 18.5938C15.2875 18.6202 14.9442 18.6467 14.5918 18.664C14.5918 18.664 14.6635 18.9019 14.6901 19.0756C14.6989 19.1487 14.6983 19.3681 14.6891 19.4412C14.6525 19.633 14.5438 19.7606 14.3538 19.8607C14.1277 19.9789 13.8745 20.0604 13.6308 20.0324C13.2244 19.9764 12.9994 19.6742 12.8288 19.299C12.6851 18.997 12.4788 18.4664 12.4788 18.4664C12.4788 18.4664 12.1718 18.4107 11.91 18.3643C11.1336 18.2159 10.3754 18.0037 9.64449 17.7275C9.44597 17.6538 8.59796 17.2677 8.40854 17.1666C7.86734 16.8818 7.37133 16.588 6.93893 16.1481C6.59659 15.809 6.43495 15.4613 6.48138 14.9862C6.5554 14.3192 7.27988 13.6174 7.78681 13.1984C8.16699 12.8887 9.37052 12.0602 9.90408 11.8241C10.1573 11.7151 10.5371 11.5242 10.5643 11.4968C10.5734 11.4877 10.5824 11.4786 10.5825 11.4695C10.5915 11.4512 10.4396 10.8476 10.3769 10.6281C10.3143 10.4177 10.0833 8.96387 10.048 8.65304C10.0304 8.48848 9.97791 7.83029 10.0507 7.62942C10.0962 7.50159 10.2408 7.46543 10.3852 7.50237C11.1344 7.71463 11.718 9.04145 11.96 9.73671C12.1124 10.1575 12.3004 10.7978 12.3004 10.7978C12.3004 10.7978 13.0236 10.5713 13.4756 10.4537C13.9094 10.3452 14.4154 10.2735 14.8853 10.2199C15.4906 10.1485 16.6831 10.0695 17.4234 10.2177C18.0283 10.3382 18.6597 10.6506 18.9566 11.0901C19.2356 11.493 19.298 11.8039 19.1793 12.2789C19.0514 12.8086 18.6618 13.2828 18.1736 13.446C18.0289 13.5004 17.4596 13.5811 17.2521 13.4983C17.1709 13.4615 17.1441 13.3701 17.1804 13.2879C17.1895 13.2605 17.4069 13.0509 17.5427 12.9233C17.6061 12.8595 17.6604 12.7957 17.7058 12.7227C17.7965 12.5767 17.8782 12.4215 17.8244 12.2752C17.7526 12.0922 17.527 12.0276 17.3193 12.0088C16.335 11.9055 14.4918 12.1199 13.6242 12.3094C13.2808 12.3816 12.8107 12.5083 12.8107 12.5083L14.2434 17.2282C14.2434 17.2282 14.659 17.1928 14.9752 17.1479C15.156 17.121 15.9331 16.9769 16.132 16.9226C17.6686 16.5246 19.3232 15.9076 20.5273 14.8416C21.0615 14.3769 21.5145 13.8481 21.8052 13.2365C22.1867 12.4242 22.2254 11.4555 21.8936 10.5497C21.5259 9.56169 20.4808 8.56262 19.7055 7.99387C17.6682 6.48943 14.6717 5.63131 12.1614 5.34114C9.59691 5.05083 7.17593 5.14478 4.71747 5.75043C4.08481 5.90408 2.71975 6.32992 2.08643 6.7212C1.99596 6.77579 1.90547 6.83953 1.81502 6.88498C1.75169 6.92135 1.64308 7.00333 1.62492 7.03982C1.61584 7.05808 1.5977 7.08545 1.5977 7.08545C1.5977 7.08545 1.64284 7.09472 1.69701 7.10399C1.77828 7.11336 2.09459 7.05024 2.25722 7.03241C2.41082 7.01456 2.57331 7.05154 2.66339 7.1432C2.74446 7.22567 2.7804 7.29889 2.73494 7.40842C2.63496 7.64578 2.02942 7.78123 1.75834 7.81706C1.47824 7.85285 1.11692 7.861 0.991046 7.64132C0.838175 7.38498 0.893196 7.0744 0.966258 6.773C1.11236 6.17932 1.44755 5.80551 1.99944 5.46886C2.78655 4.98659 3.80848 4.51414 4.60401 4.26039C6.40306 3.67122 8.21001 3.50248 10.1248 3.53511C11.2177 3.55637 12.6806 3.68831 13.7821 3.88323C14.5676 4.02247 15.8403 4.32753 16.5623 4.55799C16.797 4.63175 18.1595 5.14727 18.3761 5.23924C18.8903 5.46913 19.3864 5.71726 19.8735 5.98363C20.7393 6.46123 21.8663 7.2503 22.4967 7.95576C22.6498 8.12068 22.7758 8.29468 22.974 8.48715C23.0371 8.55131 23.352 8.96345 23.4239 9.09159C23.496 9.21974 23.5948 9.4028 23.6039 9.40282C23.6216 9.48512 23.8194 9.86039 23.8551 10.0159ZM10.9665 13.1248C10.9665 13.1248 10.2883 13.3788 9.82721 13.5604C9.23946 13.7964 8.15416 14.3235 7.55686 14.7515C7.37587 14.8789 7.02286 15.1613 7.04938 15.3807C7.07587 15.6001 7.24714 15.7377 7.44551 15.8662C7.56275 15.9396 8.16703 16.2703 8.32942 16.3438C9.02409 16.6565 10.3599 17.0531 11.2989 17.1653C11.624 17.2028 12.1388 17.2407 12.1388 17.2407C12.1388 17.2407 11.7178 15.8869 11.3511 14.5424C11.1543 13.829 10.9665 13.1248 10.9665 13.1248Z" fill="black"/>
<path d="M31.7817 8.11847C31.8178 8.10945 31.8267 8.10947 31.854 8.10954C32.4323 8.02886 33.0015 7.97558 33.4799 8.04085C33.9133 8.10601 34.202 8.25302 34.5171 8.58291C34.9947 9.08689 35.2543 9.901 35.144 10.6136C35.0615 11.1435 34.7078 11.6635 34.3365 11.9915C33.9564 12.3377 33.5492 12.5651 33.061 12.7648C32.2111 13.1098 31.2171 13.1985 30.3233 13.0407C29.7907 12.9479 29.1138 12.7084 28.6813 12.2868C28.366 11.9752 28.232 11.4904 28.3955 11.0613C28.6414 10.3765 29.4824 10.0041 30.1513 9.84141C30.6575 9.71483 31.6061 9.61689 32.1389 9.64576C32.2834 9.65529 32.8251 9.7116 32.9425 9.76675C33.0237 9.81266 33.0867 9.88595 33.0774 9.97734C33.0674 10.3429 32.2985 10.7521 32.0815 10.8611C31.4845 11.1337 31.0875 10.9955 30.2929 10.9111C30.0942 10.8923 29.8413 10.8825 29.6515 10.9185C29.3171 10.9816 28.9554 11.1817 28.9905 11.5565C29.008 11.7485 29.2696 11.8588 29.4594 11.8868C29.8928 11.9428 30.2179 11.9163 30.5975 11.8076C31.7184 11.5091 32.9121 10.9639 33.6373 10.052C33.7369 9.92428 33.8186 9.76001 33.774 9.59538C33.7649 9.57706 33.6841 9.40319 33.6299 9.40304C33.6208 9.40302 33.6118 9.41213 33.6029 9.41218C33.5847 9.41213 33.5305 9.36628 33.4855 9.33875C33.3954 9.27451 33.0974 9.23715 33.0432 9.22787C32.3571 9.14374 31.1914 9.34165 30.5949 9.45884C29.9713 9.58509 28.9862 9.77434 28.7421 9.81022C28.4983 9.84612 28.2182 9.87277 27.9925 9.83561C27.7577 9.79841 27.4961 9.65147 27.3703 9.43178C27.1455 9.03816 27.138 8.48063 27.2744 8.07886C27.6297 7.01965 28.9594 6.28296 29.9902 5.83792C30.985 5.41107 32.6482 4.94035 33.8128 5.19028C33.9932 5.22733 34.0924 5.28246 34.1102 5.4653C34.1363 5.80352 33.9548 6.06807 33.6925 6.24101C33.4211 6.42307 32.8153 6.64076 32.5441 6.73143C31.3416 7.14855 29.8592 7.53752 28.7916 8.19266C28.7102 8.24729 28.5655 8.32914 28.5291 8.40216C28.402 8.65773 28.9352 8.55864 29.0617 8.54983C29.0979 8.54995 29.107 8.54997 29.134 8.5409L31.7817 8.11854" fill="black"/>
<path d="M36.8848 11.6329C36.3429 11.5948 36.0018 10.8262 35.8673 10.4237C35.419 9.12464 35.2435 7.18661 35.3376 5.82507C35.3658 5.43215 35.3853 4.81072 35.783 4.72952C36.0541 4.67543 36.3067 4.83149 36.523 4.99659C37.1089 5.47344 37.6856 5.95941 38.2624 6.45452C38.8032 6.93124 39.3258 7.40791 39.8304 7.83885C39.8934 7.89386 39.9476 7.93971 40.0108 7.96728C40.0918 8.00406 40.1462 7.98594 40.1644 7.93115C40.1735 7.90376 39.9584 7.24512 39.9045 7.11702C39.8149 6.91572 39.7521 6.74188 39.6802 6.56805C39.4649 6.05565 39.0872 5.35087 38.8085 4.88401C38.5029 4.35308 38.1521 3.81289 37.8734 3.30031C37.7835 3.13557 37.6936 2.96166 37.6399 2.79701C37.5682 2.55006 37.6861 2.36758 37.9661 2.38662C38.5169 2.42468 39.4902 3.32301 39.7874 3.65284C39.8863 3.76277 40.3366 4.33979 40.4444 4.5046C40.8223 5.06314 41.1368 5.6672 41.37 6.29846C41.6121 6.94803 41.8445 7.93573 41.7431 8.66661C41.7062 8.9407 41.5877 9.32424 41.4608 9.53409C41.2613 9.87171 40.7724 10.2268 40.3301 10.1159C39.8517 9.99583 38.8427 9.00602 38.6716 8.84103C38.086 8.26365 37.0232 7.10005 36.879 6.98084C36.843 6.94417 36.7978 6.93492 36.7527 6.92565C36.7077 6.92553 36.7163 7.01694 36.7252 7.07182C36.7694 7.48322 37.2431 9.33982 37.252 9.39467C37.3324 9.70564 37.5292 10.4739 37.5461 10.8761C37.5545 11.1412 37.5538 11.3514 37.3639 11.5245C37.2281 11.6429 37.0925 11.6426 36.8848 11.6329Z" fill="black"/>
<path d="M43.6377 9.56716C43.5476 9.52122 43.4664 9.4753 43.376 9.42936C43.3672 9.4202 43.1149 9.20015 43.0518 9.12689C42.9977 9.06276 42.9617 9.01695 42.9258 8.97117C42.6466 8.59567 42.5303 8.18409 42.4955 7.70875C42.4607 7.26081 42.533 7.22444 42.5889 6.58484C42.5889 6.54826 42.5889 6.52085 42.5891 6.48429C42.5712 6.402 42.3016 5.90772 42.2479 5.73393C42.1673 5.4778 42.3124 5.23143 42.638 5.10437C42.665 5.09523 42.6921 5.08627 42.7103 5.07713C42.837 5.00436 42.8468 4.72106 42.8654 4.49263C42.8843 4.1728 42.9218 3.67938 42.9218 3.67938C42.9218 3.67938 42.47 3.70556 42.2172 3.67744C41.9372 3.64926 41.7117 3.58469 41.5224 3.3831C41.3063 3.14488 41.352 2.97136 41.6143 2.79842C41.7139 2.73472 42.4917 2.33468 42.7358 2.22568C43.0434 2.08942 43.3419 1.95314 43.6403 1.826C43.9024 1.71704 45.0961 1.21762 45.4849 1.11814C46.0902 0.964415 46.5507 1.10276 47.0373 1.51536C47.2987 1.73542 47.5238 2.0285 47.2881 2.28378C46.9257 2.67578 45.5157 3.1015 45.2625 3.17392C44.8557 3.30076 44.2772 3.45457 44.2772 3.45457L44.2655 4.50559C44.2655 4.50559 45.2778 4.20673 45.8472 4.04378C45.9828 4.00758 46.1275 3.97141 46.2087 3.9625C46.5161 3.94505 46.6872 4.13746 46.7857 4.4576C46.9111 4.83267 46.8833 5.02452 46.6031 5.16084C46.4584 5.23357 44.7228 5.74066 44.4876 5.83142C44.3429 5.89499 44.1982 5.95858 44.1982 5.95858C44.1982 5.95858 44.1703 6.32408 44.1512 6.68961C44.1412 7.07344 44.1401 7.44817 44.1401 7.44817C44.1401 7.44817 44.2306 7.43014 44.3027 7.40292C44.4295 7.36673 44.5471 7.31221 44.6374 7.26674C45.1438 7.02137 45.8945 6.67609 46.5185 6.38534C46.8532 6.23088 47.0158 6.15819 47.2683 6.33255C47.4847 6.48849 47.6199 6.64423 47.7004 6.88208C47.7721 7.11075 47.6452 7.32063 47.4729 7.54865C46.9381 8.26922 45.9331 9.18044 45.083 9.52542C44.6942 9.68889 44.5859 9.67029 44.2064 9.6784C44.1343 9.67822 43.8543 9.63174 43.8543 9.6226C43.8452 9.64086 43.6918 9.58562 43.6377 9.56719" fill="black"/>
<path d="M51.2646 8.10738C51.2646 8.10738 51.2364 8.5643 51.2264 8.92985C51.2067 9.55128 51.2384 11.1965 51.2824 11.6993C51.3434 12.4489 51.4739 14.4051 51.4645 14.4599C51.4555 14.5239 51.4373 14.5421 51.3829 14.6059C51.2471 14.7518 51.1747 14.7333 50.9491 14.687C50.6603 14.6222 50.3985 14.5484 50.128 14.3557C49.6052 13.9613 49.4272 12.992 49.3473 12.416C49.0637 10.4046 49.0843 9.47238 49.2796 7.33428C49.2796 7.29772 49.2796 7.28856 49.2619 7.27024C48.9015 6.84882 48.605 6.29051 48.4708 5.81489C48.0411 4.3057 48.4885 2.56128 49.1156 1.08237C49.1611 0.972825 49.4791 0.26081 49.6959 0.206562C49.9129 0.152319 50.0208 0.399375 50.0472 0.618796C50.1355 1.3502 49.8533 2.19941 49.6799 2.88441C49.4882 3.65159 49.4873 3.94405 49.4767 4.60206C49.4762 4.70261 49.5293 5.16887 49.5472 5.22374C49.6009 5.37928 49.6908 5.58058 49.6908 5.58058C49.6908 5.58058 50.0548 4.5488 50.3095 3.9006C50.446 3.54453 50.5549 3.30719 50.673 3.05162C50.8001 2.78691 51.2994 1.83776 51.4537 1.57314C51.7712 1.03477 51.9075 0.80665 52.3149 0.423899C52.6318 0.123158 52.9485 -0.0222119 53.3816 0.116064C54.0585 0.337254 54.5351 1.06057 54.7863 1.69188C55.0826 2.45127 55.1705 3.36546 55.0149 4.13276C54.8318 5.03706 54.4415 5.76717 53.8343 6.48754C53.2092 7.217 52.4126 7.82718 51.5269 8.05325C51.4004 8.07119 51.2648 8.10738 51.2648 8.10738H51.2646ZM53.2603 1.5415C52.9159 2.05237 52.561 2.99277 52.3881 3.46756C52.1696 4.10673 51.996 4.81001 51.7959 5.38526C51.7504 5.51309 51.6407 5.95148 51.6589 5.96066C51.6769 5.979 51.8937 5.91562 52.1019 5.80649C52.5541 5.58837 53.0974 5.0689 53.3694 4.69493C53.7684 4.12023 53.9779 3.43534 53.9528 2.71324C53.9446 2.3842 53.8017 1.72576 53.5044 1.49646C53.4502 1.45976 53.3239 1.44114 53.2603 1.5415Z" fill="black"/>
<path d="M20.1515 18.8819C20.6306 18.737 21.2986 18.8759 21.6501 19.1876L24.9121 22.1577C25.029 22.2585 25.0834 22.2313 25.0386 22.0849L24.0266 18.8467C23.9818 18.7004 23.901 18.4626 23.9106 18.3072C23.9294 17.96 24.1833 17.6408 24.563 17.523L25.8556 17.1244C26.3347 16.9794 26.8309 17.2093 26.9654 17.6483L29.1594 24.7558C29.2937 25.1948 29.0125 25.6692 28.5334 25.8143L26.653 26.3848C26.4903 26.4302 26.2646 26.3929 26.1474 26.2829L22.5249 23.0742C22.4078 22.9734 22.3535 23.0006 22.3983 23.147L23.4373 26.4949C23.5715 26.9341 23.2901 27.4085 22.8111 27.5533L21.5184 27.9521C21.0393 28.0969 20.5431 27.867 20.4088 27.428L18.2147 20.3207C18.0804 19.8816 18.3616 19.4071 18.8408 19.2622L20.1515 18.8819Z" fill="black"/>
<path d="M33.044 22.681L36.2235 19.1984C36.4592 18.934 36.3786 18.6596 36.0355 18.5764L31.4138 17.4488C31.071 17.3656 30.8717 17.5661 30.9791 17.9046L32.4211 22.5422C32.5285 22.8806 32.8083 22.9455 33.044 22.681ZM38.0596 18.2712C38.8476 20.8324 37.4043 23.552 34.837 24.3401C32.2606 25.1283 29.5367 23.686 28.7484 21.1248C27.9604 18.5636 29.404 15.8439 31.9712 15.0558C34.5385 14.2676 37.2716 15.71 38.0596 18.2712Z" fill="black"/>
<path d="M45.2833 12.2951L45.5633 15.7141C45.5895 16.0249 45.4901 16.052 45.3463 15.7775L43.4949 12.2811C43.2792 11.8784 42.7378 11.6576 42.2948 11.8026L41.8066 11.9567C41.3548 12.0925 41.0282 12.5852 41.0632 13.0422L41.4138 17.0189C41.4402 17.3297 41.3408 17.3568 41.197 17.0823L39.3183 13.5858C39.1026 13.1831 38.5614 12.9623 38.1094 13.1073L36.8709 13.497C36.4189 13.6419 36.2103 13.9795 36.3991 14.2634L40.9066 20.9932C41.1584 21.3777 41.7361 21.5712 42.1881 21.4354L43.1825 21.1273C43.4807 21.0367 43.7073 20.7084 43.6811 20.4067L43.3394 16.4392C43.3132 16.1284 43.4035 16.1012 43.5473 16.3758L45.3445 19.8811C45.4883 20.1557 45.8401 20.3029 46.1385 20.2032L47.1962 19.877C47.6482 19.732 48.0108 19.2486 48.0119 18.7825L48.0421 10.8495C48.0434 10.3834 47.6828 10.1265 47.2308 10.2623L45.9832 10.6519C45.712 10.7334 45.4857 10.943 45.3585 11.1986C45.2132 11.4724 45.2571 11.9843 45.2833 12.2952" fill="black"/>
</g>
<defs>
<clipPath id="clip0_1849_121531">
<rect width="54.2128" height="28" fill="white" transform="translate(0.893555)"/>
</clipPath>
</defs>
</svg>
