<svg width="104" height="24" viewBox="0 0 104 24" fill="none" xmlns="http://www.w3.org/2000/svg">
<g clip-path="url(#clip0_1698_31568)">
<path d="M90.0385 12C90.0385 8.20482 92.9517 5.53012 96.8117 5.53012C100.672 5.53012 103.585 8.20482 103.585 12C103.585 15.7229 100.672 18.4699 96.8117 18.4699C92.9517 18.4699 90.0385 15.759 90.0385 12ZM99.7613 12C99.7613 10.2289 98.6324 8.92771 96.8481 8.92771C95.0638 8.92771 93.9349 10.2289 93.9349 12C93.9349 13.7711 95.0638 15.0723 96.8481 15.0723C98.6324 15.0723 99.7613 13.8072 99.7613 12ZM87.4895 9C87.7444 9.50602 87.8536 10.0482 87.8536 10.6265C87.8536 12 87.1253 13.2651 85.96 14.241C87.5623 15 88.5091 16.8434 88.5091 18.5783C88.5091 21.8313 85.8508 24 81.8087 24C77.7667 24 75.1084 21.8675 75.1084 18.5783C75.1084 16.8072 76.0552 15.0361 77.6574 14.241C76.4557 13.2651 75.7639 12 75.7639 10.6265C75.7639 7.77108 78.0216 5.6747 81.5902 5.6747C83.7023 5.6747 84.3214 6.03614 85.5231 6.03614C86.3242 6.03614 86.8704 5.92771 87.8536 5.42169C88.1814 5.24096 88.4363 5.16867 88.6547 5.16867C89.1281 5.16867 89.383 5.63855 89.383 6.21687C89.4195 7.48193 88.8368 8.53012 87.4895 9ZM84.7583 18.4699C84.7583 17.0241 83.6295 16.012 81.8452 16.012C80.0608 16.012 78.932 16.988 78.932 18.4699C78.932 19.8434 80.1701 20.9277 81.8452 20.9277C83.4838 20.9277 84.7583 19.8434 84.7583 18.4699ZM79.4782 10.8434C79.4782 12.0723 80.5342 13.0482 81.8087 13.0482C83.1197 13.0482 84.1393 12.0723 84.1393 10.8434C84.1393 9.54217 83.1925 8.63855 81.8087 8.63855C80.4614 8.63855 79.4782 9.50602 79.4782 10.8434ZM73.3605 12.253V16.7711C73.3605 17.6386 73.0327 18 72.0859 18H70.8114C69.8646 18 69.5369 17.6386 69.5369 16.7711V12.3614C69.5369 11.241 69.3548 10.4458 68.9543 9.93976C68.5173 9.39759 67.8618 9.10843 67.0243 9.10843C66.2231 9.10843 65.4948 9.39759 65.0214 9.93976C64.5845 10.4458 64.2931 11.241 64.2931 12.3253V16.7349C64.2931 17.6386 63.929 17.9639 63.0186 17.9639H61.7441C60.8701 17.9639 60.4696 17.6386 60.4696 16.7349V6.61446C60.4696 6.03614 60.7609 5.78313 61.1979 5.78313C61.8533 5.78313 62.7637 6.3253 63.4556 7.37349C64.4752 6.18072 66.0411 5.56627 67.5705 5.56627C69.4277 5.56627 70.9207 6.21687 71.9039 7.30121C72.8871 8.42169 73.3605 9.86747 73.3605 12.253ZM53.4779 2.06024C53.4779 0.903614 54.4247 0 55.6628 0C56.8281 0 57.8477 0.903614 57.8477 2.06024C57.8477 3.18072 56.8281 4.12048 55.6628 4.12048C54.4247 4.12048 53.4779 3.18072 53.4779 2.06024ZM53.7328 16.7711V7.26506C53.7328 6.39759 54.0605 6.03614 55.0073 6.03614H56.2819C57.2286 6.03614 57.5564 6.39759 57.5564 7.26506V16.7711C57.5564 17.6386 57.2286 18 56.2819 18H55.0073C54.0605 18 53.7328 17.6386 53.7328 16.7711ZM46.996 16.7711V4.84337C46.996 1.84337 48.7075 0.144578 50.0913 0.144578C50.5283 0.144578 50.8196 0.433735 50.8196 0.975904V16.7349C50.8196 17.6386 50.4555 17.9639 49.5451 17.9639H48.2706C47.3966 18 46.996 17.6747 46.996 16.7711ZM31.2648 12C31.2648 8.20482 34.178 5.53012 38.038 5.53012C41.8979 5.53012 44.8111 8.20482 44.8111 12C44.8111 15.7229 41.8979 18.4699 38.038 18.4699C34.178 18.4699 31.2648 15.759 31.2648 12ZM40.9512 12C40.9512 10.2289 39.8223 8.92771 38.038 8.92771C36.2536 8.92771 35.1248 10.2289 35.1248 12C35.1248 13.7711 36.2536 15.0723 38.038 15.0723C39.8223 15.0723 40.9512 13.8072 40.9512 12ZM29.2984 7.26506V17.3855C29.2984 17.9639 29.007 18.2169 28.5701 18.2169C27.9146 18.2169 27.0042 17.6747 26.3488 16.6627C25.402 17.7831 23.9454 18.4337 22.3067 18.4337C20.668 18.4337 19.3571 17.8554 18.3739 16.988C17.245 15.9036 16.626 14.241 16.626 11.8554V7.26506C16.626 6.39759 16.9537 6.03614 17.9005 6.03614H19.175C20.1218 6.03614 20.4495 6.39759 20.4495 7.26506V11.5301C20.4495 12.9759 20.7044 13.7349 21.1778 14.241C21.5784 14.6747 22.161 14.8916 22.8893 14.8916C23.6176 14.8916 24.3095 14.6024 24.7101 14.1325C25.1835 13.6265 25.4384 12.8313 25.4384 11.6024V7.26506C25.4384 6.36145 25.8025 6.03614 26.7129 6.03614H27.9874C28.8978 6 29.2984 6.36145 29.2984 7.26506ZM14.0041 0.975904V17.3855C14.0041 17.9639 13.7128 18.2169 13.2758 18.2169C12.6203 18.2169 11.7099 17.6747 11.0545 16.6988C10.2533 17.6386 8.61467 18.4699 6.72109 18.4699C2.93393 18.4699 0.384888 15.7229 0.384888 12C0.384888 8.3494 2.97035 5.53012 6.72109 5.53012C8.10486 5.53012 9.30655 5.96386 10.2169 6.57831V4.84337C10.2169 1.84337 11.9284 0.144578 13.3122 0.144578C13.7492 0.144578 14.0041 0.433735 14.0041 0.975904ZM10.2169 12C10.2169 10.1566 8.90599 8.92771 7.26731 8.92771C5.59223 8.92771 4.28129 10.1566 4.28129 12C4.28129 13.8434 5.59223 15.0723 7.26731 15.0723C8.90599 15.0723 10.2169 13.8795 10.2169 12Z" fill="#808E9A"/>
</g>
<defs>
<clipPath id="clip0_1698_31568">
<rect width="103.2" height="24" fill="white" transform="translate(0.384888)"/>
</clipPath>
</defs>
</svg>
