<svg width="120" height="120" viewBox="0 0 120 120" fill="none" xmlns="http://www.w3.org/2000/svg">
<rect x="0.6" y="0.6" width="118.8" height="118.8" rx="59.4" fill="white" stroke="#EAE0FF" stroke-width="1.2"/>
<path d="M59.8098 59.9993C59.8098 54.6396 64.1548 50.2945 69.5146 50.2945C74.8744 50.2945 79.2194 54.6396 79.2194 59.9993C79.2194 65.3592 74.8744 69.7041 69.5146 69.7041C64.1548 69.7041 59.8098 65.3592 59.8098 59.9993Z" fill="#1ABCFE"/>
<path d="M40.3999 79.41C40.3999 74.0503 44.7449 69.7052 50.1047 69.7052H59.8095V79.41C59.8095 84.7699 55.4646 89.1148 50.1047 89.1148C44.7449 89.1148 40.3999 84.7699 40.3999 79.41Z" fill="#0ACF83"/>
<path d="M59.8098 30.8853V50.2949H69.5146C74.8745 50.2949 79.2194 45.9499 79.2194 40.5901C79.2194 35.2303 74.8745 30.8853 69.5146 30.8853H59.8098Z" fill="#FF7262"/>
<path d="M40.3999 40.59C40.3999 45.9498 44.7449 50.2948 50.1047 50.2948H59.8095V30.8852H50.1047C44.7449 30.8852 40.3999 35.2302 40.3999 40.59Z" fill="#F24E1E"/>
<path d="M40.3999 59.9993C40.3999 65.3592 44.7449 69.7041 50.1047 69.7041H59.8095V50.2945H50.1047C44.7449 50.2945 40.3999 54.6396 40.3999 59.9993Z" fill="#A259FF"/>
</svg>
