<svg xmlns="http://www.w3.org/2000/svg" width="109" height="40" fill="none"><path fill="#00AA13" fill-rule="evenodd" d="M14.591 6.016C7.106 6.352 1.016 12.275.616 19.602c-.326 6.017 3.12 11.28 8.232 13.723 1.907.91 4.17-.235 4.54-2.281.247-1.379-.47-2.745-1.75-3.357C8.73 26.29 6.78 23.274 7.01 19.84c.269-4.016 3.588-7.28 7.689-7.556 4.848-.328 8.887 3.425 8.887 8.105 0 3.213-1.902 5.987-4.665 7.306a3.074 3.074 0 0 0-1.707 3.315l.013.068c.36 2.012 2.584 3.157 4.461 2.268 4.909-2.328 8.297-7.255 8.297-12.957-.004-8.174-6.963-14.756-15.395-14.373z" clip-rule="evenodd"/><path fill="#00AA13" fill-rule="evenodd" d="M15.303 25.46c-2.854 0-5.174-2.272-5.174-5.067 0-2.796 2.32-5.068 5.174-5.068 2.854 0 5.174 2.272 5.174 5.068 0 2.795-2.32 5.068-5.174 5.068z" clip-rule="evenodd"/><path fill="#454545" fill-rule="evenodd" d="M88.191 21.816a.27.27 0 0 0-.366.09c-.743 1.166-2.03 1.94-3.492 1.94-1.931 0-3.552-1.343-4.031-3.168h11.275a.275.275 0 0 0 .272-.246c.031-.287.047-.578.047-.872 0-4.409-3.583-7.961-7.921-7.756-3.874.182-7.02 3.412-7.197 7.388-.2 4.453 3.26 8.13 7.555 8.13 2.706 0 5.077-1.457 6.41-3.649a.285.285 0 0 0-.094-.395l-2.462-1.462h.004zm-3.858-6.54c1.722 0 3.201 1.074 3.838 2.604h-7.68c.636-1.53 2.115-2.604 3.838-2.604h.004zm-22.638-3.431c-4.173 0-7.555 3.472-7.555 7.755 0 4.283 3.382 7.755 7.555 7.755s7.555-3.472 7.555-7.755c0-4.283-3.382-7.755-7.555-7.755zm0 12.026c-2.297 0-4.161-1.913-4.161-4.271 0-2.358 1.864-4.271 4.16-4.271 2.298 0 4.162 1.913 4.162 4.27 0 2.358-1.864 4.272-4.161 4.272zm12.829-11.812H71.5a.275.275 0 0 0-.272.246V26.6c0 1.316-.444 2.39-1.29 3.109-.55.468-1.266.779-2.064.904a.277.277 0 0 0-.232.279v2.826c0 .157.121.282.275.282h.031c3.776 0 6.836-3.14 6.836-7.016l.015-14.647a.277.277 0 0 0-.275-.282v.004zm-22.669-.005H48.83a.277.277 0 0 0-.275.283v.985c-.539-.642-1.392-.997-1.73-1.118a7.322 7.322 0 0 0-2.423-.4c-4.114.012-7.496 3.443-7.555 7.666-.06 4.348 3.355 7.893 7.578 7.893.842 0 1.656-.142 2.411-.404.346-.125 1.188-.48 1.723-1.114v.75c0 1.317-.444 2.39-1.29 3.109-.731.626-1.758.969-2.89.969-1.645 0-3.222-.69-4.146-1.793a.269.269 0 0 0-.397-.016l-2.006 2.007a.287.287 0 0 0-.004.4c1.707 1.792 3.925 2.708 6.596 2.724h.853c3.776 0 6.836-3.14 6.836-7.016v-1.401l.015-13.245a.277.277 0 0 0-.275-.283l.004.004zm-3.3 7.574c-.023 2.32-1.864 4.194-4.13 4.194-2.265 0-4.129-1.897-4.129-4.239 0-2.341 1.848-4.239 4.13-4.239 2.28 0 4.105 1.873 4.13 4.195v.088zm56.092 7.462a.148.148 0 0 1-.122-.066l-4.653-6.414-2.45 2.446v3.851a.156.156 0 0 1-.154.158H94.02a.156.156 0 0 1-.154-.158V7.647c0-.085.067-.158.154-.158h3.248c.083 0 .154.069.154.158v10.662l6.253-6.201a.151.151 0 0 1 .106-.045h4.307c.094 0 .13.073.141.097a.16.16 0 0 1-.035.17l-5.891 5.865 6.268 8.644c.036.048.04.109.012.161a.15.15 0 0 1-.133.085h-3.8l-.003.004z" clip-rule="evenodd"/></svg>