<svg width="90" height="28" viewBox="0 0 90 28" fill="none" xmlns="http://www.w3.org/2000/svg">
<g clip-path="url(#clip0_1849_122553)">
<path d="M11.4975 9.99091V12.9818H18.7155C18.5238 14.6364 17.949 15.9091 17.0547 16.7364C16.0327 17.7545 14.3719 18.9 11.4975 18.9C7.09013 18.9 3.64086 15.3364 3.64086 10.9455C3.64086 6.55455 7.02626 2.99091 11.4975 2.99091C13.8609 2.99091 15.6494 3.94546 16.9269 5.15455L19.0348 3.05455C17.2463 1.33636 14.8191 0 11.4975 0C5.42937 0 0.319336 4.9 0.319336 10.9455C0.319336 16.9909 5.42937 21.8909 11.4975 21.8909C14.7552 21.8909 17.2463 20.8091 19.1626 18.8364C21.1427 16.8636 21.7815 14.0636 21.7815 11.8364C21.7815 11.1364 21.7176 10.5 21.6537 9.99091H11.4975Z" fill="#4285F4"/>
<path d="M30.7239 7.50928C26.8275 7.50928 23.5698 10.5002 23.5698 14.5729C23.5698 18.6456 26.7636 21.6365 30.7239 21.6365C34.6841 21.6365 37.8779 18.7093 37.8779 14.6365C37.8779 10.5002 34.6841 7.50928 30.7239 7.50928ZM30.7239 18.9002C28.5521 18.9002 26.6997 17.1184 26.6997 14.6365C26.6997 12.0911 28.5521 10.3729 30.7239 10.3729C32.8956 10.3729 34.748 12.0911 34.748 14.6365C34.748 17.1184 32.8956 18.9002 30.7239 18.9002Z" fill="#EA4335"/>
<path d="M65.664 9.10019H65.5362C64.8336 8.27291 63.4922 7.50928 61.7676 7.50928C58.1905 7.50928 55.1245 10.5638 55.1245 14.5729C55.1245 18.5184 58.1905 21.6365 61.7676 21.6365C63.4922 21.6365 64.8336 20.8729 65.5362 20.0456H65.664V21.0638C65.664 23.7365 64.1948 25.2002 61.8953 25.2002C59.979 25.2002 58.8293 23.8638 58.3183 22.6547L55.6355 23.8002C56.402 25.6456 58.5099 28.0002 61.9592 28.0002C65.6001 28.0002 68.73 25.8366 68.73 20.6184V7.8911H65.7917V9.10019H65.664ZM62.0869 18.9002C59.9152 18.9002 58.3183 17.0547 58.3183 14.6365C58.3183 12.1547 59.979 10.3729 62.0869 10.3729C64.1948 10.3729 65.8556 12.2184 65.8556 14.7002C65.9195 17.1184 64.2587 18.9002 62.0869 18.9002Z" fill="#4285F4"/>
<path d="M46.6291 7.50928C42.7327 7.50928 39.4751 10.5002 39.4751 14.5729C39.4751 18.6456 42.6689 21.6365 46.6291 21.6365C50.5894 21.6365 53.7832 18.7093 53.7832 14.6365C53.7832 10.5002 50.5894 7.50928 46.6291 7.50928ZM46.6291 18.9002C44.4574 18.9002 42.605 17.1184 42.605 14.6365C42.605 12.0911 44.4574 10.3729 46.6291 10.3729C48.8009 10.3729 50.6533 12.0911 50.6533 14.6365C50.6533 17.1184 48.8009 18.9002 46.6291 18.9002Z" fill="#FBBC05"/>
<path d="M71.0933 0.318359H74.1593V21.7002H71.0933V0.318359Z" fill="#34A853"/>
<path d="M83.6127 18.9002C82.0158 18.9002 80.93 18.2002 80.1634 16.7365L89.6809 12.8547L89.3615 12.0275C88.7866 10.4365 86.9342 7.50928 83.2933 7.50928C79.6524 7.50928 76.5864 10.3729 76.5864 14.5729C76.5864 18.5184 79.5886 21.6365 83.6127 21.6365C86.8704 21.6365 88.7228 19.6638 89.5531 18.5184L87.1259 16.9275C86.2955 18.1365 85.2096 18.9002 83.6127 18.9002ZM83.4211 10.182C84.6986 10.182 85.7845 10.8184 86.1039 11.7093L79.7163 14.382C79.6524 11.4547 81.8242 10.182 83.4211 10.182Z" fill="#EA4335"/>
</g>
<defs>
<clipPath id="clip0_1849_122553">
<rect width="89.3617" height="28" fill="white" transform="translate(0.319336)"/>
</clipPath>
</defs>
</svg>
