<svg width="126" height="20" viewBox="0 0 126 20" fill="none" xmlns="http://www.w3.org/2000/svg">
<g clip-path="url(#clip0_1698_31570)">
<path d="M49.3227 10.9203L47.6667 10.7719C46.5627 10.6828 46.1333 10.2969 46.1333 9.67344C46.1333 8.90156 46.808 8.42656 48.0961 8.42656C49.3227 8.42656 49.9361 8.93125 50.0281 9.79219H53.9228C53.6775 7.29844 51.8681 5.54688 48.1881 5.54688C44.3546 5.54688 42.2386 7.44688 42.2386 9.94063C42.2386 12.2859 43.5573 13.5625 46.8387 13.8297L48.4947 13.9484C49.7828 14.0375 50.2428 14.4531 50.2428 15.1953C50.2428 15.9672 49.5681 16.5609 48.1881 16.5609C46.9 16.5609 46.1333 15.9969 46.0107 15.0172H41.9013C42.2693 17.7188 44.232 19.4703 48.1881 19.4703C52.0215 19.4703 54.1682 17.5703 54.1682 14.9875C54.1375 12.4937 52.7268 11.2172 49.3227 10.9203ZM35.8291 5.54688C33.3757 5.54688 31.9344 6.79375 31.229 9.31719H30.9837V5.75469H27.1196V19.2625H31.229V11.3953C31.229 9.58438 32.1797 8.60469 33.8971 8.60469C35.6145 8.60469 36.4425 9.61406 36.4425 11.3656V19.2328H40.5519V10.6828C40.5826 7.41719 38.8039 5.54688 35.8291 5.54688ZM23.1022 0.5C21.6915 0.5 20.6488 1.39062 20.6488 2.75625C20.6488 4.12188 21.6915 5.0125 23.0715 5.0125C24.4515 5.0125 25.4942 4.12188 25.4942 2.75625C25.5249 1.42031 24.4822 0.5 23.1022 0.5ZM25.1569 5.75469H21.0475V19.2625H25.1569V5.75469ZM60.639 2.90469H58.0016C57.9096 5.07188 56.9589 6.02188 54.8122 6.2V8.93125H56.4989V14.8688C56.4989 17.8672 58.2469 19.4703 61.7737 19.4703C62.4177 19.4703 63.0924 19.3813 63.7364 19.2328V16.0266C63.399 16.0859 63.0617 16.1156 62.755 16.0859C61.283 16.0859 60.639 15.5516 60.639 14.0375V8.93125H64.2577V5.75469H60.639V2.90469ZM125.93 8.93125V5.75469H122.311V2.90469H119.735C119.674 4.41875 119.214 5.27969 118.202 5.75469V14.8688C118.202 17.8672 119.95 19.4703 123.476 19.4703C124.12 19.4703 124.795 19.3813 125.439 19.2328V16.0266C125.102 16.0859 124.764 16.1156 124.458 16.0859C122.986 16.0859 122.342 15.5516 122.342 14.0375V8.93125H125.93ZM112.436 9.525H112.191V5.75469H108.388V19.2625H112.497V11.9594C112.497 9.94062 113.448 9.07969 115.595 9.07969C115.963 9.07969 116.362 9.10938 116.914 9.19844V5.725C116.546 5.60625 116.147 5.54688 115.748 5.54688C114.061 5.54688 112.927 6.46719 112.436 9.525ZM86.1542 16.0563C84.2222 16.0563 82.8115 14.8094 82.8115 12.4047C82.8115 10.2672 84.0995 8.93125 86.0929 8.93125C87.8102 8.93125 88.7609 9.85156 89.0676 11.3359H93.2383C92.8397 7.8625 90.2636 5.54688 86.1542 5.54688C81.6461 5.54688 78.6714 8.51562 78.6714 12.5828C78.6714 16.7984 81.5234 19.5 86.0929 19.5C90.2636 19.5 92.9623 17.2437 93.3303 13.6219H89.1596C88.9449 15.0766 87.9022 16.0563 86.1542 16.0563ZM71.3725 5.54688C67.7845 5.54688 65.6378 7.23906 65.2391 10.2969H69.1952C69.3178 9.22812 70.0232 8.69375 71.2805 8.69375C72.5379 8.69375 73.1206 9.25781 73.1206 10.0594C73.1206 10.7125 72.6912 11.0687 71.5566 11.2766L69.6858 11.6031C66.3738 12.1969 65.1164 13.5031 65.1164 15.6109C65.1164 18.0156 66.8645 19.5 69.2872 19.5C71.2499 19.5 72.5379 18.6094 73.1206 16.3828H73.3659V19.2625H77.2607V10.4453C77.23 7.3875 75.3593 5.54688 71.3725 5.54688ZM70.9125 16.7687C69.8085 16.7687 69.1645 16.2047 69.1645 15.3438C69.1645 14.6313 69.5938 14.1562 70.6979 13.9187L71.4646 13.7406C72.1392 13.5922 72.6299 13.3844 73.1206 12.9984V14.4531C73.1206 16.0859 72.2312 16.7687 70.9125 16.7687ZM100.629 5.54688C97.0411 5.54688 94.8944 7.23906 94.4957 10.2969H98.4518C98.5745 9.22812 99.2798 8.69375 100.537 8.69375C101.795 8.69375 102.377 9.25781 102.377 10.0594C102.377 10.7125 101.948 11.0687 100.813 11.2766L98.9425 11.6031C95.6304 12.1969 94.373 13.5031 94.373 15.6109C94.373 18.0156 96.1211 19.5 98.5438 19.5C100.507 19.5 101.795 18.6094 102.377 16.3828H102.623V19.2625H106.517V10.4453C106.517 7.3875 104.616 5.54688 100.629 5.54688ZM100.169 16.7687C99.0651 16.7687 98.4211 16.2047 98.4211 15.3438C98.4211 14.6313 98.8505 14.1562 99.9545 13.9187L100.721 13.7406C101.396 13.5922 101.887 13.3844 102.377 12.9984V14.4531C102.377 16.0859 101.488 16.7687 100.169 16.7687Z" fill="#808E9A"/>
<path d="M14.1166 3.73613C13.2579 3.73613 12.6753 4.09238 12.1233 4.86426L10.5286 7.09082V0.708008H6.66448V7.09082L5.06978 4.86426C4.51776 4.09238 3.90442 3.73613 3.0764 3.73613C1.78837 3.73613 0.960355 4.65644 0.929688 5.78457C0.929688 6.73457 1.3897 7.3877 2.37105 7.98145L8.56585 11.8408L14.7606 7.98145C15.742 7.35801 16.2327 6.73457 16.202 5.78457C16.2327 4.65644 15.4047 3.73613 14.1166 3.73613Z" fill="#808E9A"/>
<path d="M8.59651 12.7607C12.2766 12.7607 15.3127 15.4326 15.3127 19.2623H1.88037C1.88037 15.4326 4.91644 12.7607 8.59651 12.7607Z" fill="#808E9A"/>
</g>
<defs>
<clipPath id="clip0_1698_31570">
<rect width="125" height="19" fill="white" transform="translate(0.929688 0.5)"/>
</clipPath>
</defs>
</svg>
