<svg width="109" height="16" viewBox="0 0 109 16" fill="none" xmlns="http://www.w3.org/2000/svg">
<g clip-path="url(#clip0_1698_31566)">
<path d="M34.2289 8.00014C34.2289 10.8533 31.927 13.1746 29.0976 13.1746C26.2679 13.1746 23.9661 10.8533 23.9661 8.00014C23.9661 5.14691 26.2679 2.82566 29.0976 2.82566C31.927 2.82566 34.2289 5.14691 34.2289 8.00014ZM29.0976 0.000247002C24.723 0.000247002 21.1641 3.58894 21.1641 8.00014C21.1641 12.4112 24.723 16 29.0976 16C33.4718 16 37.0308 12.4112 37.0308 8.00014C37.0308 3.58894 33.4718 0.000247002 29.0976 0.000247002Z" fill="#808E9A"/>
<path d="M12.639 0.319633H0.472677C0.384149 0.319633 0.312286 0.392084 0.312286 0.481469V2.93041C0.312286 3.0199 0.384149 3.09224 0.472677 3.09224H5.18124V15.519C5.18124 15.6083 5.25298 15.6807 5.3414 15.6807H7.77031C7.85884 15.6807 7.93061 15.6083 7.93061 15.519V3.09224H12.639C12.7276 3.09224 12.7994 3.0199 12.7994 2.93041V0.481469C12.7994 0.392084 12.7276 0.319633 12.639 0.319633Z" fill="#808E9A"/>
<path d="M108.819 12.908H103.041V0.481579C103.041 0.392303 102.969 0.319935 102.881 0.319935H100.452C100.363 0.319935 100.292 0.392303 100.292 0.481579V15.519C100.292 15.6083 100.363 15.6807 100.452 15.6807H108.819C108.907 15.6807 108.979 15.6083 108.979 15.519V13.0698C108.979 12.9805 108.907 12.908 108.819 12.908Z" fill="#808E9A"/>
<path d="M88.891 15.4548L82.438 0.399372C82.4124 0.340184 82.3545 0.30174 82.2907 0.30174H79.5926C79.5287 0.30174 79.4708 0.340184 79.4456 0.399372L72.9925 15.4548C72.971 15.505 72.9759 15.5626 73.0058 15.6083C73.0355 15.6535 73.086 15.6807 73.1395 15.6807C73.1401 15.6807 73.1403 15.6807 73.1409 15.6807L75.6708 15.6626C75.7341 15.6623 75.7912 15.6244 75.8165 15.5661L80.9418 3.8487L86.0668 15.5661C86.0924 15.6244 86.1491 15.6623 86.2122 15.6626L88.7426 15.6807C88.7432 15.6807 88.7435 15.6807 88.7437 15.6807C88.7975 15.6807 88.8475 15.6535 88.8774 15.6083C88.9073 15.5626 88.9125 15.505 88.891 15.4548Z" fill="#808E9A"/>
<path d="M61.4854 0.319935H59.0565C58.9679 0.319935 58.8962 0.392303 58.8962 0.481579V10.9136L50.6225 0.41006C50.5978 0.359668 50.548 0.324649 50.4893 0.320922C50.4874 0.320703 50.4861 0.320483 50.4842 0.320374C50.4826 0.320374 50.4812 0.319935 50.4796 0.319935H48.0507C47.9621 0.319935 47.8901 0.392303 47.8901 0.481579V15.519C47.8901 15.6083 47.9621 15.6807 48.0507 15.6807H50.4796C50.5679 15.6807 50.6396 15.6083 50.6396 15.519V5.10264L58.931 15.6197C58.9326 15.6218 58.9348 15.6234 58.9367 15.6255C58.9408 15.63 58.9449 15.6345 58.9495 15.6387C58.953 15.6419 58.9565 15.6449 58.9606 15.6478C58.9652 15.6513 58.9701 15.6548 58.9753 15.6578C58.9794 15.6602 58.9834 15.6625 58.9878 15.6645C58.9932 15.6672 58.9989 15.6693 59.0046 15.6714C59.0093 15.673 59.0136 15.6744 59.0182 15.6756C59.0239 15.6769 59.0299 15.6779 59.0359 15.6785C59.0394 15.6791 59.0427 15.6801 59.0462 15.6805C59.0497 15.6806 59.053 15.6807 59.0565 15.6807H61.4854C61.5737 15.6807 61.6454 15.6083 61.6454 15.519V0.481579C61.6454 0.392303 61.5737 0.319935 61.4854 0.319935Z" fill="#808E9A"/>
</g>
<defs>
<clipPath id="clip0_1698_31566">
<rect width="108.667" height="16" fill="white" transform="translate(0.312286)"/>
</clipPath>
</defs>
</svg>
