<svg width="77" height="32" viewBox="0 0 77 32" fill="none" xmlns="http://www.w3.org/2000/svg">
<path d="M50.1183 7.875H47.1206V24.7049C49.8449 24.799 52.5579 24.9371 55.2598 25.1178V22.1526C53.5506 22.0382 51.8369 21.9414 50.1183 21.861V7.875ZM73.9419 7.87676H70.6488L68.4783 12.9273L66.5282 7.87676H63.2846L66.7701 16.9012L62.9652 25.7546C64.0179 25.8577 65.0675 25.9676 66.1161 26.0838L68.329 20.9361L70.5208 26.6106C71.6621 26.7579 72.8006 26.9117 73.9369 27.0746L73.9419 27.0727L70.0367 16.9623L73.9419 7.87676ZM36.8302 24.5578L39.8281 24.5572V17.7113H43.8919V14.7461H39.8281V10.8688H45.1989V7.87696H36.8302V24.5578ZM25.6356 10.8686H28.7732V24.734C29.7707 24.6963 30.7702 24.6652 31.7709 24.639V10.8686H34.9083V7.87676H25.6356V10.8686ZM15.3867 25.5959C18.1498 25.344 20.9255 25.1362 23.7137 24.975V22.0094C21.9322 22.1129 20.1558 22.2352 18.3846 22.3751V17.886C19.5468 17.8745 21.0771 17.8389 22.4328 17.8557V14.8903C21.3498 14.8877 19.609 14.9055 18.3846 14.9212V10.8688H23.7137V7.87696H15.3867V25.5959ZM9.50622 18.741L5.60177 7.87676H2.75275V27.075C3.7501 26.9324 4.7494 26.796 5.75065 26.665V16.2252L9.22229 26.2364C10.3142 26.1092 11.408 25.9889 12.5041 25.8757V7.87676H9.50622V18.741ZM57.7311 25.2964C58.7318 25.3733 59.7311 25.4557 60.7292 25.5449V7.87676H57.7311V25.2964Z" fill="#808E9A"/>
</svg>
