<svg width="80" height="80" viewBox="0 0 80 80" fill="none" xmlns="http://www.w3.org/2000/svg">
<rect x="0.4" y="0.4" width="79.2" height="79.2" rx="39.6" fill="white" stroke="#EAE0FF" stroke-width="0.8"/>
<g clip-path="url(#clip0_2432_16685)">
<path d="M23.4321 20.1709L45.577 18.4791C48.2651 18.2188 48.9692 18.414 50.6972 19.6504L57.8015 24.7258C58.9536 25.5717 59.3376 25.832 59.3376 26.808V54.5928C59.3376 56.3497 58.6976 57.3909 56.5215 57.521L30.7924 59.0827C29.1283 59.1477 28.3603 58.9525 27.5283 57.8463L22.3441 51.014C21.384 49.7126 21 48.8016 21 47.6954V22.9689C21 21.5374 21.64 20.301 23.4321 20.1709Z" fill="white"/>
<path fill-rule="evenodd" clip-rule="evenodd" d="M45.577 18.4791L23.4321 20.1709C21.64 20.301 21 21.5374 21 22.9689V47.6954C21 48.8016 21.384 49.7777 22.3441 51.014L27.5283 57.9114C28.3603 59.0176 29.1923 59.2779 30.7924 59.1477L56.5215 57.586C58.6976 57.4559 59.3376 56.4148 59.3376 54.6579V26.808C59.3376 25.897 59.0176 25.6368 57.9295 24.8559C57.8655 24.7909 57.8015 24.7909 57.7375 24.7258L50.6972 19.7154C49.0332 18.414 48.3291 18.2839 45.577 18.4791ZM31.3684 26.3525C29.2563 26.4827 28.8083 26.5477 27.5923 25.5066L24.5842 23.099C24.2641 22.7737 24.3921 22.3833 25.2242 22.3182L46.5371 20.7565C48.3291 20.6264 49.2252 21.212 49.9292 21.7976L53.5774 24.4655C53.7694 24.5306 54.1534 24.9861 53.6414 24.9861L31.6244 26.3525H31.3684ZM28.9363 54.3976V30.7773C28.9363 29.7362 29.2563 29.2807 30.1524 29.2156L55.4334 27.719C56.2655 27.6539 56.6495 28.1745 56.6495 29.2156V52.6407C56.6495 53.6819 56.4575 54.5278 55.1134 54.5928L30.9204 56.0244C29.5764 56.1545 28.9363 55.634 28.9363 54.3976ZM52.8093 32.0787C52.9373 32.7944 52.8093 33.5102 52.1053 33.5753L50.9533 33.8356V51.2743C49.9292 51.8599 49.0332 52.1202 48.2651 52.1202C47.0491 52.1202 46.7291 51.7298 45.769 50.5585L38.0887 38.3254V50.103L40.5208 50.6886C40.5208 50.6886 40.5208 52.1202 38.6007 52.1202L33.2245 52.4455C33.0965 52.1202 33.2245 51.3393 33.7365 51.2092L35.1446 50.8188V35.202L33.2245 35.0068C33.0965 34.2911 33.4805 33.2499 34.5686 33.1849L40.3288 32.7944L48.2651 45.1577V34.226L46.2171 33.9657C46.0891 33.1198 46.6651 32.4691 47.4331 32.404L52.8093 32.0787Z" fill="black"/>
</g>
<defs>
<clipPath id="clip0_2432_16685">
<rect width="40" height="40.8" fill="white" transform="translate(20 18.3784)"/>
</clipPath>
</defs>
</svg>
