<svg xmlns="http://www.w3.org/2000/svg" width="92" height="40" fill="none"><path fill="#113A54" d="M34.772 29.091V15.818h6.051a6.99 6.99 0 0 1 1.987.273c.452.182.904.455 1.174.91.271.454.542.908.633 1.363.09.636.18 1.182.18 1.818 0 .546 0 1.182-.18 1.727-.09.546-.271 1-.542 1.364-.271.454-.723.727-1.174.909a8.151 8.151 0 0 1-2.078.273h-3.342V29h-2.71v.091zm2.71-6.727h2.257c.452 0 .904 0 1.265-.091.27 0 .542-.182.723-.364a.985.985 0 0 0 .27-.636c.09-.364.09-.727.09-1.182 0-.364-.09-.727-.09-1.09a.828.828 0 0 0-.27-.637c-.181-.182-.452-.273-.723-.364-.452-.09-.813-.09-1.265-.09h-2.258v4.454zm12.554 6.818c-.542 0-1.084-.091-1.535-.273-.361-.182-.723-.364-.903-.727-.271-.364-.362-.728-.452-1.182-.09-.546-.09-1.091-.09-1.637v-6.181h2.529v5.181c0 .455 0 .91.09 1.455 0 .273.09.545.18.727.09.182.362.273.543.364.27.09.632.09.903.09.361 0 .632 0 .993-.181a.927.927 0 0 0 .542-.455c.09-.272.18-.545.18-.818.091-.454.091-.818.091-1.273v-5.09h2.53v9.909h-2.35l-.09-1.273h-.18c-.18.273-.361.545-.632.818a3.33 3.33 0 0 1-.994.455c-.451.09-.903.09-1.355.09zm13.819 0c-.36 0-.812 0-1.174-.09-.361-.092-.722-.183-.993-.364a1.443 1.443 0 0 1-.723-.91h-.18l-.09 1.273h-2.35V14.727h2.53v5.546h.09c.18-.273.452-.546.723-.727.27-.182.632-.273.993-.364.452-.09.813-.09 1.175-.09.541 0 .993.09 1.535.272.452.182.813.454.993.818.272.455.452 1 .542 1.546.181.818.181 1.636.181 2.454 0 .818-.09 1.636-.18 2.455a4.49 4.49 0 0 1-.543 1.545c-.27.364-.632.636-1.083.818-.452.182-.904.273-1.446.182zM62.773 27c.361 0 .722 0 .993-.09.271 0 .452-.183.542-.364.18-.273.18-.546.271-.819 0-.363.09-.909.09-1.545 0-.636 0-1.182-.09-1.545 0-.273-.09-.546-.27-.819-.182-.181-.362-.363-.543-.363-.361-.091-.632-.091-.993-.091-.362 0-.633 0-.994.09a.927.927 0 0 0-.542.455 1.55 1.55 0 0 0-.27.91c-.091.454-.091.909-.091 1.363 0 .455 0 .91.09 1.364 0 .363.09.636.271.909.09.182.361.363.542.454.361 0 .632.091.994.091zm6.773 2.091V14.727h2.529v14.364h-2.53zm9.664.089c-.723 0-1.445 0-2.168-.181-.451-.09-.994-.273-1.355-.546-.361-.272-.632-.545-.723-1-.18-.454-.27-.909-.36-1.454 0-.546-.091-1.182-.091-1.91 0-.726 0-1.544.18-2.272.09-.545.271-1.09.543-1.636.361-.455.812-.727 1.355-.91A10.348 10.348 0 0 1 78.939 19c.632 0 1.354.091 1.987.182.452.09.903.273 1.174.545.271.273.542.546.632 1 .181.455.271.91.271 1.455s.09 1.182.09 1.909v.727h-6.141c0 .364 0 .818.09 1.182 0 .273.18.454.361.727.27.182.542.273.813.273.542.09.993.09 1.535.09h.904c.361 0 .723 0 1.084-.09.361-.09.722-.09.993-.09v1.908c-.271.091-.632.091-.993.182-.361.09-.814.09-1.265.09-.451 0-.903.092-1.265.092zm1.535-5.545v-.272c0-.364 0-.819-.09-1.182a.828.828 0 0 0-.27-.637c-.181-.181-.362-.272-.543-.272-.271-.091-.542-.091-.813-.091-.361 0-.722 0-.994.09-.18 0-.451.183-.541.364-.18.182-.272.455-.272.728-.09.363-.09.818-.09 1.181h3.884l-.271.091zm4.788 5.457v-9.91h2.348v1.728h.18c.09-.455.362-.818.723-1.182.271-.273.632-.454.994-.545.451-.091.903-.091 1.444-.091v2.454c-.631 0-1.354.091-1.896.364-.452.273-.813.636-.994 1.09-.18.728-.361 1.455-.27 2.183v3.909h-2.53z"/><path fill="url(#a)" d="m24.836 31.727 5.6-21.909c.452-1.636-.541-3.363-2.258-3.727C27.908 6 27.636 6 27.365 6H3.34C1.624 6 .269 7.364.269 9.09c0 .274 0 .455.09.728l5.6 21.91C6.321 33.09 7.495 34 8.94 34h13.007c1.355 0 2.53-.91 2.89-2.273z"/><path fill="#fff" fill-rule="evenodd" d="M6.32 9.817h18.155c.18 0 .271 0 .452.091.903.273 1.445 1.182 1.174 2.091l-2.62 10.182a1.656 1.656 0 0 1-1.625 1.273H11.559l1.897 1.181.813 3.455c.09.182.09.273.09.455 0 1-.813 1.727-1.716 1.727h-1.987c-.723 0-1.445-.546-1.626-1.273L4.695 12c-.09-.182-.09-.273-.09-.454 0-1 .812-1.728 1.716-1.728zm4.788 6.272L9.21 14.635h11.47l-.541 3.09c-.09.455-.452.728-.903.728h-6.774c-.452 0-.813-.273-.904-.727l-.451-1.637z" clip-rule="evenodd"/><defs><radialGradient id="a" cx="0" cy="0" r="1" gradientTransform="matrix(-19.1183 16.49433 -26.67396 -30.91735 29.342 6.954)" gradientUnits="userSpaceOnUse"><stop stop-color="#00F3B2"/><stop offset="1" stop-color="#00C2FF"/></radialGradient></defs></svg>