<svg xmlns="http://www.w3.org/2000/svg" width="87" height="40" fill="none"><path fill="#000" d="M33.136 30.355c-1.333 0-2.495-.233-3.488-.699a5.192 5.192 0 0 1-2.317-2.095c-.551-.94-.827-2.104-.827-3.492v-.852h3.348V24c0 1.117.275 1.955.827 2.514.56.549 1.383.824 2.47.824 1.094 0 1.93-.2 2.507-.6.586-.401.879-1.044.879-1.928 0-.643-.2-1.188-.599-1.635-.39-.456-.929-.856-1.616-1.2a18.753 18.753 0 0 0-2.343-.965 11.746 11.746 0 0 1-2.686-1.298 6.176 6.176 0 0 1-1.934-2.012c-.484-.81-.726-1.806-.726-2.989 0-1.182.276-2.188.828-3.017.56-.828 1.323-1.457 2.29-1.885.977-.438 2.084-.657 3.323-.657 1.298 0 2.44.224 3.424.67.993.448 1.77 1.114 2.33 1.998.56.885.84 1.988.84 3.31v.908h-3.36v-.74c0-1.062-.264-1.844-.79-2.347-.526-.512-1.324-.768-2.393-.768-1.044 0-1.846.2-2.406.6-.56.401-.84 1.039-.84 1.914 0 .652.191 1.197.573 1.634.382.438.904.82 1.566 1.146.67.316 1.43.638 2.278.963 1.129.41 2.105.876 2.928 1.397.823.512 1.46 1.155 1.91 1.928.449.763.674 1.736.674 2.919 0 1.21-.28 2.24-.84 3.087-.552.838-1.328 1.48-2.33 1.927-.993.438-2.16.657-3.5.657zm9.665-6.535v-2.613h9.458l-.382.699v-.364c0-.642-.131-1.243-.394-1.801a3.2 3.2 0 0 0-1.197-1.37c-.534-.353-1.213-.53-2.037-.53-.814 0-1.523.191-2.125.573-.594.372-1.057.912-1.388 1.62-.322.708-.483 1.555-.483 2.542 0 1.015.157 1.89.47 2.626.315.726.773 1.285 1.375 1.676.611.382 1.354.573 2.228.573.594 0 1.107-.06 1.54-.182.433-.121.785-.284 1.057-.489.28-.214.488-.442.623-.684.145-.242.23-.485.255-.727h3.335a4.497 4.497 0 0 1-.573 1.83c-.322.587-.776 1.122-1.362 1.606-.585.475-1.298.857-2.138 1.146-.832.279-1.782.419-2.852.419-1.45 0-2.72-.326-3.806-.978-1.086-.652-1.935-1.56-2.546-2.724-.602-1.164-.903-2.495-.903-3.994 0-1.537.305-2.882.916-4.037.62-1.154 1.477-2.053 2.572-2.695 1.094-.652 2.35-.978 3.767-.978 1.46 0 2.72.326 3.781.978 1.07.651 1.892 1.56 2.47 2.723.576 1.155.865 2.5.865 4.037 0 .195-.004.405-.013.628a4.305 4.305 0 0 1-.038.49H42.801zm20.263 6.506a7.38 7.38 0 0 1-1.476-.153 3.808 3.808 0 0 1-1.375-.573c-.416-.28-.751-.69-1.006-1.23-.254-.54-.382-1.252-.382-2.136v-8.087H55.63v-2.933h1.299c.441 0 .789-.019 1.043-.056.255-.047.442-.15.56-.307.12-.159.196-.406.23-.74.042-.345.063-.82.063-1.425v-2.36h3.361v4.888h4.022v2.933h-4.022v6.97c0 .688.076 1.243.23 1.662.152.419.513.628 1.081.628.272 0 .526-.028.764-.084.246-.056.428-.111.547-.167v2.877a5.036 5.036 0 0 1-1.744.293zm5.486-6.506v-2.613h9.458l-.382.699v-.364a4.16 4.16 0 0 0-.395-1.801 3.2 3.2 0 0 0-1.196-1.37c-.535-.353-1.213-.53-2.037-.53-.814 0-1.523.191-2.126.573-.594.372-1.056.912-1.387 1.62-.323.708-.484 1.555-.484 2.542 0 1.015.157 1.89.471 2.626.314.726.773 1.285 1.375 1.676.611.382 1.354.573 2.228.573.594 0 1.107-.06 1.54-.182.433-.121.785-.284 1.056-.489.28-.214.488-.442.624-.684a1.78 1.78 0 0 0 .255-.727h3.335a4.496 4.496 0 0 1-.573 1.83c-.322.587-.776 1.122-1.362 1.606-.585.475-1.298.857-2.139 1.146-.831.279-1.782.419-2.85.419-1.452 0-2.72-.326-3.807-.978-1.086-.652-1.935-1.56-2.546-2.724-.602-1.164-.904-2.495-.904-3.994 0-1.537.306-2.882.917-4.037.62-1.154 1.477-2.053 2.571-2.695 1.095-.652 2.35-.978 3.768-.978 1.46 0 2.72.326 3.78.978 1.07.651 1.893 1.56 2.47 2.723.577 1.155.866 2.5.866 4.037 0 .195-.004.405-.013.628a4.329 4.329 0 0 1-.038.49H68.55zM86.263 8.217v21.83h-3.297V8.218h3.297z"/><path fill="#00B0FF" fill-rule="evenodd" d="M15.173 29.742c.389-.081.73-.322.947-.669l4.87-7.764-7.815-5.365L3.74 30.793c-.365.575.116 1.326.763 1.19l10.67-2.24z" clip-rule="evenodd"/><path fill="#00B0FF" fill-rule="evenodd" d="M6.04 10.258a1.48 1.48 0 0 0-.942.662l-4.05 6.375c-.453.713-.27 1.675.41 2.15l6.588 4.61 9.433-14.848c.365-.576-.116-1.327-.762-1.19L6.04 10.257z" clip-rule="evenodd"/><path fill="#2F48FA" d="M20.99 21.309 8.03 24.043l5.146-8.099 7.816 5.365z"/></svg>