<svg width="94" height="28" viewBox="0 0 94 28" fill="none" xmlns="http://www.w3.org/2000/svg">
<path d="M22.9961 12.4349C18.5561 9.79521 11.2322 9.55249 6.99363 10.8404C6.31294 11.047 5.59319 10.6623 5.38695 9.98096C5.1807 9.29923 5.56454 8.57915 6.24567 8.37199C11.1113 6.89328 19.1997 7.17898 24.3112 10.2166C24.9236 10.5803 25.1244 11.3719 24.7614 11.984C24.3982 12.5968 23.6069 12.7988 22.9961 12.4349ZM22.8507 16.3448C22.5394 16.8509 21.8785 17.0094 21.3737 16.6989C17.672 14.421 12.0273 13.7611 7.6479 15.0918C7.07998 15.2637 6.48013 14.9431 6.30768 14.3756C6.1365 13.8071 6.45687 13.2076 7.02376 13.0347C12.0267 11.515 18.2458 12.2511 22.4974 14.8668C23.0022 15.178 23.1611 15.84 22.8507 16.3448ZM21.1653 20.0997C20.9179 20.506 20.3892 20.6334 19.9849 20.3858C16.7502 18.4067 12.6789 17.9596 7.88421 19.0561C7.42211 19.1622 6.96169 18.8722 6.85625 18.4098C6.75044 17.9472 7.03886 17.4863 7.50199 17.3808C12.749 16.1799 17.2499 16.6968 20.8805 18.9178C21.2853 19.1652 21.4128 19.6947 21.1653 20.0997ZM14.8482 0.210102C7.24093 0.210102 1.07373 6.3838 1.07373 13.9996C1.07373 21.616 7.24093 27.7896 14.8482 27.7896C22.4558 27.7896 28.6227 21.616 28.6227 13.9996C28.6227 6.3838 22.4558 0.210102 14.8482 0.210102Z" fill="#1ED760"/>
<path d="M38.5494 12.9403C36.1711 12.3725 35.7476 11.9739 35.7476 11.1368C35.7476 10.3456 36.4917 9.81338 37.598 9.81338C38.6705 9.81338 39.7337 10.2176 40.8487 11.0499C40.8825 11.0751 40.9247 11.0851 40.9663 11.0785C41.008 11.0723 41.0446 11.0495 41.0691 11.015L42.2304 9.37619C42.2781 9.30884 42.2651 9.21564 42.2008 9.1641C40.8739 8.09821 39.3797 7.58 37.6332 7.58C35.0653 7.58 33.2716 9.12261 33.2716 11.3301C33.2716 13.6973 34.8189 14.5353 37.4928 15.1823C39.7686 15.7071 40.1526 16.1467 40.1526 16.9328C40.1526 17.8037 39.3759 18.3451 38.126 18.3451C36.7379 18.3451 35.6055 17.877 34.3388 16.7788C34.3074 16.7518 34.2643 16.7393 34.2245 16.7416C34.1827 16.745 34.1444 16.7645 34.1177 16.7966L32.8157 18.3479C32.761 18.4123 32.768 18.5085 32.831 18.5641C34.3049 19.8813 36.1173 20.5771 38.0734 20.5771C40.8405 20.5771 42.6286 19.0634 42.6286 16.7207C42.6286 14.7407 41.447 13.6458 38.5494 12.9403Z" fill="#1ED760"/>
<path d="M50.8975 15.5942C50.8975 17.2661 49.8688 18.4327 48.3959 18.4327C46.9397 18.4327 45.8413 17.213 45.8413 15.5942C45.8413 13.9755 46.9397 12.7557 48.3959 12.7557C49.8451 12.7557 50.8975 13.9492 50.8975 15.5942ZM48.8888 10.5924C47.6894 10.5924 46.7056 11.0653 45.8944 12.0344V10.9436C45.8944 10.8575 45.8247 10.7874 45.7386 10.7874H43.6092C43.5232 10.7874 43.4536 10.8575 43.4536 10.9436V23.0635C43.4536 23.1496 43.5232 23.2197 43.6092 23.2197H45.7386C45.8247 23.2197 45.8944 23.1496 45.8944 23.0635V19.2379C46.7058 20.1495 47.6897 20.5948 48.8888 20.5948C51.1174 20.5948 53.3735 18.8773 53.3735 15.5942C53.3735 12.3103 51.1174 10.5924 48.8888 10.5924Z" fill="#1ED760"/>
<path d="M59.1567 18.45C57.6301 18.45 56.4792 17.2221 56.4792 15.594C56.4792 13.9591 57.5903 12.7727 59.1215 12.7727C60.6579 12.7727 61.8165 14.0005 61.8165 15.6297C61.8165 17.2644 60.6979 18.45 59.1567 18.45ZM59.1567 10.5923C56.2866 10.5923 54.0381 12.8048 54.0381 15.6297C54.0381 18.424 56.2711 20.6133 59.1215 20.6133C62.0018 20.6133 64.2572 18.4082 64.2572 15.594C64.2572 12.7893 62.0172 10.5923 59.1567 10.5923Z" fill="#1ED760"/>
<path d="M70.3862 10.7871H68.0428V8.38854C68.0428 8.30242 67.9734 8.23244 67.8874 8.23244H65.7581C65.6719 8.23244 65.6019 8.30242 65.6019 8.38854V10.7871H64.578C64.4921 10.7871 64.4229 10.8572 64.4229 10.9433V12.7756C64.4229 12.8616 64.4921 12.9317 64.578 12.9317H65.6019V17.6728C65.6019 19.5887 66.5544 20.5601 68.433 20.5601C69.1968 20.5601 69.8306 20.4021 70.4279 20.0631C70.4764 20.036 70.5066 19.9836 70.5066 19.9279V18.1831C70.5066 18.1292 70.4785 18.0785 70.4326 18.0502C70.3862 18.0211 70.3285 18.0196 70.281 18.0432C69.8707 18.2498 69.4742 18.3452 69.0309 18.3452C68.3478 18.3452 68.0428 18.0347 68.0428 17.3387V12.9317H70.3862C70.4723 12.9317 70.5415 12.8616 70.5415 12.7756V10.9433C70.5415 10.8572 70.4723 10.7871 70.3862 10.7871Z" fill="#1ED760"/>
<path d="M78.5508 10.7968V10.5022C78.5508 9.63555 78.8827 9.24907 79.6271 9.24907C80.0711 9.24907 80.4277 9.33733 80.8271 9.47072C80.8762 9.48619 80.9276 9.47846 80.9675 9.44898C81.0087 9.41951 81.0318 9.37224 81.0318 9.32219V7.52567C81.0318 7.457 80.9878 7.39624 80.9218 7.37615C80.4999 7.25051 79.9601 7.12141 79.1518 7.12141C77.1847 7.12141 76.1452 8.23028 76.1452 10.327V10.7782H75.1221C75.0362 10.7782 74.9658 10.8482 74.9658 10.9343V12.7759C74.9658 12.8619 75.0362 12.932 75.1221 12.932H76.1452V20.2449C76.1452 20.331 76.2146 20.401 76.3004 20.401H78.4299C78.5159 20.401 78.586 20.331 78.586 20.2449V12.932H80.5742L83.62 20.2429C83.2743 21.0111 82.9343 21.1639 82.4701 21.1639C82.0949 21.1639 81.6998 21.0517 81.2958 20.8305C81.2578 20.8095 81.2129 20.8061 81.1718 20.8188C81.1312 20.8332 81.097 20.8634 81.0797 20.9031L80.358 22.4883C80.3236 22.5632 80.3528 22.6512 80.4249 22.69C81.1784 23.0986 81.8587 23.2729 82.6992 23.2729C84.2717 23.2729 85.1408 22.5395 85.9072 20.5668L89.6016 11.0095C89.6201 10.9614 89.6146 10.9073 89.5852 10.8645C89.5559 10.8223 89.5087 10.7968 89.4571 10.7968H87.2401C87.1738 10.7968 87.1143 10.8389 87.0926 10.9013L84.8216 17.3955L82.3341 10.8971C82.3114 10.8366 82.2533 10.7968 82.1887 10.7968H78.5508Z" fill="#1ED760"/>
<path d="M73.8172 10.7873H71.6877C71.6016 10.7873 71.5317 10.8574 71.5317 10.9435V20.2448C71.5317 20.3309 71.6016 20.4009 71.6877 20.4009H73.8172C73.9031 20.4009 73.9732 20.3309 73.9732 20.2448V10.9435C73.9732 10.8574 73.9031 10.7873 73.8172 10.7873Z" fill="#1ED760"/>
<path d="M72.7636 6.55199C71.9201 6.55199 71.2354 7.23586 71.2354 8.08027C71.2354 8.92534 71.9201 9.60986 72.7636 9.60986C73.6069 9.60986 74.2908 8.92534 74.2908 8.08027C74.2908 7.23586 73.6069 6.55199 72.7636 6.55199Z" fill="#1ED760"/>
<path d="M91.5067 11.7125H91.1165V12.2107H91.5067C91.7014 12.2107 91.8177 12.1153 91.8177 11.9615C91.8177 11.7994 91.7014 11.7125 91.5067 11.7125ZM91.7597 12.4231L92.1835 13.0173H91.8261L91.4445 12.4723H91.1165V13.0173H90.8173V11.4424H91.5189C91.8842 11.4424 92.1247 11.6296 92.1247 11.9447C92.1247 12.2029 91.9756 12.3607 91.7597 12.4231ZM91.4274 10.9184C90.6598 10.9184 90.0788 11.5292 90.0788 12.2774C90.0788 13.0251 90.6556 13.6278 91.4195 13.6278C92.187 13.6278 92.7684 13.0173 92.7684 12.2688C92.7684 11.5211 92.1913 10.9184 91.4274 10.9184ZM91.4195 13.7778C90.5767 13.7778 89.9209 13.1002 89.9209 12.2774C89.9209 11.4544 90.5852 10.769 91.4274 10.769C92.2701 10.769 92.926 11.4467 92.926 12.2688C92.926 13.0918 92.2622 13.7778 91.4195 13.7778Z" fill="#1ED760"/>
</svg>
