<svg width="80" height="80" viewBox="0 0 80 80" fill="none" xmlns="http://www.w3.org/2000/svg">
<rect x="0.4" y="0.4" width="79.2" height="79.2" rx="39.6" fill="white" stroke="#EAE0FF" stroke-width="0.8"/>
<circle cx="39.6001" cy="40.4" r="30" fill="#4945FF"/>
<path d="M38.3948 38.2311H38.0002V38.6417H38.3948V38.2311Z" fill="white"/>
<path fill-rule="evenodd" clip-rule="evenodd" d="M52.6622 26.8563H32.7529V37.4317H42.9047V48.0058H53.0565V27.267C53.0565 27.0401 52.88 26.8563 52.6622 26.8563Z" fill="white"/>
<path d="M32.7588 37.4313H42.5163C42.734 37.4313 42.9106 37.6151 42.9106 37.842V48.0061H33.1531C32.9353 48.0061 32.7588 47.8222 32.7588 47.5954V37.4313Z" fill="#9593FF"/>
<path d="M42.9077 48.0031H53.0594L43.2441 58.2274C43.1201 58.3567 42.9077 58.2651 42.9077 58.0822V48.0031Z" fill="#9593FF"/>
<path d="M32.7562 37.4311H23.0803C22.9047 37.4311 22.8168 37.2099 22.9409 37.0805L32.7562 26.8563V37.4311Z" fill="#9593FF"/>
</svg>
