<svg width="95" height="32" viewBox="0 0 95 32" fill="none" xmlns="http://www.w3.org/2000/svg">
<g clip-path="url(#clip0_1698_31576)">
<path d="M18.2993 11.5512C20.0653 13.0274 22.2287 13.896 24.5653 13.896V8.63801C24.1231 8.63812 23.6821 8.5842 23.2494 8.47701V12.6158C20.913 12.6158 18.7498 11.7472 16.9834 10.2711V21.0011C16.9834 26.3688 13.2623 30.7198 8.6724 30.7198C6.95981 30.7198 5.36802 30.1144 4.04572 29.076C5.5549 30.8805 7.65958 31.9999 9.98804 31.9999C14.5782 31.9999 18.2995 27.6489 18.2995 22.2809V11.5512H18.2993ZM19.9226 6.24651C19.0201 5.09349 18.4275 3.60341 18.2993 1.95607V1.27979H17.0523C17.3661 3.37355 18.4368 5.16234 19.9226 6.24651ZM6.94882 24.957C6.44457 24.1838 6.17208 23.238 6.1733 22.2656C6.1733 19.8106 7.87529 17.8201 9.97509 17.8201C10.3664 17.82 10.7554 17.89 11.1283 18.0284V12.6529C10.6925 12.5831 10.2526 12.5534 9.81298 12.5643V16.7483C9.43976 16.6099 9.05059 16.5396 8.65917 16.5401C6.55937 16.5401 4.85747 18.5304 4.85747 20.9857C4.85747 22.7218 5.70819 24.2248 6.94882 24.957Z" fill="#808E9A"/>
<path d="M16.9833 10.271C18.7498 11.7471 20.9129 12.6157 23.2494 12.6157V8.4769C21.9452 8.15205 20.7906 7.35506 19.9226 6.24651C18.4366 5.16223 17.3661 3.37344 17.0522 1.27979H13.7766V22.2807C13.7692 24.729 12.0701 26.7114 9.97485 26.7114C8.74013 26.7114 7.6432 26.0231 6.94849 24.957C5.70795 24.2248 4.85724 22.7217 4.85724 20.9858C4.85724 18.5307 6.55913 16.5402 8.65893 16.5402C9.06124 16.5402 9.44901 16.6134 9.81274 16.7484V12.5644C5.30348 12.6733 1.67694 16.9819 1.67694 22.2808C1.67694 24.926 2.58003 27.324 4.04576 29.0761C5.36806 30.1144 6.95985 30.7199 8.67245 30.7199C13.2624 30.7199 16.9834 26.3687 16.9834 21.0011V10.271H16.9833Z" fill="#808E9A"/>
<path d="M23.2494 8.4771V7.358C22.0733 7.36009 20.9204 6.97494 19.9226 6.2466C20.8059 7.37744 21.969 8.15718 23.2494 8.4771ZM17.0522 1.27998C17.0223 1.07989 16.9993 0.878471 16.9833 0.676288V0H12.4607V21.0012C12.4534 23.4491 10.7544 25.4315 8.65896 25.4315C8.04376 25.4315 7.46291 25.2607 6.94852 24.9573C7.64323 26.0233 8.74015 26.7115 9.97487 26.7115C12.07 26.7115 13.7693 24.7293 13.7767 22.281V1.27998H17.0522ZM9.81295 12.5646V11.3732C9.43505 11.3128 9.05404 11.2825 8.67257 11.2827C4.08221 11.2826 0.361145 15.6339 0.361145 21.0012C0.361145 24.3661 1.82359 27.3317 4.04588 29.0761C2.58015 27.3241 1.67706 24.926 1.67706 22.2809C1.67706 16.9821 5.30351 12.6735 9.81295 12.5646Z" fill="#808E9A"/>
<path d="M75.654 26.32C78.9383 26.32 81.6008 23.2301 81.6008 19.4188C81.6008 15.6076 78.9383 12.5171 75.654 12.5171H74.7581C78.0424 12.5171 80.705 15.6075 80.705 19.4188C80.705 23.2301 78.0424 26.32 74.7581 26.32H75.654Z" fill="#808E9A"/>
<path d="M74.6769 12.5171H73.781C70.4968 12.5171 67.8338 15.6075 67.8338 19.4188C67.8338 23.2301 70.4968 26.32 73.781 26.32H74.6769C71.3922 26.32 68.7297 23.2301 68.7297 19.4188C68.7296 15.6076 71.3922 12.5171 74.6769 12.5171Z" fill="#808E9A"/>
<path d="M29.4656 9.39795V12.8961H32.9679V26.2257H36.4716V12.9906H39.3225L40.3 9.39806H29.4656V9.39795ZM58.1402 9.39795V12.8961H61.6425V26.2257H65.1461V12.9906H67.997L68.9744 9.39806H58.1402V9.39795ZM40.9523 11.3831C40.9523 10.287 41.7169 9.39795 42.6616 9.39795C43.6071 9.39795 44.3726 10.287 44.3726 11.3831C44.3726 12.4794 43.6076 13.3684 42.6616 13.3684C41.7169 13.3678 40.9523 12.4794 40.9523 11.3831ZM40.9523 14.7868H44.3726V26.2257H40.9523V14.7868ZM45.8392 9.39795V26.2256H49.2608V21.8773L50.3199 20.7419L53.6594 26.3201H57.3249L52.5183 18.1899L56.8358 13.2734H52.6815L49.2608 17.2438V9.39795H45.8392ZM82.7407 9.39795V26.2256H86.1628V21.8773L87.2214 20.7419L90.5619 26.3201H94.2278L89.4212 18.1899L93.7386 13.2734H89.5844L86.1628 17.2438V9.39795H82.7407Z" fill="#808E9A"/>
<path d="M74.7578 26.32C78.042 26.32 80.705 23.2301 80.705 19.4188C80.705 15.6076 78.042 12.5171 74.7578 12.5171H74.6766C71.3922 12.5171 68.7297 15.6075 68.7297 19.4188C68.7297 23.2301 71.3922 26.32 74.6766 26.32H74.7578ZM71.8252 19.4188C71.8252 17.5649 73.1206 16.0632 74.7179 16.0632C76.3141 16.0632 77.6094 17.5649 77.6094 19.4188C77.6094 21.2727 76.3141 22.7753 74.7179 22.7753C73.1206 22.775 71.8252 21.2727 71.8252 19.4188Z" fill="#808E9A"/>
</g>
<defs>
<clipPath id="clip0_1698_31576">
<rect width="93.8667" height="32" fill="white" transform="translate(0.361145)"/>
</clipPath>
</defs>
</svg>
