<svg width="80" height="80" viewBox="0 0 80 80" fill="none" xmlns="http://www.w3.org/2000/svg">
<rect x="0.4" y="0.4" width="79.2" height="79.2" rx="39.6" fill="white" stroke="#EAE0FF" stroke-width="0.8"/>
<g clip-path="url(#clip0_2432_16661)">
<path fill-rule="evenodd" clip-rule="evenodd" d="M43.2587 30.9817C42.3146 31.4763 41.963 32.3118 41.963 34.6191C41.963 34.6191 42.441 34.157 43.1501 33.8995C43.6672 33.7128 44.1088 33.4274 44.3637 33.2407C45.1615 32.6561 45.2853 31.904 45.2853 30.6368C45.2853 30.6368 43.9843 30.6017 43.2587 30.9817ZM37.6596 31.5222C36.8896 32.2009 36.6645 33.2827 36.6645 33.2827L34.1155 43.1588L31.9956 35.0756C31.789 34.2162 31.4169 33.1542 30.8277 32.4359C30.0776 31.5209 28.5528 31.4633 28.3906 31.4633C28.2278 31.4633 26.703 31.5209 25.9522 32.4359C25.3636 33.1542 24.9916 34.2162 24.785 35.0756L22.665 43.1588L20.1154 33.2827C20.1154 33.2827 19.891 32.2009 19.121 31.5222C17.8723 30.4219 16 30.6569 16 30.6569L20.8814 49.1134C20.8814 49.1134 22.4916 49.2299 23.298 48.8188C24.356 48.2799 24.8598 47.8634 25.5007 45.3522C26.0714 43.1131 27.6676 36.5368 27.8166 36.0687C27.8908 35.8376 27.9841 35.2848 28.3906 35.2848C28.8051 35.2848 28.8911 35.8369 28.9633 36.0687C29.1096 36.5374 30.7085 43.1131 31.2799 45.3522C31.9208 47.8634 32.4239 48.2799 33.4826 48.8188C34.2883 49.2299 35.8985 49.1134 35.8985 49.1134L40.7799 30.6569C40.7799 30.6569 38.9083 30.4219 37.6596 31.5222ZM45.2837 33.6701C45.2837 33.6701 44.9785 34.1428 44.2813 34.5321C43.8344 34.7823 43.4048 34.9518 42.944 35.173C42.172 35.5431 41.9628 35.9555 41.9628 36.5845V36.795V37.7669V37.7934V38.0126V49.1135C41.9628 49.1135 43.1949 49.2697 44.0006 48.8586C45.0374 48.3302 45.2758 47.8205 45.285 45.5251V34.3387L45.2837 34.3394V33.6701ZM57.4511 39.93L63.6448 30.718C63.6448 30.718 61.031 30.273 59.7366 31.4509C58.9084 32.205 57.9821 33.5609 57.9821 33.5609L55.7033 36.8461C55.5927 37.0169 55.4477 37.2029 55.2167 37.2029C54.9856 37.2029 54.8413 37.0169 54.7307 36.8461L52.4519 33.5609C52.4519 33.5609 51.5256 32.205 50.6974 31.4509C49.403 30.273 46.7892 30.718 46.7892 30.718L52.9822 39.93L46.8051 49.1135C46.8051 49.1135 49.5275 49.4578 50.8219 48.2787C51.6501 47.5252 52.4519 46.2991 52.4519 46.2991L54.7307 43.0146C54.8413 42.8431 54.9856 42.6577 55.2167 42.6577C55.4477 42.6577 55.5927 42.8431 55.7033 43.0146L57.9821 46.2991C57.9821 46.2991 58.8302 47.5252 59.6585 48.2787C60.9535 49.4578 63.6283 49.1135 63.6283 49.1135L57.4511 39.93Z" fill="black"/>
</g>
<defs>
<clipPath id="clip0_2432_16661">
<rect width="47.669" height="19.2" fill="white" transform="translate(16 30.4)"/>
</clipPath>
</defs>
</svg>
